%TF.GenerationSoftware,KiCad,Pcbnew,5.1.12*%
%TF.CreationDate,2022-01-03T10:53:03+01:00*%
%TF.ProjectId,diy-schematics,6469792d-7363-4686-956d-61746963732e,rev?*%
%TF.SameCoordinates,Original*%
%TF.FileFunction,Soldermask,Top*%
%TF.FilePolarity,Negative*%
%FSLAX46Y46*%
G04 Gerber Fmt 4.6, Leading zero omitted, Abs format (unit mm)*
G04 Created by KiCad (PCBNEW 5.1.12) date 2022-01-03 10:53:03*
%MOMM*%
%LPD*%
G01*
G04 APERTURE LIST*
%ADD10R,1.600000X1.600000*%
%ADD11C,1.600000*%
%ADD12O,1.600000X1.600000*%
%ADD13R,2.400000X2.400000*%
%ADD14C,2.400000*%
%ADD15O,2.000000X1.700000*%
%ADD16R,1.900000X1.800000*%
%ADD17R,1.900000X2.300000*%
%ADD18R,1.400000X0.400000*%
%ADD19R,1.700000X1.700000*%
%ADD20O,1.700000X1.700000*%
%ADD21O,1.950000X1.700000*%
%ADD22O,1.400000X1.400000*%
%ADD23C,1.400000*%
%ADD24R,1.500000X1.500000*%
%ADD25O,1.500000X1.500000*%
%ADD26C,4.400000*%
G04 APERTURE END LIST*
D10*
%TO.C,C1*%
X41656000Y-178054000D03*
D11*
X39656000Y-178054000D03*
%TD*%
D12*
%TO.C,R5*%
X39508000Y-173482000D03*
D11*
X39508000Y-165862000D03*
%TD*%
D13*
%TO.C,C5*%
X79756000Y-167386000D03*
D14*
X79756000Y-172386000D03*
%TD*%
D11*
%TO.C,C10*%
X83312000Y-183134000D03*
X83312000Y-188134000D03*
%TD*%
%TO.C,C3*%
X67310000Y-186864000D03*
X67310000Y-181864000D03*
%TD*%
D14*
%TO.C,C4*%
X90424000Y-180260000D03*
D13*
X90424000Y-175260000D03*
%TD*%
%TO.C,C6*%
X48260000Y-168910000D03*
D14*
X48260000Y-173910000D03*
%TD*%
%TO.C,C7*%
X47000000Y-188000000D03*
D13*
X47000000Y-183000000D03*
%TD*%
D11*
%TO.C,C9*%
X59690000Y-189992000D03*
X64690000Y-189992000D03*
%TD*%
%TO.C,J2*%
G36*
G01*
X62750000Y-173850000D02*
X61250000Y-173850000D01*
G75*
G02*
X61000000Y-173600000I0J250000D01*
G01*
X61000000Y-172400000D01*
G75*
G02*
X61250000Y-172150000I250000J0D01*
G01*
X62750000Y-172150000D01*
G75*
G02*
X63000000Y-172400000I0J-250000D01*
G01*
X63000000Y-173600000D01*
G75*
G02*
X62750000Y-173850000I-250000J0D01*
G01*
G37*
D15*
X62000000Y-170500000D03*
%TD*%
D16*
%TO.C,J4*%
X95300000Y-190850000D03*
X95300000Y-193150000D03*
D17*
X95300000Y-188250000D03*
X95300000Y-195750000D03*
D18*
X92450000Y-190700000D03*
X92450000Y-191350000D03*
X92450000Y-192000000D03*
X92450000Y-192650000D03*
X92450000Y-193300000D03*
%TD*%
D19*
%TO.C,J5*%
X87884000Y-195072000D03*
D20*
X87884000Y-192532000D03*
X87884000Y-189992000D03*
X87884000Y-187452000D03*
%TD*%
%TO.C,J6*%
G36*
G01*
X32803000Y-177204000D02*
X34253000Y-177204000D01*
G75*
G02*
X34503000Y-177454000I0J-250000D01*
G01*
X34503000Y-178654000D01*
G75*
G02*
X34253000Y-178904000I-250000J0D01*
G01*
X32803000Y-178904000D01*
G75*
G02*
X32553000Y-178654000I0J250000D01*
G01*
X32553000Y-177454000D01*
G75*
G02*
X32803000Y-177204000I250000J0D01*
G01*
G37*
D21*
X33528000Y-180554000D03*
X33528000Y-183054000D03*
%TD*%
D12*
%TO.C,R1*%
X36068000Y-165862000D03*
D11*
X36068000Y-173482000D03*
%TD*%
%TO.C,R2*%
X31000000Y-188722000D03*
D12*
X38620000Y-188722000D03*
%TD*%
D11*
%TO.C,R3*%
X32512000Y-173482000D03*
D12*
X32512000Y-165862000D03*
%TD*%
%TO.C,R4*%
X46380000Y-195000000D03*
D11*
X54000000Y-195000000D03*
%TD*%
%TO.C,R6*%
X64000000Y-193000000D03*
D12*
X71620000Y-193000000D03*
%TD*%
D22*
%TO.C,R7*%
X68072000Y-165354000D03*
D23*
X62992000Y-165354000D03*
%TD*%
%TO.C,R8*%
X56642000Y-190246000D03*
D22*
X56642000Y-195326000D03*
%TD*%
D10*
%TO.C,U1*%
X56000000Y-178000000D03*
D12*
X63620000Y-185620000D03*
X56000000Y-180540000D03*
X63620000Y-183080000D03*
X56000000Y-183080000D03*
X63620000Y-180540000D03*
X56000000Y-185620000D03*
X63620000Y-178000000D03*
%TD*%
D24*
%TO.C,U2*%
X80010000Y-179832000D03*
D25*
X80010000Y-182372000D03*
X80010000Y-187452000D03*
X80010000Y-189992000D03*
X80010000Y-192532000D03*
%TD*%
D11*
%TO.C,C2*%
X42132000Y-194310000D03*
D10*
X40132000Y-194310000D03*
%TD*%
%TO.C,C8*%
X72000000Y-185000000D03*
D11*
X72000000Y-183000000D03*
%TD*%
%TO.C,J3*%
G36*
G01*
X69584000Y-177888000D02*
X68084000Y-177888000D01*
G75*
G02*
X67834000Y-177638000I0J250000D01*
G01*
X67834000Y-176438000D01*
G75*
G02*
X68084000Y-176188000I250000J0D01*
G01*
X69584000Y-176188000D01*
G75*
G02*
X69834000Y-176438000I0J-250000D01*
G01*
X69834000Y-177638000D01*
G75*
G02*
X69584000Y-177888000I-250000J0D01*
G01*
G37*
D15*
X68834000Y-174538000D03*
%TD*%
D26*
%TO.C,H1*%
X56388000Y-166878000D03*
%TD*%
%TO.C,H2*%
X93000000Y-167000000D03*
%TD*%
%TO.C,H3*%
X32000000Y-194000000D03*
%TD*%
M02*
