M48
; DRILL file {KiCad 5.1.12} date Mon 03 Jan 2022 10:53:06 AM CET
; FORMAT={-:-/ absolute / inch / decimal}
; #@! TF.CreationDate,2022-01-03T10:53:06+01:00
; #@! TF.GenerationSoftware,Kicad,Pcbnew,5.1.12
FMAT,2
INCH
T1C0.0276
T2C0.0315
T3C0.0374
T4C0.0394
T5C0.0472
T6C0.0866
%
G90
G05
T1
X2.23Y-7.49
X2.23Y-7.69
X2.48Y-6.51
X2.68Y-6.51
X3.15Y-7.08
X3.15Y-7.18
X3.15Y-7.38
X3.15Y-7.48
X3.15Y-7.58
T2
X1.2205Y-7.43
X1.28Y-6.53
X1.28Y-6.83
X1.42Y-6.53
X1.42Y-6.83
X1.5205Y-7.43
X1.5554Y-6.53
X1.5554Y-6.83
X1.5613Y-7.01
X1.58Y-7.65
X1.64Y-7.01
X1.6587Y-7.65
X1.826Y-7.6772
X2.126Y-7.6772
X2.2047Y-7.0079
X2.2047Y-7.1079
X2.2047Y-7.2079
X2.2047Y-7.3079
X2.35Y-7.48
X2.5047Y-7.0079
X2.5047Y-7.1079
X2.5047Y-7.2079
X2.5047Y-7.3079
X2.5197Y-7.5984
X2.5469Y-7.48
X2.65Y-7.16
X2.65Y-7.3569
X2.8197Y-7.5984
X2.8346Y-7.2047
X2.8346Y-7.2835
X3.28Y-7.21
X3.28Y-7.4069
T3
X1.32Y-7.01
X1.32Y-7.1084
X1.32Y-7.2069
T4
X2.4409Y-6.7126
X2.4409Y-6.811
X2.71Y-6.8716
X2.71Y-6.97
X3.46Y-7.38
X3.46Y-7.48
X3.46Y-7.58
X3.46Y-7.68
T5
X1.8504Y-7.2047
X1.8504Y-7.4016
X1.9Y-6.65
X1.9Y-6.8469
X3.14Y-6.59
X3.14Y-6.7869
X3.56Y-6.9
X3.56Y-7.0969
T6
X1.2598Y-7.6378
X2.22Y-6.57
X3.6614Y-6.5748
T0
M30
