%TF.GenerationSoftware,KiCad,Pcbnew,6.0.0*%
%TF.CreationDate,2022-02-05T14:24:52+01:00*%
%TF.ProjectId,diy-schematics,6469792d-7363-4686-956d-61746963732e,rev?*%
%TF.SameCoordinates,Original*%
%TF.FileFunction,Copper,L1,Top*%
%TF.FilePolarity,Positive*%
%FSLAX46Y46*%
G04 Gerber Fmt 4.6, Leading zero omitted, Abs format (unit mm)*
G04 Created by KiCad (PCBNEW 6.0.0) date 2022-02-05 14:24:52*
%MOMM*%
%LPD*%
G01*
G04 APERTURE LIST*
G04 Aperture macros list*
%AMRoundRect*
0 Rectangle with rounded corners*
0 $1 Rounding radius*
0 $2 $3 $4 $5 $6 $7 $8 $9 X,Y pos of 4 corners*
0 Add a 4 corners polygon primitive as box body*
4,1,4,$2,$3,$4,$5,$6,$7,$8,$9,$2,$3,0*
0 Add four circle primitives for the rounded corners*
1,1,$1+$1,$2,$3*
1,1,$1+$1,$4,$5*
1,1,$1+$1,$6,$7*
1,1,$1+$1,$8,$9*
0 Add four rect primitives between the rounded corners*
20,1,$1+$1,$2,$3,$4,$5,0*
20,1,$1+$1,$4,$5,$6,$7,0*
20,1,$1+$1,$6,$7,$8,$9,0*
20,1,$1+$1,$8,$9,$2,$3,0*%
G04 Aperture macros list end*
%TA.AperFunction,ComponentPad*%
%ADD10R,1.600000X1.600000*%
%TD*%
%TA.AperFunction,ComponentPad*%
%ADD11C,1.600000*%
%TD*%
%TA.AperFunction,ComponentPad*%
%ADD12O,1.600000X1.600000*%
%TD*%
%TA.AperFunction,ComponentPad*%
%ADD13R,2.400000X2.400000*%
%TD*%
%TA.AperFunction,ComponentPad*%
%ADD14C,2.400000*%
%TD*%
%TA.AperFunction,ComponentPad*%
%ADD15RoundRect,0.250000X0.750000X-0.600000X0.750000X0.600000X-0.750000X0.600000X-0.750000X-0.600000X0*%
%TD*%
%TA.AperFunction,ComponentPad*%
%ADD16O,2.000000X1.700000*%
%TD*%
%TA.AperFunction,SMDPad,CuDef*%
%ADD17R,1.900000X1.800000*%
%TD*%
%TA.AperFunction,SMDPad,CuDef*%
%ADD18R,1.900000X2.300000*%
%TD*%
%TA.AperFunction,SMDPad,CuDef*%
%ADD19R,1.400000X0.400000*%
%TD*%
%TA.AperFunction,ComponentPad*%
%ADD20R,1.700000X1.700000*%
%TD*%
%TA.AperFunction,ComponentPad*%
%ADD21O,1.700000X1.700000*%
%TD*%
%TA.AperFunction,ComponentPad*%
%ADD22RoundRect,0.250000X-0.725000X0.600000X-0.725000X-0.600000X0.725000X-0.600000X0.725000X0.600000X0*%
%TD*%
%TA.AperFunction,ComponentPad*%
%ADD23O,1.950000X1.700000*%
%TD*%
%TA.AperFunction,ComponentPad*%
%ADD24O,1.400000X1.400000*%
%TD*%
%TA.AperFunction,ComponentPad*%
%ADD25C,1.400000*%
%TD*%
%TA.AperFunction,ComponentPad*%
%ADD26R,1.500000X1.500000*%
%TD*%
%TA.AperFunction,ComponentPad*%
%ADD27O,1.500000X1.500000*%
%TD*%
%TA.AperFunction,ComponentPad*%
%ADD28C,4.400000*%
%TD*%
%TA.AperFunction,Conductor*%
%ADD29C,0.250000*%
%TD*%
G04 APERTURE END LIST*
D10*
%TO.P,C1,1*%
%TO.N,Net-(C1-Pad1)*%
X41656000Y-178054000D03*
D11*
%TO.P,C1,2*%
%TO.N,Net-(C1-Pad2)*%
X39656000Y-178054000D03*
%TD*%
D12*
%TO.P,R5,2*%
%TO.N,Earth*%
X39508000Y-173482000D03*
D11*
%TO.P,R5,1*%
%TO.N,Net-(C3-Pad1)*%
X39508000Y-165862000D03*
%TD*%
D13*
%TO.P,C5,1*%
%TO.N,VBUS*%
X79756000Y-167386000D03*
D14*
%TO.P,C5,2*%
%TO.N,Earth*%
X79756000Y-172386000D03*
%TD*%
D11*
%TO.P,C10,1*%
%TO.N,VBUS*%
X83312000Y-183134000D03*
%TO.P,C10,2*%
%TO.N,Earth*%
X83312000Y-188134000D03*
%TD*%
%TO.P,C3,2*%
%TO.N,Earth*%
X67310000Y-186864000D03*
%TO.P,C3,1*%
%TO.N,Net-(C3-Pad1)*%
X67310000Y-181864000D03*
%TD*%
D14*
%TO.P,C4,2*%
%TO.N,Earth*%
X90424000Y-180260000D03*
D13*
%TO.P,C4,1*%
%TO.N,VBUS*%
X90424000Y-175260000D03*
%TD*%
%TO.P,C6,1*%
%TO.N,Net-(C3-Pad1)*%
X48260000Y-168910000D03*
D14*
%TO.P,C6,2*%
%TO.N,Earth*%
X48260000Y-173910000D03*
%TD*%
%TO.P,C7,2*%
%TO.N,Net-(C7-Pad2)*%
X47000000Y-188000000D03*
D13*
%TO.P,C7,1*%
%TO.N,Earth*%
X47000000Y-183000000D03*
%TD*%
D11*
%TO.P,C9,1*%
%TO.N,Net-(C7-Pad2)*%
X59690000Y-189992000D03*
%TO.P,C9,2*%
%TO.N,Earth*%
X64690000Y-189992000D03*
%TD*%
D15*
%TO.P,J2,1,Pin_1*%
%TO.N,Net-(J2-Pad1)*%
X62000000Y-173000000D03*
D16*
%TO.P,J2,2,Pin_2*%
%TO.N,Net-(J2-Pad2)*%
X62000000Y-170500000D03*
%TD*%
D17*
%TO.P,J4,6,Shield*%
%TO.N,Earth*%
X95300000Y-190850000D03*
X95300000Y-193150000D03*
D18*
X95300000Y-188250000D03*
X95300000Y-195750000D03*
D19*
%TO.P,J4,5,GND*%
X92450000Y-190700000D03*
%TO.P,J4,4,ID*%
%TO.N,unconnected-(J4-Pad4)*%
X92450000Y-191350000D03*
%TO.P,J4,3,D+*%
%TO.N,Net-(J4-Pad3)*%
X92450000Y-192000000D03*
%TO.P,J4,2,D-*%
%TO.N,Net-(J4-Pad2)*%
X92450000Y-192650000D03*
%TO.P,J4,1,VBUS*%
%TO.N,VBUS*%
X92450000Y-193300000D03*
%TD*%
D20*
%TO.P,J5,1,Pin_1*%
%TO.N,VBUS*%
X87884000Y-195072000D03*
D21*
%TO.P,J5,2,Pin_2*%
%TO.N,Net-(J4-Pad2)*%
X87884000Y-192532000D03*
%TO.P,J5,3,Pin_3*%
%TO.N,Net-(J4-Pad3)*%
X87884000Y-189992000D03*
%TO.P,J5,4,Pin_4*%
%TO.N,Earth*%
X87884000Y-187452000D03*
%TD*%
D22*
%TO.P,J6,1,Pin_1*%
%TO.N,Net-(C1-Pad1)*%
X33528000Y-178054000D03*
D23*
%TO.P,J6,2,Pin_2*%
%TO.N,Earth*%
X33528000Y-180554000D03*
%TO.P,J6,3,Pin_3*%
%TO.N,Net-(C2-Pad1)*%
X33528000Y-183054000D03*
%TD*%
D12*
%TO.P,R1,2*%
%TO.N,Net-(C3-Pad1)*%
X36068000Y-165862000D03*
D11*
%TO.P,R1,1*%
%TO.N,Net-(C1-Pad1)*%
X36068000Y-173482000D03*
%TD*%
%TO.P,R2,1*%
%TO.N,Net-(C2-Pad1)*%
X31000000Y-188722000D03*
D12*
%TO.P,R2,2*%
%TO.N,Net-(C7-Pad2)*%
X38620000Y-188722000D03*
%TD*%
D11*
%TO.P,R3,1*%
%TO.N,Net-(C1-Pad2)*%
X32512000Y-173482000D03*
D12*
%TO.P,R3,2*%
%TO.N,Earth*%
X32512000Y-165862000D03*
%TD*%
%TO.P,R4,2*%
%TO.N,Earth*%
X46380000Y-195000000D03*
D11*
%TO.P,R4,1*%
%TO.N,Net-(C2-Pad2)*%
X54000000Y-195000000D03*
%TD*%
%TO.P,R6,1*%
%TO.N,Net-(C7-Pad2)*%
X64000000Y-193000000D03*
D12*
%TO.P,R6,2*%
%TO.N,Earth*%
X71620000Y-193000000D03*
%TD*%
D24*
%TO.P,R7,2*%
%TO.N,+15V*%
X68072000Y-165354000D03*
D25*
%TO.P,R7,1*%
%TO.N,Net-(C3-Pad1)*%
X62992000Y-165354000D03*
%TD*%
%TO.P,R8,1*%
%TO.N,Net-(C7-Pad2)*%
X56642000Y-190246000D03*
D24*
%TO.P,R8,2*%
%TO.N,-15V*%
X56642000Y-195326000D03*
%TD*%
D10*
%TO.P,U1,1,RG1*%
%TO.N,Net-(J2-Pad2)*%
X56000000Y-178000000D03*
D12*
%TO.P,U1,5,REF*%
%TO.N,Earth*%
X63620000Y-185620000D03*
%TO.P,U1,2,IN-*%
%TO.N,Net-(C1-Pad2)*%
X56000000Y-180540000D03*
%TO.P,U1,6,OUT*%
%TO.N,Net-(C8-Pad1)*%
X63620000Y-183080000D03*
%TO.P,U1,3,IN+*%
%TO.N,Net-(C2-Pad2)*%
X56000000Y-183080000D03*
%TO.P,U1,7,V+*%
%TO.N,Net-(C3-Pad1)*%
X63620000Y-180540000D03*
%TO.P,U1,4,V-*%
%TO.N,Net-(C7-Pad2)*%
X56000000Y-185620000D03*
%TO.P,U1,8,RG2*%
%TO.N,Net-(J2-Pad1)*%
X63620000Y-178000000D03*
%TD*%
D26*
%TO.P,U2,1,VIN+*%
%TO.N,VBUS*%
X80010000Y-179832000D03*
D27*
%TO.P,U2,2,VIN-*%
%TO.N,Earth*%
X80010000Y-182372000D03*
%TO.P,U2,4,VOUT-*%
%TO.N,-15V*%
X80010000Y-187452000D03*
%TO.P,U2,5,0V*%
%TO.N,Earth*%
X80010000Y-189992000D03*
%TO.P,U2,6,VOUT+*%
%TO.N,+15V*%
X80010000Y-192532000D03*
%TD*%
D11*
%TO.P,C2,2*%
%TO.N,Net-(C2-Pad2)*%
X42132000Y-194310000D03*
D10*
%TO.P,C2,1*%
%TO.N,Net-(C2-Pad1)*%
X40132000Y-194310000D03*
%TD*%
%TO.P,C8,1*%
%TO.N,Net-(C8-Pad1)*%
X72000000Y-185000000D03*
D11*
%TO.P,C8,2*%
%TO.N,Net-(C8-Pad2)*%
X72000000Y-183000000D03*
%TD*%
D15*
%TO.P,J3,1,Pin_1*%
%TO.N,Earth*%
X68834000Y-177272000D03*
D16*
%TO.P,J3,2,Pin_2*%
%TO.N,Net-(C8-Pad2)*%
X68834000Y-174772000D03*
%TD*%
D28*
%TO.P,H1,1,1*%
%TO.N,Earth*%
X56388000Y-166878000D03*
%TD*%
%TO.P,H2,1,1*%
%TO.N,Earth*%
X93000000Y-167000000D03*
%TD*%
%TO.P,H3,1,1*%
%TO.N,Earth*%
X32000000Y-194000000D03*
%TD*%
D29*
%TO.N,Net-(C8-Pad2)*%
X68834000Y-174772000D02*
X69870000Y-174772000D01*
X69870000Y-174772000D02*
X72000000Y-176902000D01*
X72000000Y-176902000D02*
X72000000Y-183000000D01*
%TO.N,Earth*%
X48170000Y-174000000D02*
X48260000Y-173910000D01*
X67000000Y-187000000D02*
X68000000Y-187000000D01*
X95300000Y-190850000D02*
X95074999Y-190624999D01*
X67682000Y-187000000D02*
X68000000Y-187000000D01*
X67174000Y-187000000D02*
X67310000Y-186864000D01*
X67446000Y-187000000D02*
X67310000Y-186864000D01*
X39508000Y-173482000D02*
X41540000Y-175514000D01*
X95300000Y-190850000D02*
X94330000Y-190850000D01*
X94180000Y-190700000D02*
X92450000Y-190700000D01*
X94330000Y-190850000D02*
X94180000Y-190700000D01*
%TO.N,Net-(C1-Pad1)*%
X41656000Y-177938630D02*
X41656000Y-178054000D01*
X37199370Y-173482000D02*
X41656000Y-177938630D01*
X36068000Y-173482000D02*
X37199370Y-173482000D01*
X40330999Y-179379001D02*
X41656000Y-178054000D01*
X35828001Y-179379001D02*
X40330999Y-179379001D01*
X34503000Y-178054000D02*
X35828001Y-179379001D01*
X33528000Y-178054000D02*
X34503000Y-178054000D01*
%TO.N,Net-(C1-Pad2)*%
X37084000Y-178054000D02*
X39656000Y-178054000D01*
X32512000Y-173482000D02*
X37084000Y-178054000D01*
X33837001Y-172156999D02*
X32512000Y-173482000D01*
X40144001Y-172156999D02*
X33837001Y-172156999D01*
X48527002Y-180540000D02*
X40144001Y-172156999D01*
X56000000Y-180540000D02*
X48527002Y-180540000D01*
%TO.N,Net-(C2-Pad2)*%
X42767001Y-193674999D02*
X42132000Y-194310000D01*
X52674999Y-193674999D02*
X42767001Y-193674999D01*
X54000000Y-195000000D02*
X52674999Y-193674999D01*
X40655997Y-184725001D02*
X54354999Y-184725001D01*
X54354999Y-184725001D02*
X56000000Y-183080000D01*
X37294999Y-188085999D02*
X40655997Y-184725001D01*
X37294999Y-189358001D02*
X37294999Y-188085999D01*
X38658998Y-190722000D02*
X37294999Y-189358001D01*
X39675370Y-190722000D02*
X38658998Y-190722000D01*
X42132000Y-193178630D02*
X39675370Y-190722000D01*
X42132000Y-194310000D02*
X42132000Y-193178630D01*
%TO.N,Net-(C2-Pad1)*%
X33528000Y-186194000D02*
X31000000Y-188722000D01*
X33528000Y-183054000D02*
X33528000Y-186194000D01*
X36588000Y-194310000D02*
X31000000Y-188722000D01*
X40132000Y-194310000D02*
X36588000Y-194310000D01*
%TO.N,Net-(C7-Pad2)*%
X59682000Y-190000000D02*
X59690000Y-189992000D01*
X46278000Y-188722000D02*
X47000000Y-188000000D01*
X38620000Y-188722000D02*
X46278000Y-188722000D01*
X53620000Y-188000000D02*
X56000000Y-185620000D01*
X54396000Y-188000000D02*
X56642000Y-190246000D01*
X52872000Y-188000000D02*
X54396000Y-188000000D01*
X47000000Y-188000000D02*
X52872000Y-188000000D01*
X52872000Y-188000000D02*
X53620000Y-188000000D01*
X59436000Y-190246000D02*
X59690000Y-189992000D01*
X56642000Y-190246000D02*
X59436000Y-190246000D01*
X62698000Y-193000000D02*
X59690000Y-189992000D01*
X64000000Y-193000000D02*
X62698000Y-193000000D01*
%TO.N,Net-(C8-Pad1)*%
X63620000Y-183080000D02*
X64970000Y-183080000D01*
X66890000Y-185000000D02*
X72000000Y-185000000D01*
X64970000Y-183080000D02*
X66890000Y-185000000D01*
%TO.N,Net-(J2-Pad2)*%
X56000000Y-176500000D02*
X62000000Y-170500000D01*
X56000000Y-178000000D02*
X56000000Y-176500000D01*
%TO.N,Net-(J2-Pad1)*%
X63620000Y-174620000D02*
X62000000Y-173000000D01*
X63620000Y-178000000D02*
X63620000Y-174620000D01*
%TO.N,Net-(C3-Pad1)*%
X48170000Y-169000000D02*
X48260000Y-168910000D01*
X65986000Y-180540000D02*
X67310000Y-181864000D01*
X63620000Y-180540000D02*
X65986000Y-180540000D01*
X36068000Y-165862000D02*
X39508000Y-165862000D01*
X45212000Y-165862000D02*
X48260000Y-168910000D01*
X39508000Y-165862000D02*
X45212000Y-165862000D01*
X63620000Y-180540000D02*
X64945001Y-179214999D01*
X49276000Y-169926000D02*
X48260000Y-168910000D01*
X63620000Y-180540000D02*
X65024000Y-179136000D01*
X65024000Y-167386000D02*
X62992000Y-165354000D01*
X65024000Y-179136000D02*
X65024000Y-167386000D01*
X58166000Y-170180000D02*
X62992000Y-165354000D01*
X49530000Y-170180000D02*
X58166000Y-170180000D01*
X48260000Y-168910000D02*
X49530000Y-170180000D01*
%TO.N,VBUS*%
X82550000Y-167386000D02*
X90424000Y-175260000D01*
X79756000Y-167386000D02*
X82550000Y-167386000D01*
X90424000Y-176022000D02*
X83312000Y-183134000D01*
X90424000Y-175260000D02*
X90424000Y-176022000D01*
X80010000Y-179832000D02*
X83312000Y-183134000D01*
X86508999Y-193696999D02*
X87884000Y-195072000D01*
X86508999Y-186330999D02*
X86508999Y-193696999D01*
X83312000Y-183134000D02*
X86508999Y-186330999D01*
X89656000Y-193300000D02*
X87884000Y-195072000D01*
X92450000Y-193300000D02*
X89656000Y-193300000D01*
%TO.N,Net-(J4-Pad3)*%
X89892000Y-192000000D02*
X87884000Y-189992000D01*
X92450000Y-192000000D02*
X89892000Y-192000000D01*
%TO.N,Net-(J4-Pad2)*%
X88048000Y-192206000D02*
X88113001Y-192271001D01*
X88238000Y-192396000D02*
X88048000Y-192206000D01*
X88002000Y-192650000D02*
X87884000Y-192532000D01*
X92450000Y-192650000D02*
X88002000Y-192650000D01*
%TO.N,+15V*%
X76252999Y-173534999D02*
X68072000Y-165354000D01*
X76252999Y-188774999D02*
X76252999Y-173534999D01*
X80010000Y-192532000D02*
X76252999Y-188774999D01*
%TO.N,-15V*%
X79103002Y-195326000D02*
X56642000Y-195326000D01*
X81285001Y-193144001D02*
X79103002Y-195326000D01*
X81285001Y-188727001D02*
X81285001Y-193144001D01*
X80010000Y-187452000D02*
X81285001Y-188727001D01*
%TD*%
%TA.AperFunction,Conductor*%
%TO.N,Earth*%
G36*
X96461613Y-163596002D02*
G01*
X96508106Y-163649658D01*
X96519492Y-163702101D01*
X96501240Y-186473011D01*
X96501239Y-186473925D01*
X96481182Y-186542030D01*
X96427489Y-186588480D01*
X96360279Y-186598088D01*
X96360207Y-186598748D01*
X96357624Y-186598467D01*
X96357207Y-186598527D01*
X96355932Y-186598284D01*
X96301486Y-186592369D01*
X96294672Y-186592000D01*
X95572115Y-186592000D01*
X95556876Y-186596475D01*
X95555671Y-186597865D01*
X95554000Y-186605548D01*
X95554000Y-195878000D01*
X95533998Y-195946121D01*
X95480342Y-195992614D01*
X95428000Y-196004000D01*
X93860116Y-196004000D01*
X93844877Y-196008475D01*
X93843672Y-196009865D01*
X93842001Y-196017548D01*
X93842001Y-196944669D01*
X93842371Y-196951490D01*
X93847895Y-197002352D01*
X93851521Y-197017604D01*
X93896676Y-197138054D01*
X93905214Y-197153649D01*
X93981715Y-197255724D01*
X94000626Y-197274635D01*
X93998665Y-197276596D01*
X94032639Y-197322030D01*
X94037666Y-197392849D01*
X94003608Y-197455143D01*
X93941278Y-197489135D01*
X93914560Y-197492000D01*
X28634000Y-197492000D01*
X28565879Y-197471998D01*
X28519386Y-197418342D01*
X28508000Y-197366000D01*
X28508000Y-196086423D01*
X30278703Y-196086423D01*
X30286227Y-196096854D01*
X30425483Y-196209020D01*
X30431657Y-196213408D01*
X30702271Y-196382178D01*
X30708931Y-196385794D01*
X30997852Y-196520827D01*
X31004905Y-196523620D01*
X31307970Y-196622970D01*
X31315282Y-196624888D01*
X31628092Y-196687109D01*
X31635590Y-196688137D01*
X31953610Y-196712328D01*
X31961173Y-196712446D01*
X32279785Y-196698257D01*
X32287326Y-196697465D01*
X32601924Y-196645101D01*
X32609302Y-196643411D01*
X32915355Y-196553625D01*
X32922450Y-196551071D01*
X33215496Y-196425169D01*
X33222263Y-196421765D01*
X33498042Y-196261580D01*
X33504349Y-196257390D01*
X33714305Y-196098889D01*
X33722761Y-196087496D01*
X33716045Y-196075256D01*
X32012810Y-194372020D01*
X31998869Y-194364408D01*
X31997034Y-194364539D01*
X31990420Y-194368790D01*
X30285818Y-196073393D01*
X30278703Y-196086423D01*
X28508000Y-196086423D01*
X28508000Y-193975383D01*
X29287388Y-193975383D01*
X29303245Y-194293914D01*
X29304076Y-194301443D01*
X29358085Y-194615759D01*
X29359818Y-194623146D01*
X29451196Y-194928695D01*
X29453799Y-194935808D01*
X29581227Y-195228173D01*
X29584669Y-195234929D01*
X29746296Y-195509865D01*
X29750519Y-195516150D01*
X29901463Y-195713934D01*
X29912989Y-195722396D01*
X29925054Y-195715735D01*
X31627980Y-194012810D01*
X31635592Y-193998869D01*
X31635461Y-193997034D01*
X31631210Y-193990420D01*
X29926445Y-192285656D01*
X29913510Y-192278592D01*
X29902949Y-192286252D01*
X29782766Y-192437072D01*
X29778410Y-192443270D01*
X29611059Y-192714764D01*
X29607479Y-192721440D01*
X29473956Y-193011074D01*
X29471206Y-193018125D01*
X29373444Y-193321708D01*
X29371561Y-193329041D01*
X29310979Y-193642170D01*
X29309992Y-193649670D01*
X29287467Y-193967802D01*
X29287388Y-193975383D01*
X28508000Y-193975383D01*
X28508000Y-188722000D01*
X29686502Y-188722000D01*
X29706457Y-188950087D01*
X29707880Y-188955398D01*
X29707881Y-188955402D01*
X29763941Y-189164617D01*
X29765716Y-189171243D01*
X29768039Y-189176224D01*
X29768039Y-189176225D01*
X29860151Y-189373762D01*
X29860154Y-189373767D01*
X29862477Y-189378749D01*
X29923728Y-189466224D01*
X29985969Y-189555113D01*
X29993802Y-189566300D01*
X30155700Y-189728198D01*
X30160208Y-189731355D01*
X30160211Y-189731357D01*
X30199244Y-189758688D01*
X30343251Y-189859523D01*
X30348233Y-189861846D01*
X30348238Y-189861849D01*
X30545775Y-189953961D01*
X30550757Y-189956284D01*
X30556065Y-189957706D01*
X30556067Y-189957707D01*
X30766598Y-190014119D01*
X30766600Y-190014119D01*
X30771913Y-190015543D01*
X31000000Y-190035498D01*
X31228087Y-190015543D01*
X31233398Y-190014120D01*
X31233409Y-190014118D01*
X31291541Y-189998541D01*
X31362517Y-190000230D01*
X31413248Y-190031152D01*
X32483452Y-191101356D01*
X32517478Y-191163668D01*
X32512413Y-191234483D01*
X32469866Y-191291319D01*
X32403346Y-191316130D01*
X32371069Y-191314280D01*
X32343756Y-191309143D01*
X32336237Y-191308194D01*
X32017989Y-191287335D01*
X32010424Y-191287295D01*
X31691964Y-191304821D01*
X31684450Y-191305690D01*
X31370405Y-191361348D01*
X31363044Y-191363115D01*
X31057980Y-191456092D01*
X31050860Y-191458740D01*
X30759182Y-191587690D01*
X30752445Y-191591167D01*
X30478355Y-191754233D01*
X30472091Y-191758490D01*
X30286385Y-191901762D01*
X30277917Y-191913423D01*
X30284520Y-191925309D01*
X32000000Y-193640790D01*
X34073287Y-195714076D01*
X34086407Y-195721240D01*
X34096710Y-195713850D01*
X34200751Y-195586055D01*
X34205164Y-195579914D01*
X34375349Y-195310187D01*
X34379005Y-195303536D01*
X34515544Y-195015335D01*
X34518375Y-195008295D01*
X34619306Y-194705767D01*
X34621270Y-194698433D01*
X34685122Y-194385989D01*
X34686194Y-194378465D01*
X34712173Y-194059051D01*
X34712378Y-194054576D01*
X34712927Y-194002221D01*
X34712817Y-193997789D01*
X34693529Y-193677853D01*
X34692620Y-193670347D01*
X34684790Y-193627470D01*
X34692229Y-193556864D01*
X34736659Y-193501489D01*
X34803974Y-193478924D01*
X34872803Y-193496335D01*
X34897835Y-193515739D01*
X36084343Y-194702247D01*
X36091887Y-194710537D01*
X36096000Y-194717018D01*
X36101777Y-194722443D01*
X36145667Y-194763658D01*
X36148509Y-194766413D01*
X36168230Y-194786134D01*
X36171425Y-194788612D01*
X36180447Y-194796318D01*
X36212679Y-194826586D01*
X36219628Y-194830406D01*
X36230432Y-194836346D01*
X36246956Y-194847199D01*
X36262959Y-194859613D01*
X36303543Y-194877176D01*
X36314173Y-194882383D01*
X36352940Y-194903695D01*
X36360617Y-194905666D01*
X36360622Y-194905668D01*
X36372558Y-194908732D01*
X36391266Y-194915137D01*
X36409855Y-194923181D01*
X36417680Y-194924420D01*
X36417682Y-194924421D01*
X36453519Y-194930097D01*
X36465140Y-194932504D01*
X36500289Y-194941528D01*
X36507970Y-194943500D01*
X36528231Y-194943500D01*
X36547940Y-194945051D01*
X36567943Y-194948219D01*
X36575835Y-194947473D01*
X36581062Y-194946979D01*
X36611954Y-194944059D01*
X36623811Y-194943500D01*
X38697500Y-194943500D01*
X38765621Y-194963502D01*
X38812114Y-195017158D01*
X38823500Y-195069500D01*
X38823500Y-195158134D01*
X38830255Y-195220316D01*
X38881385Y-195356705D01*
X38968739Y-195473261D01*
X39085295Y-195560615D01*
X39221684Y-195611745D01*
X39283866Y-195618500D01*
X40980134Y-195618500D01*
X41042316Y-195611745D01*
X41178705Y-195560615D01*
X41295261Y-195473261D01*
X41300642Y-195466081D01*
X41306992Y-195459731D01*
X41309232Y-195461971D01*
X41353565Y-195428829D01*
X41424384Y-195423810D01*
X41465790Y-195441949D01*
X41465981Y-195441617D01*
X41468964Y-195443339D01*
X41469797Y-195443704D01*
X41475251Y-195447523D01*
X41480233Y-195449846D01*
X41480238Y-195449849D01*
X41622423Y-195516150D01*
X41682757Y-195544284D01*
X41688065Y-195545706D01*
X41688067Y-195545707D01*
X41898598Y-195602119D01*
X41898600Y-195602119D01*
X41903913Y-195603543D01*
X42132000Y-195623498D01*
X42360087Y-195603543D01*
X42365400Y-195602119D01*
X42365402Y-195602119D01*
X42575933Y-195545707D01*
X42575935Y-195545706D01*
X42581243Y-195544284D01*
X42641577Y-195516150D01*
X42783762Y-195449849D01*
X42783767Y-195449846D01*
X42788749Y-195447523D01*
X42930458Y-195348297D01*
X42971789Y-195319357D01*
X42971792Y-195319355D01*
X42976300Y-195316198D01*
X43025976Y-195266522D01*
X45097273Y-195266522D01*
X45144764Y-195443761D01*
X45148510Y-195454053D01*
X45240586Y-195651511D01*
X45246069Y-195661007D01*
X45371028Y-195839467D01*
X45378084Y-195847875D01*
X45532125Y-196001916D01*
X45540533Y-196008972D01*
X45718993Y-196133931D01*
X45728489Y-196139414D01*
X45925947Y-196231490D01*
X45936239Y-196235236D01*
X46108503Y-196281394D01*
X46122599Y-196281058D01*
X46126000Y-196273116D01*
X46126000Y-196267967D01*
X46634000Y-196267967D01*
X46637973Y-196281498D01*
X46646522Y-196282727D01*
X46823761Y-196235236D01*
X46834053Y-196231490D01*
X47031511Y-196139414D01*
X47041007Y-196133931D01*
X47219467Y-196008972D01*
X47227875Y-196001916D01*
X47381916Y-195847875D01*
X47388972Y-195839467D01*
X47513931Y-195661007D01*
X47519414Y-195651511D01*
X47611490Y-195454053D01*
X47615236Y-195443761D01*
X47661394Y-195271497D01*
X47661058Y-195257401D01*
X47653116Y-195254000D01*
X46652115Y-195254000D01*
X46636876Y-195258475D01*
X46635671Y-195259865D01*
X46634000Y-195267548D01*
X46634000Y-196267967D01*
X46126000Y-196267967D01*
X46126000Y-195272115D01*
X46121525Y-195256876D01*
X46120135Y-195255671D01*
X46112452Y-195254000D01*
X45112033Y-195254000D01*
X45098502Y-195257973D01*
X45097273Y-195266522D01*
X43025976Y-195266522D01*
X43138198Y-195154300D01*
X43269523Y-194966749D01*
X43271846Y-194961767D01*
X43271849Y-194961762D01*
X43363961Y-194764225D01*
X43363961Y-194764224D01*
X43366284Y-194759243D01*
X43369833Y-194746000D01*
X43424119Y-194543402D01*
X43424119Y-194543400D01*
X43425543Y-194538087D01*
X43426023Y-194532601D01*
X43426024Y-194532595D01*
X43435568Y-194423517D01*
X43461431Y-194357399D01*
X43518935Y-194315759D01*
X43561088Y-194308499D01*
X45061453Y-194308499D01*
X45129574Y-194328501D01*
X45176067Y-194382157D01*
X45186171Y-194452431D01*
X45175648Y-194487748D01*
X45148512Y-194545942D01*
X45144764Y-194556239D01*
X45098606Y-194728503D01*
X45098942Y-194742599D01*
X45106884Y-194746000D01*
X47647967Y-194746000D01*
X47661498Y-194742027D01*
X47662727Y-194733478D01*
X47615236Y-194556239D01*
X47611488Y-194545942D01*
X47584352Y-194487748D01*
X47573691Y-194417557D01*
X47602671Y-194352744D01*
X47662091Y-194313888D01*
X47698547Y-194308499D01*
X52360405Y-194308499D01*
X52428526Y-194328501D01*
X52449500Y-194345404D01*
X52690848Y-194586752D01*
X52724874Y-194649064D01*
X52723459Y-194708459D01*
X52707882Y-194766591D01*
X52707881Y-194766598D01*
X52706457Y-194771913D01*
X52686502Y-195000000D01*
X52706457Y-195228087D01*
X52707881Y-195233400D01*
X52707881Y-195233402D01*
X52763762Y-195441949D01*
X52765716Y-195449243D01*
X52768039Y-195454224D01*
X52768039Y-195454225D01*
X52860151Y-195651762D01*
X52860154Y-195651767D01*
X52862477Y-195656749D01*
X52902618Y-195714076D01*
X52984169Y-195830542D01*
X52993802Y-195844300D01*
X53155700Y-196006198D01*
X53160208Y-196009355D01*
X53160211Y-196009357D01*
X53193000Y-196032316D01*
X53343251Y-196137523D01*
X53348233Y-196139846D01*
X53348238Y-196139849D01*
X53505988Y-196213408D01*
X53550757Y-196234284D01*
X53556065Y-196235706D01*
X53556067Y-196235707D01*
X53766598Y-196292119D01*
X53766600Y-196292119D01*
X53771913Y-196293543D01*
X54000000Y-196313498D01*
X54228087Y-196293543D01*
X54233400Y-196292119D01*
X54233402Y-196292119D01*
X54443933Y-196235707D01*
X54443935Y-196235706D01*
X54449243Y-196234284D01*
X54494012Y-196213408D01*
X54651762Y-196139849D01*
X54651767Y-196139846D01*
X54656749Y-196137523D01*
X54807000Y-196032316D01*
X54839789Y-196009357D01*
X54839792Y-196009355D01*
X54844300Y-196006198D01*
X55006198Y-195844300D01*
X55015832Y-195830542D01*
X55097382Y-195714076D01*
X55137523Y-195656749D01*
X55209144Y-195503156D01*
X55256061Y-195449871D01*
X55324338Y-195430410D01*
X55392298Y-195450952D01*
X55438364Y-195504974D01*
X55447009Y-195533168D01*
X55447314Y-195536655D01*
X55448735Y-195541960D01*
X55448736Y-195541963D01*
X55478157Y-195651762D01*
X55502044Y-195740910D01*
X55504366Y-195745891D01*
X55504367Y-195745892D01*
X55588358Y-195926010D01*
X55591411Y-195932558D01*
X55712699Y-196105776D01*
X55862224Y-196255301D01*
X56035442Y-196376589D01*
X56040420Y-196378910D01*
X56040423Y-196378912D01*
X56139622Y-196425169D01*
X56227090Y-196465956D01*
X56232398Y-196467378D01*
X56232400Y-196467379D01*
X56426030Y-196519262D01*
X56426032Y-196519262D01*
X56431345Y-196520686D01*
X56642000Y-196539116D01*
X56852655Y-196520686D01*
X56857968Y-196519262D01*
X56857970Y-196519262D01*
X57051600Y-196467379D01*
X57051602Y-196467378D01*
X57056910Y-196465956D01*
X57144378Y-196425169D01*
X57243577Y-196378912D01*
X57243580Y-196378910D01*
X57248558Y-196376589D01*
X57421776Y-196255301D01*
X57571301Y-196105776D01*
X57636102Y-196013230D01*
X57691559Y-195968901D01*
X57739315Y-195959500D01*
X79024235Y-195959500D01*
X79035418Y-195960027D01*
X79042911Y-195961702D01*
X79050837Y-195961453D01*
X79050838Y-195961453D01*
X79110988Y-195959562D01*
X79114947Y-195959500D01*
X79142858Y-195959500D01*
X79146793Y-195959003D01*
X79146858Y-195958995D01*
X79158695Y-195958062D01*
X79190953Y-195957048D01*
X79194972Y-195956922D01*
X79202891Y-195956673D01*
X79222345Y-195951021D01*
X79241702Y-195947013D01*
X79253932Y-195945468D01*
X79253933Y-195945468D01*
X79261799Y-195944474D01*
X79269170Y-195941555D01*
X79269172Y-195941555D01*
X79302914Y-195928196D01*
X79314144Y-195924351D01*
X79348985Y-195914229D01*
X79348986Y-195914229D01*
X79356595Y-195912018D01*
X79363414Y-195907985D01*
X79363419Y-195907983D01*
X79374030Y-195901707D01*
X79391778Y-195893012D01*
X79410619Y-195885552D01*
X79446389Y-195859564D01*
X79456309Y-195853048D01*
X79487537Y-195834580D01*
X79487540Y-195834578D01*
X79494364Y-195830542D01*
X79508685Y-195816221D01*
X79523719Y-195803380D01*
X79533696Y-195796131D01*
X79540109Y-195791472D01*
X79568300Y-195757395D01*
X79576290Y-195748616D01*
X81677248Y-193647658D01*
X81685538Y-193640114D01*
X81692019Y-193636001D01*
X81704323Y-193622899D01*
X81738659Y-193586334D01*
X81741414Y-193583492D01*
X81761136Y-193563770D01*
X81763613Y-193560577D01*
X81771318Y-193551556D01*
X81796160Y-193525101D01*
X81801587Y-193519322D01*
X81806075Y-193511158D01*
X81811347Y-193501569D01*
X81822203Y-193485042D01*
X81829758Y-193475303D01*
X81829759Y-193475301D01*
X81834615Y-193469041D01*
X81852175Y-193428461D01*
X81857392Y-193417813D01*
X81874876Y-193386010D01*
X81874877Y-193386008D01*
X81878696Y-193379061D01*
X81883734Y-193359438D01*
X81890138Y-193340735D01*
X81895034Y-193329421D01*
X81895034Y-193329420D01*
X81898182Y-193322146D01*
X81899421Y-193314323D01*
X81899424Y-193314313D01*
X81905100Y-193278477D01*
X81907506Y-193266857D01*
X81916529Y-193231712D01*
X81916529Y-193231711D01*
X81918501Y-193224031D01*
X81918501Y-193203777D01*
X81920052Y-193184066D01*
X81921981Y-193171887D01*
X81923221Y-193164058D01*
X81919060Y-193120039D01*
X81918501Y-193108182D01*
X81918501Y-189220062D01*
X82590493Y-189220062D01*
X82599789Y-189232077D01*
X82650994Y-189267931D01*
X82660489Y-189273414D01*
X82857947Y-189365490D01*
X82868239Y-189369236D01*
X83078688Y-189425625D01*
X83089481Y-189427528D01*
X83306525Y-189446517D01*
X83317475Y-189446517D01*
X83534519Y-189427528D01*
X83545312Y-189425625D01*
X83755761Y-189369236D01*
X83766053Y-189365490D01*
X83963511Y-189273414D01*
X83973006Y-189267931D01*
X84025048Y-189231491D01*
X84033424Y-189221012D01*
X84026356Y-189207566D01*
X83324812Y-188506022D01*
X83310868Y-188498408D01*
X83309035Y-188498539D01*
X83302420Y-188502790D01*
X82596923Y-189208287D01*
X82590493Y-189220062D01*
X81918501Y-189220062D01*
X81918501Y-188808973D01*
X81938503Y-188740852D01*
X81992159Y-188694359D01*
X82062433Y-188684255D01*
X82127013Y-188713749D01*
X82158696Y-188755723D01*
X82172586Y-188785511D01*
X82178069Y-188795006D01*
X82214509Y-188847048D01*
X82224988Y-188855424D01*
X82238434Y-188848356D01*
X82939978Y-188146812D01*
X82946356Y-188135132D01*
X83676408Y-188135132D01*
X83676539Y-188136965D01*
X83680790Y-188143580D01*
X84386287Y-188849077D01*
X84398062Y-188855507D01*
X84410077Y-188846211D01*
X84445931Y-188795006D01*
X84451414Y-188785511D01*
X84543490Y-188588053D01*
X84547236Y-188577761D01*
X84603625Y-188367312D01*
X84605528Y-188356519D01*
X84624517Y-188139475D01*
X84624517Y-188128525D01*
X84605528Y-187911481D01*
X84603625Y-187900688D01*
X84547236Y-187690239D01*
X84543490Y-187679947D01*
X84451414Y-187482489D01*
X84445931Y-187472994D01*
X84409491Y-187420952D01*
X84399012Y-187412576D01*
X84385566Y-187419644D01*
X83684022Y-188121188D01*
X83676408Y-188135132D01*
X82946356Y-188135132D01*
X82947592Y-188132868D01*
X82947461Y-188131035D01*
X82943210Y-188124420D01*
X82237713Y-187418923D01*
X82225938Y-187412493D01*
X82213923Y-187421789D01*
X82178069Y-187472994D01*
X82172586Y-187482489D01*
X82080510Y-187679947D01*
X82076764Y-187690239D01*
X82020375Y-187900688D01*
X82018472Y-187911481D01*
X81999483Y-188128525D01*
X81999483Y-188139474D01*
X82008364Y-188240982D01*
X81994375Y-188310587D01*
X81944976Y-188361579D01*
X81875850Y-188377770D01*
X81808944Y-188354018D01*
X81789741Y-188335441D01*
X81789543Y-188335639D01*
X81775222Y-188321318D01*
X81762381Y-188306284D01*
X81755132Y-188296307D01*
X81750473Y-188289894D01*
X81744369Y-188284844D01*
X81744364Y-188284839D01*
X81716403Y-188261708D01*
X81707622Y-188253718D01*
X81278327Y-187824422D01*
X81244302Y-187762110D01*
X81245716Y-187702715D01*
X81245777Y-187702490D01*
X81254115Y-187671371D01*
X81273307Y-187452000D01*
X81254115Y-187232629D01*
X81204372Y-187046988D01*
X82590576Y-187046988D01*
X82597644Y-187060434D01*
X83299188Y-187761978D01*
X83313132Y-187769592D01*
X83314965Y-187769461D01*
X83321580Y-187765210D01*
X84027077Y-187059713D01*
X84033507Y-187047938D01*
X84024211Y-187035923D01*
X83973006Y-187000069D01*
X83963511Y-186994586D01*
X83766053Y-186902510D01*
X83755761Y-186898764D01*
X83545312Y-186842375D01*
X83534519Y-186840472D01*
X83317475Y-186821483D01*
X83306525Y-186821483D01*
X83089481Y-186840472D01*
X83078688Y-186842375D01*
X82868239Y-186898764D01*
X82857947Y-186902510D01*
X82660489Y-186994586D01*
X82650994Y-187000069D01*
X82598952Y-187036509D01*
X82590576Y-187046988D01*
X81204372Y-187046988D01*
X81197120Y-187019924D01*
X81126965Y-186869475D01*
X81106382Y-186825334D01*
X81106379Y-186825329D01*
X81104056Y-186820347D01*
X81099225Y-186813447D01*
X80980908Y-186644473D01*
X80980906Y-186644470D01*
X80977749Y-186639962D01*
X80822038Y-186484251D01*
X80793546Y-186464300D01*
X80716056Y-186410041D01*
X80641654Y-186357944D01*
X80442076Y-186264880D01*
X80229371Y-186207885D01*
X80010000Y-186188693D01*
X79790629Y-186207885D01*
X79577924Y-186264880D01*
X79498867Y-186301745D01*
X79383334Y-186355618D01*
X79383329Y-186355621D01*
X79378347Y-186357944D01*
X79373840Y-186361100D01*
X79373838Y-186361101D01*
X79202473Y-186481092D01*
X79202470Y-186481094D01*
X79197962Y-186484251D01*
X79042251Y-186639962D01*
X79039094Y-186644470D01*
X79039092Y-186644473D01*
X78920775Y-186813447D01*
X78915944Y-186820347D01*
X78913621Y-186825329D01*
X78913618Y-186825334D01*
X78893035Y-186869475D01*
X78822880Y-187019924D01*
X78765885Y-187232629D01*
X78746693Y-187452000D01*
X78765885Y-187671371D01*
X78822880Y-187884076D01*
X78860356Y-187964443D01*
X78913618Y-188078666D01*
X78913621Y-188078671D01*
X78915944Y-188083653D01*
X78919100Y-188088160D01*
X78919101Y-188088162D01*
X79035025Y-188253718D01*
X79042251Y-188264038D01*
X79197962Y-188419749D01*
X79202471Y-188422906D01*
X79202473Y-188422908D01*
X79256023Y-188460404D01*
X79378346Y-188546056D01*
X79383328Y-188548379D01*
X79383333Y-188548382D01*
X79511359Y-188608081D01*
X79564644Y-188654998D01*
X79584105Y-188723276D01*
X79563563Y-188791236D01*
X79511359Y-188836471D01*
X79383579Y-188896056D01*
X79374093Y-188901534D01*
X79202797Y-189021476D01*
X79194390Y-189028530D01*
X79046530Y-189176390D01*
X79039476Y-189184797D01*
X78919534Y-189356093D01*
X78914056Y-189365579D01*
X78825674Y-189555113D01*
X78821928Y-189565405D01*
X78780370Y-189720503D01*
X78780706Y-189734599D01*
X78788648Y-189738000D01*
X80138000Y-189738000D01*
X80206121Y-189758002D01*
X80252614Y-189811658D01*
X80264000Y-189864000D01*
X80264000Y-190120000D01*
X80243998Y-190188121D01*
X80190342Y-190234614D01*
X80138000Y-190246000D01*
X78793797Y-190246000D01*
X78753577Y-190257810D01*
X78735880Y-190269183D01*
X78664884Y-190269183D01*
X78611287Y-190237382D01*
X76923404Y-188549499D01*
X76889378Y-188487187D01*
X76886499Y-188460404D01*
X76886499Y-182638522D01*
X78779037Y-182638522D01*
X78821928Y-182798595D01*
X78825674Y-182808887D01*
X78914056Y-182998421D01*
X78919534Y-183007907D01*
X79039476Y-183179203D01*
X79046530Y-183187610D01*
X79194388Y-183335468D01*
X79202796Y-183342524D01*
X79374088Y-183462464D01*
X79383584Y-183467947D01*
X79573113Y-183556326D01*
X79583405Y-183560072D01*
X79738503Y-183601630D01*
X79752599Y-183601294D01*
X79756000Y-183593352D01*
X79756000Y-183588203D01*
X80264000Y-183588203D01*
X80267973Y-183601734D01*
X80276522Y-183602963D01*
X80436595Y-183560072D01*
X80446887Y-183556326D01*
X80636416Y-183467947D01*
X80645912Y-183462464D01*
X80817204Y-183342524D01*
X80825612Y-183335468D01*
X80973470Y-183187610D01*
X80980524Y-183179203D01*
X81100466Y-183007907D01*
X81105944Y-182998421D01*
X81194326Y-182808887D01*
X81198072Y-182798595D01*
X81239630Y-182643497D01*
X81239294Y-182629401D01*
X81231352Y-182626000D01*
X80282115Y-182626000D01*
X80266876Y-182630475D01*
X80265671Y-182631865D01*
X80264000Y-182639548D01*
X80264000Y-183588203D01*
X79756000Y-183588203D01*
X79756000Y-182644115D01*
X79751525Y-182628876D01*
X79750135Y-182627671D01*
X79742452Y-182626000D01*
X78793797Y-182626000D01*
X78780266Y-182629973D01*
X78779037Y-182638522D01*
X76886499Y-182638522D01*
X76886499Y-173759359D01*
X78747386Y-173759359D01*
X78756099Y-173770879D01*
X78844586Y-173835760D01*
X78852505Y-173840708D01*
X79068877Y-173954547D01*
X79077451Y-173958275D01*
X79308282Y-174038885D01*
X79317291Y-174041299D01*
X79557518Y-174086908D01*
X79566775Y-174087962D01*
X79811107Y-174097563D01*
X79820420Y-174097237D01*
X80063478Y-174070618D01*
X80072655Y-174068917D01*
X80309107Y-174006665D01*
X80317926Y-174003628D01*
X80542584Y-173907107D01*
X80550856Y-173902800D01*
X80758777Y-173774135D01*
X80760620Y-173772796D01*
X80768038Y-173761541D01*
X80761974Y-173751184D01*
X79768812Y-172758022D01*
X79754868Y-172750408D01*
X79753035Y-172750539D01*
X79746420Y-172754790D01*
X78754044Y-173747166D01*
X78747386Y-173759359D01*
X76886499Y-173759359D01*
X76886499Y-173613767D01*
X76887026Y-173602584D01*
X76888701Y-173595091D01*
X76887631Y-173561029D01*
X76886561Y-173527001D01*
X76886499Y-173523043D01*
X76886499Y-173495143D01*
X76885995Y-173491152D01*
X76885062Y-173479310D01*
X76884975Y-173476525D01*
X76883673Y-173435110D01*
X76881461Y-173427496D01*
X76881460Y-173427491D01*
X76878022Y-173415658D01*
X76874011Y-173396294D01*
X76872466Y-173384063D01*
X76871473Y-173376202D01*
X76868556Y-173368835D01*
X76868555Y-173368830D01*
X76855197Y-173335091D01*
X76851353Y-173323864D01*
X76841229Y-173289021D01*
X76839017Y-173281406D01*
X76828706Y-173263971D01*
X76820011Y-173246223D01*
X76812551Y-173227382D01*
X76786563Y-173191612D01*
X76780047Y-173181692D01*
X76761579Y-173150464D01*
X76761577Y-173150461D01*
X76757541Y-173143637D01*
X76743220Y-173129316D01*
X76730379Y-173114282D01*
X76723130Y-173104305D01*
X76718471Y-173097892D01*
X76684394Y-173069701D01*
X76675615Y-173061711D01*
X75959739Y-172345835D01*
X78044022Y-172345835D01*
X78055754Y-172590064D01*
X78056891Y-172599324D01*
X78104593Y-172839143D01*
X78107082Y-172848118D01*
X78189708Y-173078250D01*
X78193505Y-173086778D01*
X78309234Y-173302160D01*
X78314245Y-173310027D01*
X78371173Y-173386263D01*
X78382431Y-173394712D01*
X78394850Y-173387940D01*
X79383978Y-172398812D01*
X79390356Y-172387132D01*
X80120408Y-172387132D01*
X80120539Y-172388965D01*
X80124790Y-172395580D01*
X81119732Y-173390522D01*
X81132112Y-173397282D01*
X81140453Y-173391038D01*
X81258700Y-173207202D01*
X81263147Y-173199011D01*
X81363572Y-172976076D01*
X81366767Y-172967298D01*
X81433135Y-172731973D01*
X81434993Y-172722844D01*
X81466044Y-172478770D01*
X81466525Y-172472483D01*
X81468706Y-172389160D01*
X81468555Y-172382851D01*
X81450321Y-172137486D01*
X81448944Y-172128280D01*
X81394979Y-171889786D01*
X81392255Y-171880875D01*
X81303633Y-171652983D01*
X81299619Y-171644567D01*
X81178284Y-171432276D01*
X81173074Y-171424553D01*
X81141787Y-171384865D01*
X81129863Y-171376395D01*
X81118328Y-171382882D01*
X80128022Y-172373188D01*
X80120408Y-172387132D01*
X79390356Y-172387132D01*
X79391592Y-172384868D01*
X79391461Y-172383035D01*
X79387210Y-172376420D01*
X78392828Y-171382038D01*
X78379520Y-171374771D01*
X78369481Y-171381893D01*
X78364581Y-171387784D01*
X78359168Y-171395373D01*
X78232322Y-171604409D01*
X78228084Y-171612726D01*
X78133529Y-171838214D01*
X78130572Y-171847052D01*
X78070384Y-172084042D01*
X78068763Y-172093232D01*
X78044267Y-172336510D01*
X78044022Y-172345835D01*
X75959739Y-172345835D01*
X74624821Y-171010917D01*
X78745330Y-171010917D01*
X78749903Y-171020693D01*
X79743188Y-172013978D01*
X79757132Y-172021592D01*
X79758965Y-172021461D01*
X79765580Y-172017210D01*
X80758488Y-171024302D01*
X80764872Y-171012612D01*
X80755460Y-171000502D01*
X80629144Y-170912873D01*
X80621116Y-170908145D01*
X80401810Y-170799995D01*
X80393177Y-170796507D01*
X80160288Y-170721958D01*
X80151238Y-170719785D01*
X79909891Y-170680480D01*
X79900602Y-170679668D01*
X79656114Y-170676467D01*
X79646803Y-170677037D01*
X79404522Y-170710010D01*
X79395403Y-170711948D01*
X79160668Y-170780367D01*
X79151915Y-170783639D01*
X78929869Y-170886004D01*
X78921714Y-170890524D01*
X78754468Y-171000175D01*
X78745330Y-171010917D01*
X74624821Y-171010917D01*
X72248039Y-168634134D01*
X78047500Y-168634134D01*
X78054255Y-168696316D01*
X78105385Y-168832705D01*
X78192739Y-168949261D01*
X78309295Y-169036615D01*
X78445684Y-169087745D01*
X78507866Y-169094500D01*
X81004134Y-169094500D01*
X81066316Y-169087745D01*
X81202705Y-169036615D01*
X81319261Y-168949261D01*
X81406615Y-168832705D01*
X81457745Y-168696316D01*
X81464500Y-168634134D01*
X81464500Y-168145500D01*
X81484502Y-168077379D01*
X81538158Y-168030886D01*
X81590500Y-168019500D01*
X82235406Y-168019500D01*
X82303527Y-168039502D01*
X82324501Y-168056405D01*
X88678595Y-174410499D01*
X88712621Y-174472811D01*
X88715500Y-174499594D01*
X88715500Y-176508134D01*
X88722255Y-176570316D01*
X88763997Y-176681663D01*
X88769180Y-176752468D01*
X88735110Y-176814986D01*
X83725248Y-181824848D01*
X83662936Y-181858874D01*
X83603541Y-181857459D01*
X83545409Y-181841882D01*
X83545398Y-181841880D01*
X83540087Y-181840457D01*
X83312000Y-181820502D01*
X83083913Y-181840457D01*
X83020458Y-181857460D01*
X82949482Y-181855770D01*
X82898753Y-181824848D01*
X81305405Y-180231500D01*
X81271379Y-180169188D01*
X81268500Y-180142405D01*
X81268500Y-179033866D01*
X81261745Y-178971684D01*
X81210615Y-178835295D01*
X81123261Y-178718739D01*
X81006705Y-178631385D01*
X80870316Y-178580255D01*
X80808134Y-178573500D01*
X79211866Y-178573500D01*
X79149684Y-178580255D01*
X79013295Y-178631385D01*
X78896739Y-178718739D01*
X78809385Y-178835295D01*
X78758255Y-178971684D01*
X78751500Y-179033866D01*
X78751500Y-180630134D01*
X78758255Y-180692316D01*
X78809385Y-180828705D01*
X78896739Y-180945261D01*
X79013295Y-181032615D01*
X79149684Y-181083745D01*
X79211866Y-181090500D01*
X79247297Y-181090500D01*
X79315418Y-181110502D01*
X79361911Y-181164158D01*
X79372015Y-181234432D01*
X79342521Y-181299012D01*
X79319567Y-181319713D01*
X79202797Y-181401476D01*
X79194390Y-181408530D01*
X79046530Y-181556390D01*
X79039476Y-181564797D01*
X78919534Y-181736093D01*
X78914056Y-181745579D01*
X78825674Y-181935113D01*
X78821928Y-181945405D01*
X78780370Y-182100503D01*
X78780706Y-182114599D01*
X78788648Y-182118000D01*
X81226203Y-182118000D01*
X81266416Y-182106192D01*
X81284113Y-182094818D01*
X81355109Y-182094814D01*
X81408713Y-182126617D01*
X82002848Y-182720752D01*
X82036874Y-182783064D01*
X82035459Y-182842459D01*
X82019882Y-182900591D01*
X82019880Y-182900602D01*
X82018457Y-182905913D01*
X81998502Y-183134000D01*
X82018457Y-183362087D01*
X82019880Y-183367398D01*
X82019881Y-183367402D01*
X82070504Y-183556326D01*
X82077716Y-183583243D01*
X82080039Y-183588224D01*
X82080039Y-183588225D01*
X82172151Y-183785762D01*
X82172154Y-183785767D01*
X82174477Y-183790749D01*
X82233781Y-183875443D01*
X82294181Y-183961703D01*
X82305802Y-183978300D01*
X82467700Y-184140198D01*
X82472208Y-184143355D01*
X82472211Y-184143357D01*
X82499596Y-184162532D01*
X82655251Y-184271523D01*
X82660233Y-184273846D01*
X82660238Y-184273849D01*
X82857775Y-184365961D01*
X82862757Y-184368284D01*
X82868065Y-184369706D01*
X82868067Y-184369707D01*
X83078598Y-184426119D01*
X83078600Y-184426119D01*
X83083913Y-184427543D01*
X83312000Y-184447498D01*
X83540087Y-184427543D01*
X83545398Y-184426120D01*
X83545409Y-184426118D01*
X83603541Y-184410541D01*
X83674517Y-184412230D01*
X83725248Y-184443152D01*
X85838594Y-186556498D01*
X85872620Y-186618810D01*
X85875499Y-186645593D01*
X85875499Y-193618232D01*
X85874972Y-193629415D01*
X85873297Y-193636908D01*
X85873546Y-193644834D01*
X85873546Y-193644835D01*
X85875437Y-193704985D01*
X85875499Y-193708944D01*
X85875499Y-193736855D01*
X85875996Y-193740789D01*
X85875996Y-193740790D01*
X85876004Y-193740855D01*
X85876937Y-193752692D01*
X85878326Y-193796888D01*
X85883977Y-193816338D01*
X85887986Y-193835699D01*
X85890525Y-193855796D01*
X85893444Y-193863167D01*
X85893444Y-193863169D01*
X85906803Y-193896911D01*
X85910648Y-193908141D01*
X85922981Y-193950592D01*
X85927014Y-193957411D01*
X85927016Y-193957416D01*
X85933292Y-193968027D01*
X85941987Y-193985775D01*
X85949447Y-194004616D01*
X85954109Y-194011032D01*
X85954109Y-194011033D01*
X85975435Y-194040386D01*
X85981951Y-194050306D01*
X86004457Y-194088361D01*
X86018778Y-194102682D01*
X86031618Y-194117715D01*
X86043527Y-194134106D01*
X86077604Y-194162297D01*
X86086383Y-194170287D01*
X86488595Y-194572499D01*
X86522621Y-194634811D01*
X86525500Y-194661594D01*
X86525500Y-195970134D01*
X86532255Y-196032316D01*
X86583385Y-196168705D01*
X86670739Y-196285261D01*
X86787295Y-196372615D01*
X86923684Y-196423745D01*
X86985866Y-196430500D01*
X88782134Y-196430500D01*
X88844316Y-196423745D01*
X88980705Y-196372615D01*
X89097261Y-196285261D01*
X89184615Y-196168705D01*
X89235745Y-196032316D01*
X89242500Y-195970134D01*
X89242500Y-194661594D01*
X89262502Y-194593473D01*
X89279405Y-194572499D01*
X89881499Y-193970405D01*
X89943811Y-193936379D01*
X89970594Y-193933500D01*
X91442450Y-193933500D01*
X91500158Y-193948264D01*
X91503295Y-193950615D01*
X91639684Y-194001745D01*
X91701866Y-194008500D01*
X93198134Y-194008500D01*
X93260316Y-194001745D01*
X93396705Y-193950615D01*
X93513261Y-193863261D01*
X93600615Y-193746705D01*
X93603765Y-193738301D01*
X93605482Y-193735166D01*
X93655741Y-193685021D01*
X93725132Y-193670008D01*
X93791624Y-193694894D01*
X93834106Y-193751778D01*
X93842001Y-193795677D01*
X93842001Y-194094669D01*
X93842371Y-194101490D01*
X93847895Y-194152352D01*
X93851522Y-194167606D01*
X93893945Y-194280771D01*
X93899128Y-194351578D01*
X93893945Y-194369229D01*
X93851522Y-194482391D01*
X93847895Y-194497649D01*
X93842369Y-194548514D01*
X93842000Y-194555328D01*
X93842000Y-195477885D01*
X93846475Y-195493124D01*
X93847865Y-195494329D01*
X93855548Y-195496000D01*
X95027885Y-195496000D01*
X95043124Y-195491525D01*
X95044329Y-195490135D01*
X95046000Y-195482452D01*
X95046000Y-188522115D01*
X95041525Y-188506876D01*
X95040135Y-188505671D01*
X95032452Y-188504000D01*
X93860116Y-188504000D01*
X93844877Y-188508475D01*
X93843672Y-188509865D01*
X93842001Y-188517548D01*
X93842001Y-189444669D01*
X93842371Y-189451490D01*
X93847895Y-189502352D01*
X93851522Y-189517606D01*
X93893945Y-189630771D01*
X93899128Y-189701578D01*
X93893945Y-189719229D01*
X93851522Y-189832391D01*
X93847895Y-189847649D01*
X93842369Y-189898514D01*
X93842000Y-189905328D01*
X93842000Y-190205374D01*
X93821998Y-190273495D01*
X93768342Y-190319988D01*
X93698068Y-190330092D01*
X93633488Y-190300598D01*
X93605480Y-190265883D01*
X93594788Y-190246354D01*
X93518285Y-190144276D01*
X93505724Y-190131715D01*
X93403649Y-190055214D01*
X93388054Y-190046676D01*
X93267606Y-190001522D01*
X93252351Y-189997895D01*
X93201486Y-189992369D01*
X93194672Y-189992000D01*
X92668115Y-189992000D01*
X92652876Y-189996475D01*
X92651671Y-189997865D01*
X92650000Y-190005548D01*
X92650000Y-190515500D01*
X92629998Y-190583621D01*
X92576342Y-190630114D01*
X92524000Y-190641500D01*
X92372628Y-190641500D01*
X92304507Y-190621498D01*
X92258014Y-190567842D01*
X92247910Y-190497568D01*
X92249508Y-190488715D01*
X92250000Y-190486453D01*
X92250000Y-190010116D01*
X92245525Y-189994877D01*
X92244135Y-189993672D01*
X92236452Y-189992001D01*
X91705331Y-189992001D01*
X91698510Y-189992371D01*
X91647648Y-189997895D01*
X91632396Y-190001521D01*
X91511946Y-190046676D01*
X91496351Y-190055214D01*
X91394276Y-190131715D01*
X91381715Y-190144276D01*
X91305214Y-190246351D01*
X91296676Y-190261946D01*
X91251522Y-190382394D01*
X91247895Y-190397649D01*
X91242369Y-190448514D01*
X91242000Y-190455328D01*
X91242000Y-190481885D01*
X91246475Y-190497124D01*
X91247865Y-190498329D01*
X91255548Y-190500000D01*
X91391116Y-190500000D01*
X91459237Y-190520002D01*
X91505730Y-190573658D01*
X91515834Y-190643932D01*
X91486340Y-190708512D01*
X91466683Y-190726825D01*
X91386739Y-190786739D01*
X91341144Y-190847577D01*
X91338758Y-190850760D01*
X91281899Y-190893275D01*
X91273430Y-190896091D01*
X91244877Y-190904475D01*
X91243672Y-190905865D01*
X91242001Y-190913548D01*
X91242001Y-190944669D01*
X91242371Y-190951490D01*
X91248748Y-191010207D01*
X91246002Y-191010505D01*
X91246060Y-191039446D01*
X91248255Y-191039684D01*
X91241500Y-191101866D01*
X91241500Y-191240500D01*
X91221498Y-191308621D01*
X91167842Y-191355114D01*
X91115500Y-191366500D01*
X90206595Y-191366500D01*
X90138474Y-191346498D01*
X90117499Y-191329595D01*
X89235217Y-190447312D01*
X89201192Y-190385000D01*
X89203755Y-190321590D01*
X89216370Y-190280069D01*
X89245529Y-190058590D01*
X89245611Y-190055240D01*
X89247074Y-189995365D01*
X89247074Y-189995361D01*
X89247156Y-189992000D01*
X89228852Y-189769361D01*
X89174431Y-189552702D01*
X89085354Y-189347840D01*
X89010464Y-189232077D01*
X88966822Y-189164617D01*
X88966820Y-189164614D01*
X88964014Y-189160277D01*
X88813670Y-188995051D01*
X88809619Y-188991852D01*
X88809615Y-188991848D01*
X88642414Y-188859800D01*
X88642410Y-188859798D01*
X88638359Y-188856598D01*
X88631092Y-188852586D01*
X88596569Y-188833529D01*
X88546598Y-188783097D01*
X88531826Y-188713654D01*
X88556942Y-188647248D01*
X88584294Y-188620641D01*
X88759328Y-188495792D01*
X88767200Y-188489139D01*
X88918052Y-188338812D01*
X88924730Y-188330965D01*
X89049003Y-188158020D01*
X89054313Y-188149183D01*
X89138974Y-187977885D01*
X93842000Y-187977885D01*
X93846475Y-187993124D01*
X93847865Y-187994329D01*
X93855548Y-187996000D01*
X95027885Y-187996000D01*
X95043124Y-187991525D01*
X95044329Y-187990135D01*
X95046000Y-187982452D01*
X95046000Y-186610116D01*
X95041525Y-186594877D01*
X95040135Y-186593672D01*
X95032452Y-186592001D01*
X94305331Y-186592001D01*
X94298510Y-186592371D01*
X94247648Y-186597895D01*
X94232396Y-186601521D01*
X94111946Y-186646676D01*
X94096351Y-186655214D01*
X93994276Y-186731715D01*
X93981715Y-186744276D01*
X93905214Y-186846351D01*
X93896676Y-186861946D01*
X93851522Y-186982394D01*
X93847895Y-186997649D01*
X93842369Y-187048514D01*
X93842000Y-187055328D01*
X93842000Y-187977885D01*
X89138974Y-187977885D01*
X89148670Y-187958267D01*
X89152469Y-187948672D01*
X89214377Y-187744910D01*
X89216555Y-187734837D01*
X89217986Y-187723962D01*
X89215775Y-187709778D01*
X89202617Y-187706000D01*
X87756000Y-187706000D01*
X87687879Y-187685998D01*
X87641386Y-187632342D01*
X87630000Y-187580000D01*
X87630000Y-187179885D01*
X88138000Y-187179885D01*
X88142475Y-187195124D01*
X88143865Y-187196329D01*
X88151548Y-187198000D01*
X89202344Y-187198000D01*
X89215875Y-187194027D01*
X89217180Y-187184947D01*
X89175214Y-187017875D01*
X89171894Y-187008124D01*
X89086972Y-186812814D01*
X89082105Y-186803739D01*
X88966426Y-186624926D01*
X88960136Y-186616757D01*
X88816806Y-186459240D01*
X88809273Y-186452215D01*
X88642139Y-186320222D01*
X88633552Y-186314517D01*
X88447117Y-186211599D01*
X88437705Y-186207369D01*
X88236959Y-186136280D01*
X88226988Y-186133646D01*
X88155837Y-186120972D01*
X88142540Y-186122432D01*
X88138000Y-186136989D01*
X88138000Y-187179885D01*
X87630000Y-187179885D01*
X87630000Y-186135102D01*
X87626082Y-186121758D01*
X87611806Y-186119771D01*
X87573324Y-186125660D01*
X87563288Y-186128051D01*
X87360868Y-186194212D01*
X87351364Y-186198207D01*
X87298178Y-186225894D01*
X87228518Y-186239607D01*
X87162503Y-186213482D01*
X87122844Y-186160511D01*
X87111198Y-186131094D01*
X87107354Y-186119869D01*
X87106720Y-186117686D01*
X87095017Y-186077406D01*
X87090983Y-186070584D01*
X87090980Y-186070578D01*
X87084705Y-186059967D01*
X87076009Y-186042217D01*
X87071471Y-186030755D01*
X87071468Y-186030750D01*
X87068551Y-186023382D01*
X87042572Y-185987624D01*
X87036056Y-185977706D01*
X87025004Y-185959018D01*
X87013541Y-185939636D01*
X86999217Y-185925312D01*
X86986375Y-185910277D01*
X86974471Y-185893892D01*
X86940405Y-185865710D01*
X86931626Y-185857721D01*
X84621152Y-183547247D01*
X84587126Y-183484935D01*
X84588540Y-183425541D01*
X84605543Y-183362087D01*
X84625498Y-183134000D01*
X84605543Y-182905913D01*
X84604120Y-182900602D01*
X84604118Y-182900591D01*
X84588541Y-182842459D01*
X84590230Y-182771483D01*
X84621152Y-182720752D01*
X85708545Y-181633359D01*
X89415386Y-181633359D01*
X89424099Y-181644879D01*
X89512586Y-181709760D01*
X89520505Y-181714708D01*
X89736877Y-181828547D01*
X89745451Y-181832275D01*
X89976282Y-181912885D01*
X89985291Y-181915299D01*
X90225518Y-181960908D01*
X90234775Y-181961962D01*
X90479107Y-181971563D01*
X90488420Y-181971237D01*
X90731478Y-181944618D01*
X90740655Y-181942917D01*
X90977107Y-181880665D01*
X90985926Y-181877628D01*
X91210584Y-181781107D01*
X91218856Y-181776800D01*
X91426777Y-181648135D01*
X91428620Y-181646796D01*
X91436038Y-181635541D01*
X91429973Y-181625183D01*
X90436812Y-180632022D01*
X90422868Y-180624408D01*
X90421035Y-180624539D01*
X90414420Y-180628790D01*
X89422044Y-181621166D01*
X89415386Y-181633359D01*
X85708545Y-181633359D01*
X87122070Y-180219835D01*
X88712022Y-180219835D01*
X88723754Y-180464064D01*
X88724891Y-180473324D01*
X88772593Y-180713143D01*
X88775082Y-180722118D01*
X88857708Y-180952250D01*
X88861505Y-180960778D01*
X88977234Y-181176160D01*
X88982245Y-181184027D01*
X89039173Y-181260263D01*
X89050431Y-181268712D01*
X89062850Y-181261940D01*
X90051978Y-180272812D01*
X90058356Y-180261132D01*
X90788408Y-180261132D01*
X90788539Y-180262965D01*
X90792790Y-180269580D01*
X91787732Y-181264522D01*
X91800112Y-181271282D01*
X91808453Y-181265038D01*
X91926700Y-181081202D01*
X91931147Y-181073011D01*
X92031572Y-180850076D01*
X92034767Y-180841298D01*
X92101135Y-180605973D01*
X92102993Y-180596844D01*
X92134044Y-180352770D01*
X92134525Y-180346483D01*
X92136706Y-180263160D01*
X92136555Y-180256851D01*
X92118321Y-180011486D01*
X92116944Y-180002280D01*
X92062979Y-179763786D01*
X92060255Y-179754875D01*
X91971633Y-179526983D01*
X91967619Y-179518567D01*
X91846284Y-179306276D01*
X91841074Y-179298553D01*
X91809787Y-179258865D01*
X91797863Y-179250395D01*
X91786328Y-179256882D01*
X90796022Y-180247188D01*
X90788408Y-180261132D01*
X90058356Y-180261132D01*
X90059592Y-180258868D01*
X90059461Y-180257035D01*
X90055210Y-180250420D01*
X89060828Y-179256038D01*
X89047520Y-179248771D01*
X89037481Y-179255893D01*
X89032581Y-179261784D01*
X89027168Y-179269373D01*
X88900322Y-179478409D01*
X88896084Y-179486726D01*
X88801529Y-179712214D01*
X88798572Y-179721052D01*
X88738384Y-179958042D01*
X88736763Y-179967232D01*
X88712267Y-180210510D01*
X88712022Y-180219835D01*
X87122070Y-180219835D01*
X87472310Y-179869595D01*
X88456988Y-178884917D01*
X89413330Y-178884917D01*
X89417903Y-178894693D01*
X90411188Y-179887978D01*
X90425132Y-179895592D01*
X90426965Y-179895461D01*
X90433580Y-179891210D01*
X91426488Y-178898302D01*
X91432872Y-178886612D01*
X91423460Y-178874502D01*
X91297144Y-178786873D01*
X91289116Y-178782145D01*
X91069810Y-178673995D01*
X91061177Y-178670507D01*
X90828288Y-178595958D01*
X90819238Y-178593785D01*
X90577891Y-178554480D01*
X90568602Y-178553668D01*
X90324114Y-178550467D01*
X90314803Y-178551037D01*
X90072522Y-178584010D01*
X90063403Y-178585948D01*
X89828668Y-178654367D01*
X89819915Y-178657639D01*
X89597869Y-178760004D01*
X89589714Y-178764524D01*
X89422468Y-178874175D01*
X89413330Y-178884917D01*
X88456988Y-178884917D01*
X90336500Y-177005405D01*
X90398812Y-176971379D01*
X90425595Y-176968500D01*
X91672134Y-176968500D01*
X91734316Y-176961745D01*
X91870705Y-176910615D01*
X91987261Y-176823261D01*
X92074615Y-176706705D01*
X92125745Y-176570316D01*
X92132500Y-176508134D01*
X92132500Y-174011866D01*
X92125745Y-173949684D01*
X92074615Y-173813295D01*
X91987261Y-173696739D01*
X91870705Y-173609385D01*
X91734316Y-173558255D01*
X91672134Y-173551500D01*
X89663594Y-173551500D01*
X89595473Y-173531498D01*
X89574499Y-173514595D01*
X85146328Y-169086423D01*
X91278703Y-169086423D01*
X91286227Y-169096854D01*
X91425483Y-169209020D01*
X91431657Y-169213408D01*
X91702271Y-169382178D01*
X91708931Y-169385794D01*
X91997852Y-169520827D01*
X92004905Y-169523620D01*
X92307970Y-169622970D01*
X92315282Y-169624888D01*
X92628092Y-169687109D01*
X92635590Y-169688137D01*
X92953610Y-169712328D01*
X92961173Y-169712446D01*
X93279785Y-169698257D01*
X93287326Y-169697465D01*
X93601924Y-169645101D01*
X93609302Y-169643411D01*
X93915355Y-169553625D01*
X93922450Y-169551071D01*
X94215496Y-169425169D01*
X94222263Y-169421765D01*
X94498042Y-169261580D01*
X94504349Y-169257390D01*
X94714305Y-169098889D01*
X94722761Y-169087496D01*
X94716045Y-169075256D01*
X93012810Y-167372020D01*
X92998869Y-167364408D01*
X92997034Y-167364539D01*
X92990420Y-167368790D01*
X91285818Y-169073393D01*
X91278703Y-169086423D01*
X85146328Y-169086423D01*
X83053652Y-166993747D01*
X83046112Y-166985461D01*
X83042000Y-166978982D01*
X83038168Y-166975383D01*
X90287388Y-166975383D01*
X90303245Y-167293914D01*
X90304076Y-167301443D01*
X90358085Y-167615759D01*
X90359818Y-167623146D01*
X90451196Y-167928695D01*
X90453799Y-167935808D01*
X90581227Y-168228173D01*
X90584669Y-168234929D01*
X90746296Y-168509865D01*
X90750519Y-168516150D01*
X90901463Y-168713934D01*
X90912989Y-168722396D01*
X90925054Y-168715735D01*
X92627980Y-167012810D01*
X92634357Y-167001131D01*
X93364408Y-167001131D01*
X93364539Y-167002966D01*
X93368790Y-167009580D01*
X95073285Y-168714074D01*
X95086408Y-168721240D01*
X95096709Y-168713851D01*
X95200751Y-168586055D01*
X95205164Y-168579914D01*
X95375349Y-168310187D01*
X95379005Y-168303536D01*
X95515544Y-168015335D01*
X95518375Y-168008295D01*
X95619306Y-167705767D01*
X95621270Y-167698433D01*
X95685122Y-167385989D01*
X95686194Y-167378465D01*
X95712173Y-167059051D01*
X95712378Y-167054576D01*
X95712927Y-167002221D01*
X95712817Y-166997789D01*
X95693529Y-166677853D01*
X95692621Y-166670351D01*
X95635319Y-166356593D01*
X95633518Y-166349260D01*
X95538935Y-166044655D01*
X95536263Y-166037583D01*
X95405781Y-165746570D01*
X95402264Y-165739843D01*
X95237771Y-165466621D01*
X95233481Y-165460377D01*
X95097991Y-165286647D01*
X95086199Y-165278178D01*
X95074486Y-165284725D01*
X93372020Y-166987190D01*
X93364408Y-167001131D01*
X92634357Y-167001131D01*
X92635592Y-166998869D01*
X92635461Y-166997034D01*
X92631210Y-166990420D01*
X90926445Y-165285656D01*
X90913510Y-165278592D01*
X90902949Y-165286252D01*
X90782766Y-165437072D01*
X90778410Y-165443270D01*
X90611059Y-165714764D01*
X90607479Y-165721440D01*
X90473956Y-166011074D01*
X90471206Y-166018125D01*
X90373444Y-166321708D01*
X90371561Y-166329041D01*
X90310979Y-166642170D01*
X90309992Y-166649670D01*
X90287467Y-166967802D01*
X90287388Y-166975383D01*
X83038168Y-166975383D01*
X83035953Y-166973303D01*
X82992349Y-166932357D01*
X82989507Y-166929602D01*
X82969770Y-166909865D01*
X82966573Y-166907385D01*
X82957551Y-166899680D01*
X82925321Y-166869414D01*
X82918375Y-166865595D01*
X82918372Y-166865593D01*
X82907566Y-166859652D01*
X82891047Y-166848801D01*
X82890583Y-166848441D01*
X82875041Y-166836386D01*
X82867772Y-166833241D01*
X82867768Y-166833238D01*
X82834463Y-166818826D01*
X82823813Y-166813609D01*
X82785060Y-166792305D01*
X82765437Y-166787267D01*
X82746734Y-166780863D01*
X82735420Y-166775967D01*
X82735419Y-166775967D01*
X82728145Y-166772819D01*
X82720322Y-166771580D01*
X82720312Y-166771577D01*
X82684476Y-166765901D01*
X82672856Y-166763495D01*
X82637711Y-166754472D01*
X82637710Y-166754472D01*
X82630030Y-166752500D01*
X82609776Y-166752500D01*
X82590065Y-166750949D01*
X82577886Y-166749020D01*
X82570057Y-166747780D01*
X82562165Y-166748526D01*
X82526039Y-166751941D01*
X82514181Y-166752500D01*
X81590500Y-166752500D01*
X81522379Y-166732498D01*
X81475886Y-166678842D01*
X81464500Y-166626500D01*
X81464500Y-166137866D01*
X81457745Y-166075684D01*
X81406615Y-165939295D01*
X81319261Y-165822739D01*
X81202705Y-165735385D01*
X81066316Y-165684255D01*
X81004134Y-165677500D01*
X78507866Y-165677500D01*
X78445684Y-165684255D01*
X78309295Y-165735385D01*
X78192739Y-165822739D01*
X78105385Y-165939295D01*
X78054255Y-166075684D01*
X78047500Y-166137866D01*
X78047500Y-168634134D01*
X72248039Y-168634134D01*
X69299443Y-165685538D01*
X69265417Y-165623226D01*
X69264453Y-165574561D01*
X69265264Y-165569961D01*
X69266686Y-165564655D01*
X69267166Y-165559175D01*
X69284637Y-165359475D01*
X69285116Y-165354000D01*
X69266686Y-165143345D01*
X69265262Y-165138030D01*
X69213379Y-164944400D01*
X69213378Y-164944398D01*
X69211956Y-164939090D01*
X69199987Y-164913423D01*
X91277917Y-164913423D01*
X91284520Y-164925309D01*
X92987190Y-166627980D01*
X93001131Y-166635592D01*
X93002966Y-166635461D01*
X93009580Y-166631210D01*
X94714559Y-164926230D01*
X94721571Y-164913389D01*
X94713777Y-164902701D01*
X94551298Y-164774613D01*
X94545075Y-164770288D01*
X94272702Y-164604357D01*
X94266025Y-164600822D01*
X93975686Y-164468813D01*
X93968616Y-164466099D01*
X93664537Y-164369932D01*
X93657186Y-164368085D01*
X93343746Y-164309142D01*
X93336237Y-164308194D01*
X93017989Y-164287335D01*
X93010424Y-164287295D01*
X92691964Y-164304821D01*
X92684450Y-164305690D01*
X92370405Y-164361348D01*
X92363044Y-164363115D01*
X92057980Y-164456092D01*
X92050860Y-164458740D01*
X91759182Y-164587690D01*
X91752445Y-164591167D01*
X91478355Y-164754233D01*
X91472091Y-164758490D01*
X91286385Y-164901762D01*
X91277917Y-164913423D01*
X69199987Y-164913423D01*
X69124912Y-164752423D01*
X69124910Y-164752420D01*
X69122589Y-164747442D01*
X69001301Y-164574224D01*
X68851776Y-164424699D01*
X68678558Y-164303411D01*
X68673580Y-164301090D01*
X68673577Y-164301088D01*
X68491892Y-164216367D01*
X68491891Y-164216366D01*
X68486910Y-164214044D01*
X68481602Y-164212622D01*
X68481600Y-164212621D01*
X68287970Y-164160738D01*
X68287968Y-164160738D01*
X68282655Y-164159314D01*
X68072000Y-164140884D01*
X67861345Y-164159314D01*
X67856032Y-164160738D01*
X67856030Y-164160738D01*
X67662400Y-164212621D01*
X67662398Y-164212622D01*
X67657090Y-164214044D01*
X67652109Y-164216366D01*
X67652108Y-164216367D01*
X67470423Y-164301088D01*
X67470420Y-164301090D01*
X67465442Y-164303411D01*
X67292224Y-164424699D01*
X67142699Y-164574224D01*
X67021411Y-164747442D01*
X67019090Y-164752420D01*
X67019088Y-164752423D01*
X66944013Y-164913423D01*
X66932044Y-164939090D01*
X66930622Y-164944398D01*
X66930621Y-164944400D01*
X66878738Y-165138030D01*
X66877314Y-165143345D01*
X66858884Y-165354000D01*
X66877314Y-165564655D01*
X66878738Y-165569968D01*
X66878738Y-165569970D01*
X66924256Y-165739843D01*
X66932044Y-165768910D01*
X66934366Y-165773891D01*
X66934367Y-165773892D01*
X67015417Y-165947703D01*
X67021411Y-165960558D01*
X67142699Y-166133776D01*
X67292224Y-166283301D01*
X67465442Y-166404589D01*
X67470420Y-166406910D01*
X67470423Y-166406912D01*
X67652108Y-166491633D01*
X67657090Y-166493956D01*
X67662398Y-166495378D01*
X67662400Y-166495379D01*
X67856030Y-166547262D01*
X67856032Y-166547262D01*
X67861345Y-166548686D01*
X68072000Y-166567116D01*
X68077475Y-166566637D01*
X68277184Y-166549165D01*
X68277188Y-166549164D01*
X68282655Y-166548686D01*
X68287961Y-166547264D01*
X68292561Y-166546453D01*
X68363121Y-166554321D01*
X68403538Y-166581443D01*
X75582594Y-173760499D01*
X75616620Y-173822811D01*
X75619499Y-173849594D01*
X75619499Y-188696232D01*
X75618972Y-188707415D01*
X75617297Y-188714908D01*
X75617546Y-188722834D01*
X75617546Y-188722835D01*
X75619437Y-188782985D01*
X75619499Y-188786944D01*
X75619499Y-188814855D01*
X75619996Y-188818789D01*
X75619996Y-188818790D01*
X75620004Y-188818855D01*
X75620937Y-188830692D01*
X75622326Y-188874888D01*
X75627856Y-188893923D01*
X75627977Y-188894338D01*
X75631986Y-188913699D01*
X75634525Y-188933796D01*
X75637444Y-188941167D01*
X75637444Y-188941169D01*
X75650803Y-188974911D01*
X75654648Y-188986141D01*
X75664770Y-189020982D01*
X75666981Y-189028592D01*
X75671014Y-189035411D01*
X75671016Y-189035416D01*
X75677292Y-189046027D01*
X75685987Y-189063775D01*
X75693447Y-189082616D01*
X75698109Y-189089032D01*
X75698109Y-189089033D01*
X75719435Y-189118386D01*
X75725951Y-189128306D01*
X75742600Y-189156457D01*
X75748457Y-189166361D01*
X75762778Y-189180682D01*
X75775618Y-189195715D01*
X75787527Y-189212106D01*
X75811668Y-189232077D01*
X75821604Y-189240297D01*
X75830383Y-189248287D01*
X78741672Y-192159577D01*
X78775698Y-192221889D01*
X78774284Y-192281283D01*
X78765885Y-192312629D01*
X78746693Y-192532000D01*
X78765885Y-192751371D01*
X78822880Y-192964076D01*
X78848880Y-193019833D01*
X78913618Y-193158666D01*
X78913621Y-193158671D01*
X78915944Y-193163653D01*
X78919100Y-193168160D01*
X78919101Y-193168162D01*
X78996345Y-193278477D01*
X79042251Y-193344038D01*
X79197962Y-193499749D01*
X79202471Y-193502906D01*
X79202473Y-193502908D01*
X79271950Y-193551556D01*
X79378346Y-193626056D01*
X79383328Y-193628379D01*
X79383333Y-193628382D01*
X79575822Y-193718140D01*
X79629107Y-193765057D01*
X79648568Y-193833334D01*
X79628026Y-193901294D01*
X79611668Y-193921430D01*
X79240978Y-194292119D01*
X78877501Y-194655596D01*
X78815189Y-194689621D01*
X78788406Y-194692500D01*
X57739315Y-194692500D01*
X57671194Y-194672498D01*
X57636102Y-194638770D01*
X57589699Y-194572499D01*
X57571301Y-194546224D01*
X57421776Y-194396699D01*
X57248558Y-194275411D01*
X57243580Y-194273090D01*
X57243577Y-194273088D01*
X57061892Y-194188367D01*
X57061891Y-194188366D01*
X57056910Y-194186044D01*
X57051602Y-194184622D01*
X57051600Y-194184621D01*
X56857970Y-194132738D01*
X56857968Y-194132738D01*
X56852655Y-194131314D01*
X56642000Y-194112884D01*
X56431345Y-194131314D01*
X56426032Y-194132738D01*
X56426030Y-194132738D01*
X56232400Y-194184621D01*
X56232398Y-194184622D01*
X56227090Y-194186044D01*
X56222109Y-194188366D01*
X56222108Y-194188367D01*
X56040423Y-194273088D01*
X56040420Y-194273090D01*
X56035442Y-194275411D01*
X55862224Y-194396699D01*
X55712699Y-194546224D01*
X55591411Y-194719442D01*
X55589090Y-194724420D01*
X55589088Y-194724423D01*
X55572851Y-194759243D01*
X55536315Y-194837597D01*
X55535467Y-194839415D01*
X55488550Y-194892700D01*
X55420273Y-194912161D01*
X55352313Y-194891619D01*
X55306247Y-194837597D01*
X55295752Y-194797148D01*
X55294024Y-194777404D01*
X55294022Y-194777391D01*
X55293543Y-194771913D01*
X55292069Y-194766413D01*
X55235707Y-194556067D01*
X55235706Y-194556065D01*
X55234284Y-194550757D01*
X55225815Y-194532595D01*
X55139849Y-194348238D01*
X55139846Y-194348233D01*
X55137523Y-194343251D01*
X55014535Y-194167606D01*
X55009357Y-194160211D01*
X55009355Y-194160208D01*
X55006198Y-194155700D01*
X54844300Y-193993802D01*
X54839792Y-193990645D01*
X54839789Y-193990643D01*
X54721964Y-193908141D01*
X54656749Y-193862477D01*
X54651767Y-193860154D01*
X54651762Y-193860151D01*
X54454225Y-193768039D01*
X54454224Y-193768039D01*
X54449243Y-193765716D01*
X54443935Y-193764294D01*
X54443933Y-193764293D01*
X54233402Y-193707881D01*
X54233400Y-193707881D01*
X54228087Y-193706457D01*
X54000000Y-193686502D01*
X53771913Y-193706457D01*
X53708458Y-193723460D01*
X53637482Y-193721770D01*
X53586753Y-193690848D01*
X53178651Y-193282746D01*
X53171111Y-193274460D01*
X53166999Y-193267981D01*
X53156342Y-193257973D01*
X53117348Y-193221356D01*
X53114506Y-193218601D01*
X53094769Y-193198864D01*
X53091572Y-193196384D01*
X53082550Y-193188679D01*
X53064668Y-193171887D01*
X53050320Y-193158413D01*
X53043374Y-193154594D01*
X53043371Y-193154592D01*
X53032565Y-193148651D01*
X53016046Y-193137800D01*
X53015582Y-193137440D01*
X53000040Y-193125385D01*
X52992771Y-193122240D01*
X52992767Y-193122237D01*
X52959462Y-193107825D01*
X52948812Y-193102608D01*
X52910059Y-193081304D01*
X52890436Y-193076266D01*
X52871733Y-193069862D01*
X52860419Y-193064966D01*
X52860418Y-193064966D01*
X52853144Y-193061818D01*
X52845321Y-193060579D01*
X52845311Y-193060576D01*
X52809475Y-193054900D01*
X52797855Y-193052494D01*
X52762710Y-193043471D01*
X52762709Y-193043471D01*
X52755029Y-193041499D01*
X52734775Y-193041499D01*
X52715064Y-193039948D01*
X52702885Y-193038019D01*
X52695056Y-193036779D01*
X52687164Y-193037525D01*
X52651038Y-193040940D01*
X52639180Y-193041499D01*
X42846457Y-193041499D01*
X42778336Y-193021497D01*
X42731843Y-192967841D01*
X42725460Y-192950653D01*
X42718018Y-192925036D01*
X42713985Y-192918217D01*
X42713983Y-192918212D01*
X42707707Y-192907601D01*
X42699010Y-192889851D01*
X42691552Y-192871013D01*
X42665571Y-192835253D01*
X42659053Y-192825331D01*
X42640578Y-192794090D01*
X42640574Y-192794085D01*
X42636542Y-192787267D01*
X42622218Y-192772943D01*
X42609376Y-192757908D01*
X42608485Y-192756681D01*
X42597472Y-192741523D01*
X42563406Y-192713341D01*
X42554627Y-192705352D01*
X40179022Y-190329747D01*
X40171482Y-190321461D01*
X40167370Y-190314982D01*
X40152053Y-190300598D01*
X40117719Y-190268357D01*
X40114877Y-190265602D01*
X40095140Y-190245865D01*
X40091943Y-190243385D01*
X40082921Y-190235680D01*
X40066316Y-190220087D01*
X40050691Y-190205414D01*
X40043745Y-190201595D01*
X40043742Y-190201593D01*
X40032936Y-190195652D01*
X40016417Y-190184801D01*
X40015953Y-190184441D01*
X40000411Y-190172386D01*
X39993142Y-190169241D01*
X39993138Y-190169238D01*
X39959833Y-190154826D01*
X39949183Y-190149609D01*
X39910430Y-190128305D01*
X39890807Y-190123267D01*
X39872104Y-190116863D01*
X39860790Y-190111967D01*
X39860789Y-190111967D01*
X39853515Y-190108819D01*
X39845692Y-190107580D01*
X39845682Y-190107577D01*
X39809846Y-190101901D01*
X39798226Y-190099495D01*
X39763081Y-190090472D01*
X39763080Y-190090472D01*
X39755400Y-190088500D01*
X39735146Y-190088500D01*
X39715435Y-190086949D01*
X39703256Y-190085020D01*
X39695427Y-190083780D01*
X39687535Y-190084526D01*
X39651409Y-190087941D01*
X39639551Y-190088500D01*
X39349357Y-190088500D01*
X39281236Y-190068498D01*
X39234743Y-190014842D01*
X39224639Y-189944568D01*
X39254133Y-189879988D01*
X39277086Y-189859287D01*
X39459789Y-189731357D01*
X39459792Y-189731355D01*
X39464300Y-189728198D01*
X39626198Y-189566300D01*
X39632206Y-189557720D01*
X39736181Y-189409229D01*
X39791638Y-189364901D01*
X39839394Y-189355500D01*
X45917941Y-189355500D01*
X45986062Y-189375502D01*
X45992446Y-189379888D01*
X46092094Y-189452953D01*
X46096229Y-189455129D01*
X46096233Y-189455131D01*
X46138446Y-189477340D01*
X46316827Y-189571191D01*
X46377841Y-189592498D01*
X46487439Y-189630771D01*
X46556568Y-189654912D01*
X46806050Y-189702278D01*
X46926532Y-189707011D01*
X47055125Y-189712064D01*
X47055130Y-189712064D01*
X47059793Y-189712247D01*
X47158948Y-189701388D01*
X47307569Y-189685112D01*
X47307575Y-189685111D01*
X47312222Y-189684602D01*
X47359955Y-189672035D01*
X47553273Y-189621138D01*
X47557793Y-189619948D01*
X47744461Y-189539750D01*
X47786807Y-189521557D01*
X47786810Y-189521555D01*
X47791110Y-189519708D01*
X47795090Y-189517245D01*
X47795094Y-189517243D01*
X48003064Y-189388547D01*
X48003066Y-189388545D01*
X48007047Y-189386082D01*
X48026108Y-189369946D01*
X48197289Y-189225031D01*
X48197291Y-189225029D01*
X48200862Y-189222006D01*
X48368295Y-189031084D01*
X48391473Y-188995051D01*
X48483388Y-188852151D01*
X48505669Y-188817512D01*
X48555114Y-188707749D01*
X48601330Y-188653855D01*
X48669996Y-188633500D01*
X53541233Y-188633500D01*
X53552416Y-188634027D01*
X53559909Y-188635702D01*
X53567835Y-188635453D01*
X53567836Y-188635453D01*
X53627986Y-188633562D01*
X53631945Y-188633500D01*
X54081406Y-188633500D01*
X54149527Y-188653502D01*
X54170501Y-188670405D01*
X55414557Y-189914461D01*
X55448583Y-189976773D01*
X55449548Y-190025437D01*
X55448738Y-190030029D01*
X55447314Y-190035345D01*
X55428884Y-190246000D01*
X55447314Y-190456655D01*
X55448738Y-190461968D01*
X55448738Y-190461970D01*
X55491484Y-190621498D01*
X55502044Y-190660910D01*
X55504366Y-190665891D01*
X55504367Y-190665892D01*
X55522236Y-190704211D01*
X55591411Y-190852558D01*
X55712699Y-191025776D01*
X55862224Y-191175301D01*
X56035442Y-191296589D01*
X56040420Y-191298910D01*
X56040423Y-191298912D01*
X56222108Y-191383633D01*
X56227090Y-191385956D01*
X56232398Y-191387378D01*
X56232400Y-191387379D01*
X56426030Y-191439262D01*
X56426032Y-191439262D01*
X56431345Y-191440686D01*
X56642000Y-191459116D01*
X56852655Y-191440686D01*
X56857968Y-191439262D01*
X56857970Y-191439262D01*
X57051600Y-191387379D01*
X57051602Y-191387378D01*
X57056910Y-191385956D01*
X57061892Y-191383633D01*
X57243577Y-191298912D01*
X57243580Y-191298910D01*
X57248558Y-191296589D01*
X57421776Y-191175301D01*
X57571301Y-191025776D01*
X57636102Y-190933230D01*
X57691559Y-190888901D01*
X57739315Y-190879500D01*
X58674812Y-190879500D01*
X58742933Y-190899502D01*
X58763907Y-190916405D01*
X58845700Y-190998198D01*
X58850208Y-191001355D01*
X58850211Y-191001357D01*
X58885085Y-191025776D01*
X59033251Y-191129523D01*
X59038233Y-191131846D01*
X59038238Y-191131849D01*
X59230150Y-191221338D01*
X59240757Y-191226284D01*
X59246065Y-191227706D01*
X59246067Y-191227707D01*
X59456598Y-191284119D01*
X59456600Y-191284119D01*
X59461913Y-191285543D01*
X59690000Y-191305498D01*
X59918087Y-191285543D01*
X59923398Y-191284120D01*
X59923409Y-191284118D01*
X59981541Y-191268541D01*
X60052517Y-191270230D01*
X60103248Y-191301152D01*
X62194343Y-193392247D01*
X62201887Y-193400537D01*
X62206000Y-193407018D01*
X62211777Y-193412443D01*
X62255667Y-193453658D01*
X62258509Y-193456413D01*
X62278230Y-193476134D01*
X62281425Y-193478612D01*
X62290447Y-193486318D01*
X62322679Y-193516586D01*
X62329628Y-193520406D01*
X62340432Y-193526346D01*
X62356956Y-193537199D01*
X62372959Y-193549613D01*
X62413543Y-193567176D01*
X62424173Y-193572383D01*
X62462940Y-193593695D01*
X62470617Y-193595666D01*
X62470622Y-193595668D01*
X62482558Y-193598732D01*
X62501266Y-193605137D01*
X62519855Y-193613181D01*
X62527680Y-193614420D01*
X62527682Y-193614421D01*
X62563519Y-193620097D01*
X62575140Y-193622504D01*
X62610289Y-193631528D01*
X62617970Y-193633500D01*
X62638231Y-193633500D01*
X62657940Y-193635051D01*
X62677943Y-193638219D01*
X62685835Y-193637473D01*
X62691062Y-193636979D01*
X62721954Y-193634059D01*
X62733811Y-193633500D01*
X62780606Y-193633500D01*
X62848727Y-193653502D01*
X62883819Y-193687229D01*
X62987779Y-193835699D01*
X62993802Y-193844300D01*
X63155700Y-194006198D01*
X63160208Y-194009355D01*
X63160211Y-194009357D01*
X63224791Y-194054576D01*
X63343251Y-194137523D01*
X63348233Y-194139846D01*
X63348238Y-194139849D01*
X63544765Y-194231490D01*
X63550757Y-194234284D01*
X63556065Y-194235706D01*
X63556067Y-194235707D01*
X63766598Y-194292119D01*
X63766600Y-194292119D01*
X63771913Y-194293543D01*
X64000000Y-194313498D01*
X64228087Y-194293543D01*
X64233400Y-194292119D01*
X64233402Y-194292119D01*
X64443933Y-194235707D01*
X64443935Y-194235706D01*
X64449243Y-194234284D01*
X64455235Y-194231490D01*
X64651762Y-194139849D01*
X64651767Y-194139846D01*
X64656749Y-194137523D01*
X64775209Y-194054576D01*
X64839789Y-194009357D01*
X64839792Y-194009355D01*
X64844300Y-194006198D01*
X65006198Y-193844300D01*
X65013877Y-193833334D01*
X65090811Y-193723460D01*
X65137523Y-193656749D01*
X65139846Y-193651767D01*
X65139849Y-193651762D01*
X65231961Y-193454225D01*
X65231961Y-193454224D01*
X65234284Y-193449243D01*
X65245459Y-193407540D01*
X65283245Y-193266522D01*
X70337273Y-193266522D01*
X70384764Y-193443761D01*
X70388510Y-193454053D01*
X70480586Y-193651511D01*
X70486069Y-193661007D01*
X70611028Y-193839467D01*
X70618084Y-193847875D01*
X70772125Y-194001916D01*
X70780533Y-194008972D01*
X70958993Y-194133931D01*
X70968489Y-194139414D01*
X71165947Y-194231490D01*
X71176239Y-194235236D01*
X71348503Y-194281394D01*
X71362599Y-194281058D01*
X71366000Y-194273116D01*
X71366000Y-194267967D01*
X71874000Y-194267967D01*
X71877973Y-194281498D01*
X71886522Y-194282727D01*
X72063761Y-194235236D01*
X72074053Y-194231490D01*
X72271511Y-194139414D01*
X72281007Y-194133931D01*
X72459467Y-194008972D01*
X72467875Y-194001916D01*
X72621916Y-193847875D01*
X72628972Y-193839467D01*
X72753931Y-193661007D01*
X72759414Y-193651511D01*
X72851490Y-193454053D01*
X72855236Y-193443761D01*
X72901394Y-193271497D01*
X72901058Y-193257401D01*
X72893116Y-193254000D01*
X71892115Y-193254000D01*
X71876876Y-193258475D01*
X71875671Y-193259865D01*
X71874000Y-193267548D01*
X71874000Y-194267967D01*
X71366000Y-194267967D01*
X71366000Y-193272115D01*
X71361525Y-193256876D01*
X71360135Y-193255671D01*
X71352452Y-193254000D01*
X70352033Y-193254000D01*
X70338502Y-193257973D01*
X70337273Y-193266522D01*
X65283245Y-193266522D01*
X65292119Y-193233402D01*
X65292119Y-193233400D01*
X65293543Y-193228087D01*
X65313498Y-193000000D01*
X65293543Y-192771913D01*
X65291940Y-192765929D01*
X65281912Y-192728503D01*
X70338606Y-192728503D01*
X70338942Y-192742599D01*
X70346884Y-192746000D01*
X71347885Y-192746000D01*
X71363124Y-192741525D01*
X71364329Y-192740135D01*
X71366000Y-192732452D01*
X71366000Y-192727885D01*
X71874000Y-192727885D01*
X71878475Y-192743124D01*
X71879865Y-192744329D01*
X71887548Y-192746000D01*
X72887967Y-192746000D01*
X72901498Y-192742027D01*
X72902727Y-192733478D01*
X72855236Y-192556239D01*
X72851490Y-192545947D01*
X72759414Y-192348489D01*
X72753931Y-192338993D01*
X72628972Y-192160533D01*
X72621916Y-192152125D01*
X72467875Y-191998084D01*
X72459467Y-191991028D01*
X72281007Y-191866069D01*
X72271511Y-191860586D01*
X72074053Y-191768510D01*
X72063761Y-191764764D01*
X71891497Y-191718606D01*
X71877401Y-191718942D01*
X71874000Y-191726884D01*
X71874000Y-192727885D01*
X71366000Y-192727885D01*
X71366000Y-191732033D01*
X71362027Y-191718502D01*
X71353478Y-191717273D01*
X71176239Y-191764764D01*
X71165947Y-191768510D01*
X70968489Y-191860586D01*
X70958993Y-191866069D01*
X70780533Y-191991028D01*
X70772125Y-191998084D01*
X70618084Y-192152125D01*
X70611028Y-192160533D01*
X70486069Y-192338993D01*
X70480586Y-192348489D01*
X70388510Y-192545947D01*
X70384764Y-192556239D01*
X70338606Y-192728503D01*
X65281912Y-192728503D01*
X65235707Y-192556067D01*
X65235706Y-192556065D01*
X65234284Y-192550757D01*
X65222985Y-192526525D01*
X65139849Y-192348238D01*
X65139846Y-192348233D01*
X65137523Y-192343251D01*
X65051679Y-192220653D01*
X65009357Y-192160211D01*
X65009352Y-192160205D01*
X65006198Y-192155700D01*
X64844300Y-191993802D01*
X64839792Y-191990645D01*
X64839789Y-191990643D01*
X64729507Y-191913423D01*
X64656749Y-191862477D01*
X64651767Y-191860154D01*
X64651762Y-191860151D01*
X64454225Y-191768039D01*
X64454224Y-191768039D01*
X64449243Y-191765716D01*
X64443935Y-191764294D01*
X64443933Y-191764293D01*
X64233402Y-191707881D01*
X64233400Y-191707881D01*
X64228087Y-191706457D01*
X64000000Y-191686502D01*
X63771913Y-191706457D01*
X63766600Y-191707881D01*
X63766598Y-191707881D01*
X63556067Y-191764293D01*
X63556065Y-191764294D01*
X63550757Y-191765716D01*
X63545776Y-191768039D01*
X63545775Y-191768039D01*
X63348238Y-191860151D01*
X63348233Y-191860154D01*
X63343251Y-191862477D01*
X63270493Y-191913423D01*
X63160211Y-191990643D01*
X63160208Y-191990645D01*
X63155700Y-191993802D01*
X62993802Y-192155700D01*
X62979360Y-192176326D01*
X62923902Y-192220653D01*
X62853282Y-192227961D01*
X62787053Y-192193148D01*
X61671967Y-191078062D01*
X63968493Y-191078062D01*
X63977789Y-191090077D01*
X64028994Y-191125931D01*
X64038489Y-191131414D01*
X64235947Y-191223490D01*
X64246239Y-191227236D01*
X64456688Y-191283625D01*
X64467481Y-191285528D01*
X64684525Y-191304517D01*
X64695475Y-191304517D01*
X64912519Y-191285528D01*
X64923312Y-191283625D01*
X65133761Y-191227236D01*
X65144053Y-191223490D01*
X65341511Y-191131414D01*
X65351006Y-191125931D01*
X65403048Y-191089491D01*
X65411424Y-191079012D01*
X65404356Y-191065566D01*
X64702812Y-190364022D01*
X64688868Y-190356408D01*
X64687035Y-190356539D01*
X64680420Y-190360790D01*
X63974923Y-191066287D01*
X63968493Y-191078062D01*
X61671967Y-191078062D01*
X60999152Y-190405247D01*
X60965126Y-190342935D01*
X60966540Y-190283541D01*
X60970387Y-190269183D01*
X60983543Y-190220087D01*
X61003019Y-189997475D01*
X63377483Y-189997475D01*
X63396472Y-190214519D01*
X63398375Y-190225312D01*
X63454764Y-190435761D01*
X63458510Y-190446053D01*
X63550586Y-190643511D01*
X63556069Y-190653006D01*
X63592509Y-190705048D01*
X63602988Y-190713424D01*
X63616434Y-190706356D01*
X64317978Y-190004812D01*
X64324356Y-189993132D01*
X65054408Y-189993132D01*
X65054539Y-189994965D01*
X65058790Y-190001580D01*
X65764287Y-190707077D01*
X65776062Y-190713507D01*
X65788077Y-190704211D01*
X65823931Y-190653006D01*
X65829414Y-190643511D01*
X65921490Y-190446053D01*
X65925236Y-190435761D01*
X65981625Y-190225312D01*
X65983528Y-190214519D01*
X66002517Y-189997475D01*
X66002517Y-189986525D01*
X65983528Y-189769481D01*
X65981625Y-189758688D01*
X65925236Y-189548239D01*
X65921490Y-189537947D01*
X65829414Y-189340489D01*
X65823931Y-189330994D01*
X65787491Y-189278952D01*
X65777012Y-189270576D01*
X65763566Y-189277644D01*
X65062022Y-189979188D01*
X65054408Y-189993132D01*
X64324356Y-189993132D01*
X64325592Y-189990868D01*
X64325461Y-189989035D01*
X64321210Y-189982420D01*
X63615713Y-189276923D01*
X63603938Y-189270493D01*
X63591923Y-189279789D01*
X63556069Y-189330994D01*
X63550586Y-189340489D01*
X63458510Y-189537947D01*
X63454764Y-189548239D01*
X63398375Y-189758688D01*
X63396472Y-189769481D01*
X63377483Y-189986525D01*
X63377483Y-189997475D01*
X61003019Y-189997475D01*
X61003498Y-189992000D01*
X60983543Y-189763913D01*
X60969563Y-189711738D01*
X60925707Y-189548067D01*
X60925706Y-189548065D01*
X60924284Y-189542757D01*
X60915617Y-189524171D01*
X60829849Y-189340238D01*
X60829846Y-189340233D01*
X60827523Y-189335251D01*
X60745764Y-189218488D01*
X60699357Y-189152211D01*
X60699355Y-189152208D01*
X60696198Y-189147700D01*
X60534300Y-188985802D01*
X60529792Y-188982645D01*
X60529789Y-188982643D01*
X60437059Y-188917713D01*
X60418886Y-188904988D01*
X63968576Y-188904988D01*
X63975644Y-188918434D01*
X64677188Y-189619978D01*
X64691132Y-189627592D01*
X64692965Y-189627461D01*
X64699580Y-189623210D01*
X65405077Y-188917713D01*
X65411507Y-188905938D01*
X65402211Y-188893923D01*
X65351006Y-188858069D01*
X65341511Y-188852586D01*
X65144053Y-188760510D01*
X65133761Y-188756764D01*
X64923312Y-188700375D01*
X64912519Y-188698472D01*
X64695475Y-188679483D01*
X64684525Y-188679483D01*
X64467481Y-188698472D01*
X64456688Y-188700375D01*
X64246239Y-188756764D01*
X64235947Y-188760510D01*
X64038489Y-188852586D01*
X64028994Y-188858069D01*
X63976952Y-188894509D01*
X63968576Y-188904988D01*
X60418886Y-188904988D01*
X60346749Y-188854477D01*
X60341767Y-188852154D01*
X60341762Y-188852151D01*
X60144225Y-188760039D01*
X60144224Y-188760039D01*
X60139243Y-188757716D01*
X60133935Y-188756294D01*
X60133933Y-188756293D01*
X59923402Y-188699881D01*
X59923400Y-188699881D01*
X59918087Y-188698457D01*
X59690000Y-188678502D01*
X59461913Y-188698457D01*
X59456600Y-188699881D01*
X59456598Y-188699881D01*
X59246067Y-188756293D01*
X59246065Y-188756294D01*
X59240757Y-188757716D01*
X59235776Y-188760039D01*
X59235775Y-188760039D01*
X59038238Y-188852151D01*
X59038233Y-188852154D01*
X59033251Y-188854477D01*
X58942941Y-188917713D01*
X58850211Y-188982643D01*
X58850208Y-188982645D01*
X58845700Y-188985802D01*
X58683802Y-189147700D01*
X58680645Y-189152208D01*
X58680643Y-189152211D01*
X58634236Y-189218488D01*
X58552477Y-189335251D01*
X58550154Y-189340233D01*
X58550151Y-189340238D01*
X58457118Y-189539750D01*
X58410201Y-189593035D01*
X58342923Y-189612500D01*
X57739315Y-189612500D01*
X57671194Y-189592498D01*
X57636102Y-189558770D01*
X57606713Y-189516798D01*
X57571301Y-189466224D01*
X57421776Y-189316699D01*
X57248558Y-189195411D01*
X57243580Y-189193090D01*
X57243577Y-189193088D01*
X57061892Y-189108367D01*
X57061891Y-189108366D01*
X57056910Y-189106044D01*
X57051602Y-189104622D01*
X57051600Y-189104621D01*
X56857970Y-189052738D01*
X56857968Y-189052738D01*
X56852655Y-189051314D01*
X56642000Y-189032884D01*
X56636525Y-189033363D01*
X56436816Y-189050835D01*
X56436812Y-189050836D01*
X56431345Y-189051314D01*
X56426039Y-189052736D01*
X56421439Y-189053547D01*
X56350879Y-189045679D01*
X56310462Y-189018557D01*
X55652097Y-188360192D01*
X55241966Y-187950062D01*
X66588493Y-187950062D01*
X66597789Y-187962077D01*
X66648994Y-187997931D01*
X66658489Y-188003414D01*
X66855947Y-188095490D01*
X66866239Y-188099236D01*
X67076688Y-188155625D01*
X67087481Y-188157528D01*
X67304525Y-188176517D01*
X67315475Y-188176517D01*
X67532519Y-188157528D01*
X67543312Y-188155625D01*
X67753761Y-188099236D01*
X67764053Y-188095490D01*
X67961511Y-188003414D01*
X67971006Y-187997931D01*
X68023048Y-187961491D01*
X68031424Y-187951012D01*
X68024356Y-187937566D01*
X67322812Y-187236022D01*
X67308868Y-187228408D01*
X67307035Y-187228539D01*
X67300420Y-187232790D01*
X66594923Y-187938287D01*
X66588493Y-187950062D01*
X55241966Y-187950062D01*
X54992999Y-187701095D01*
X54958974Y-187638783D01*
X54964038Y-187567968D01*
X54992999Y-187522905D01*
X55586752Y-186929152D01*
X55649064Y-186895126D01*
X55708459Y-186896541D01*
X55766591Y-186912118D01*
X55766602Y-186912120D01*
X55771913Y-186913543D01*
X56000000Y-186933498D01*
X56228087Y-186913543D01*
X56233400Y-186912119D01*
X56233402Y-186912119D01*
X56443933Y-186855707D01*
X56443935Y-186855706D01*
X56449243Y-186854284D01*
X56455235Y-186851490D01*
X56651762Y-186759849D01*
X56651767Y-186759846D01*
X56656749Y-186757523D01*
X56802861Y-186655214D01*
X56839789Y-186629357D01*
X56839792Y-186629355D01*
X56844300Y-186626198D01*
X57006198Y-186464300D01*
X57030874Y-186429060D01*
X57070726Y-186372145D01*
X57137523Y-186276749D01*
X57139846Y-186271767D01*
X57139849Y-186271762D01*
X57231961Y-186074225D01*
X57231961Y-186074224D01*
X57234284Y-186069243D01*
X57248292Y-186016967D01*
X57283245Y-185886522D01*
X62337273Y-185886522D01*
X62384764Y-186063761D01*
X62388510Y-186074053D01*
X62480586Y-186271511D01*
X62486069Y-186281007D01*
X62611028Y-186459467D01*
X62618084Y-186467875D01*
X62772125Y-186621916D01*
X62780533Y-186628972D01*
X62958993Y-186753931D01*
X62968489Y-186759414D01*
X63165947Y-186851490D01*
X63176239Y-186855236D01*
X63348503Y-186901394D01*
X63362599Y-186901058D01*
X63366000Y-186893116D01*
X63366000Y-186887967D01*
X63874000Y-186887967D01*
X63877973Y-186901498D01*
X63886522Y-186902727D01*
X64010620Y-186869475D01*
X65997483Y-186869475D01*
X66016472Y-187086519D01*
X66018375Y-187097312D01*
X66074764Y-187307761D01*
X66078510Y-187318053D01*
X66170586Y-187515511D01*
X66176069Y-187525006D01*
X66212509Y-187577048D01*
X66222988Y-187585424D01*
X66236434Y-187578356D01*
X66937978Y-186876812D01*
X66944356Y-186865132D01*
X67674408Y-186865132D01*
X67674539Y-186866965D01*
X67678790Y-186873580D01*
X68384287Y-187579077D01*
X68396062Y-187585507D01*
X68408077Y-187576211D01*
X68443931Y-187525006D01*
X68449414Y-187515511D01*
X68541490Y-187318053D01*
X68545236Y-187307761D01*
X68601625Y-187097312D01*
X68603528Y-187086519D01*
X68622517Y-186869475D01*
X68622517Y-186858525D01*
X68603528Y-186641481D01*
X68601625Y-186630688D01*
X68545236Y-186420239D01*
X68541490Y-186409947D01*
X68449414Y-186212489D01*
X68443931Y-186202994D01*
X68407491Y-186150952D01*
X68397012Y-186142576D01*
X68383566Y-186149644D01*
X67682022Y-186851188D01*
X67674408Y-186865132D01*
X66944356Y-186865132D01*
X66945592Y-186862868D01*
X66945461Y-186861035D01*
X66941210Y-186854420D01*
X66235713Y-186148923D01*
X66223938Y-186142493D01*
X66211923Y-186151789D01*
X66176069Y-186202994D01*
X66170586Y-186212489D01*
X66078510Y-186409947D01*
X66074764Y-186420239D01*
X66018375Y-186630688D01*
X66016472Y-186641481D01*
X65997483Y-186858525D01*
X65997483Y-186869475D01*
X64010620Y-186869475D01*
X64063761Y-186855236D01*
X64074053Y-186851490D01*
X64271511Y-186759414D01*
X64281007Y-186753931D01*
X64459467Y-186628972D01*
X64467875Y-186621916D01*
X64621916Y-186467875D01*
X64628972Y-186459467D01*
X64753931Y-186281007D01*
X64759414Y-186271511D01*
X64851490Y-186074053D01*
X64855236Y-186063761D01*
X64901394Y-185891497D01*
X64901058Y-185877401D01*
X64893116Y-185874000D01*
X63892115Y-185874000D01*
X63876876Y-185878475D01*
X63875671Y-185879865D01*
X63874000Y-185887548D01*
X63874000Y-186887967D01*
X63366000Y-186887967D01*
X63366000Y-185892115D01*
X63361525Y-185876876D01*
X63360135Y-185875671D01*
X63352452Y-185874000D01*
X62352033Y-185874000D01*
X62338502Y-185877973D01*
X62337273Y-185886522D01*
X57283245Y-185886522D01*
X57292119Y-185853402D01*
X57292120Y-185853398D01*
X57293543Y-185848087D01*
X57313498Y-185620000D01*
X57293543Y-185391913D01*
X57284205Y-185357063D01*
X57235707Y-185176067D01*
X57235706Y-185176065D01*
X57234284Y-185170757D01*
X57139966Y-184968489D01*
X57139849Y-184968238D01*
X57139846Y-184968233D01*
X57137523Y-184963251D01*
X57006198Y-184775700D01*
X56844300Y-184613802D01*
X56839792Y-184610645D01*
X56839789Y-184610643D01*
X56761611Y-184555902D01*
X56656749Y-184482477D01*
X56651767Y-184480154D01*
X56651762Y-184480151D01*
X56617543Y-184464195D01*
X56564258Y-184417278D01*
X56544797Y-184349001D01*
X56565339Y-184281041D01*
X56617543Y-184235805D01*
X56651762Y-184219849D01*
X56651767Y-184219846D01*
X56656749Y-184217523D01*
X56768915Y-184138983D01*
X56839789Y-184089357D01*
X56839792Y-184089355D01*
X56844300Y-184086198D01*
X57006198Y-183924300D01*
X57137523Y-183736749D01*
X57139846Y-183731767D01*
X57139849Y-183731762D01*
X57231961Y-183534225D01*
X57231961Y-183534224D01*
X57234284Y-183529243D01*
X57246157Y-183484935D01*
X57292119Y-183313402D01*
X57292119Y-183313400D01*
X57293543Y-183308087D01*
X57313498Y-183080000D01*
X57293543Y-182851913D01*
X57282014Y-182808887D01*
X57235707Y-182636067D01*
X57235706Y-182636065D01*
X57234284Y-182630757D01*
X57220591Y-182601392D01*
X57139849Y-182428238D01*
X57139846Y-182428233D01*
X57137523Y-182423251D01*
X57019882Y-182255243D01*
X57009357Y-182240211D01*
X57009355Y-182240208D01*
X57006198Y-182235700D01*
X56844300Y-182073802D01*
X56839792Y-182070645D01*
X56839789Y-182070643D01*
X56735614Y-181997699D01*
X56656749Y-181942477D01*
X56651767Y-181940154D01*
X56651762Y-181940151D01*
X56617543Y-181924195D01*
X56564258Y-181877278D01*
X56544797Y-181809001D01*
X56565339Y-181741041D01*
X56617543Y-181695805D01*
X56651762Y-181679849D01*
X56651767Y-181679846D01*
X56656749Y-181677523D01*
X56821810Y-181561946D01*
X56839789Y-181549357D01*
X56839792Y-181549355D01*
X56844300Y-181546198D01*
X57006198Y-181384300D01*
X57022477Y-181361052D01*
X57090068Y-181264522D01*
X57137523Y-181196749D01*
X57139846Y-181191767D01*
X57139849Y-181191762D01*
X57231961Y-180994225D01*
X57231961Y-180994224D01*
X57234284Y-180989243D01*
X57277301Y-180828705D01*
X57292119Y-180773402D01*
X57292119Y-180773400D01*
X57293543Y-180768087D01*
X57313498Y-180540000D01*
X57293543Y-180311913D01*
X57279330Y-180258868D01*
X57235707Y-180096067D01*
X57235706Y-180096065D01*
X57234284Y-180090757D01*
X57220591Y-180061392D01*
X57139849Y-179888238D01*
X57139846Y-179888233D01*
X57137523Y-179883251D01*
X57059097Y-179771248D01*
X57009357Y-179700211D01*
X57009355Y-179700208D01*
X57006198Y-179695700D01*
X56844300Y-179533802D01*
X56839789Y-179530643D01*
X56835576Y-179527108D01*
X56836527Y-179525974D01*
X56796529Y-179475929D01*
X56789224Y-179405310D01*
X56821258Y-179341951D01*
X56882462Y-179305970D01*
X56899517Y-179302918D01*
X56910316Y-179301745D01*
X57046705Y-179250615D01*
X57163261Y-179163261D01*
X57250615Y-179046705D01*
X57301745Y-178910316D01*
X57308500Y-178848134D01*
X57308500Y-177151866D01*
X57301745Y-177089684D01*
X57250615Y-176953295D01*
X57163261Y-176836739D01*
X57046705Y-176749385D01*
X57038296Y-176746233D01*
X57038295Y-176746232D01*
X56938883Y-176708964D01*
X56882118Y-176666323D01*
X56857418Y-176599761D01*
X56872625Y-176530412D01*
X56894017Y-176501887D01*
X60276405Y-173119499D01*
X60338717Y-173085473D01*
X60409532Y-173090538D01*
X60466368Y-173133085D01*
X60491179Y-173199605D01*
X60491500Y-173208594D01*
X60491500Y-173650400D01*
X60491837Y-173653646D01*
X60491837Y-173653650D01*
X60497317Y-173706461D01*
X60502474Y-173756166D01*
X60504655Y-173762702D01*
X60504655Y-173762704D01*
X60531713Y-173843807D01*
X60558450Y-173923946D01*
X60651522Y-174074348D01*
X60656704Y-174079521D01*
X60691307Y-174114064D01*
X60776697Y-174199305D01*
X60782927Y-174203145D01*
X60782928Y-174203146D01*
X60902115Y-174276614D01*
X60927262Y-174292115D01*
X60998074Y-174315602D01*
X61088611Y-174345632D01*
X61088613Y-174345632D01*
X61095139Y-174347797D01*
X61101975Y-174348497D01*
X61101978Y-174348498D01*
X61145031Y-174352909D01*
X61199600Y-174358500D01*
X62410405Y-174358500D01*
X62478526Y-174378502D01*
X62499500Y-174395405D01*
X62949595Y-174845500D01*
X62983621Y-174907812D01*
X62986500Y-174934595D01*
X62986500Y-176780606D01*
X62966498Y-176848727D01*
X62932771Y-176883819D01*
X62780211Y-176990643D01*
X62780208Y-176990645D01*
X62775700Y-176993802D01*
X62613802Y-177155700D01*
X62610645Y-177160208D01*
X62610643Y-177160211D01*
X62589916Y-177189812D01*
X62482477Y-177343251D01*
X62480154Y-177348233D01*
X62480151Y-177348238D01*
X62394525Y-177531865D01*
X62385716Y-177550757D01*
X62326457Y-177771913D01*
X62306502Y-178000000D01*
X62326457Y-178228087D01*
X62327881Y-178233400D01*
X62327881Y-178233402D01*
X62359170Y-178350171D01*
X62385716Y-178449243D01*
X62388039Y-178454224D01*
X62388039Y-178454225D01*
X62480151Y-178651762D01*
X62480154Y-178651767D01*
X62482477Y-178656749D01*
X62543820Y-178744355D01*
X62607497Y-178835295D01*
X62613802Y-178844300D01*
X62775700Y-179006198D01*
X62780208Y-179009355D01*
X62780211Y-179009357D01*
X62810362Y-179030469D01*
X62963251Y-179137523D01*
X62968233Y-179139846D01*
X62968238Y-179139849D01*
X63002457Y-179155805D01*
X63055742Y-179202722D01*
X63075203Y-179270999D01*
X63054661Y-179338959D01*
X63002457Y-179384195D01*
X62968238Y-179400151D01*
X62968233Y-179400154D01*
X62963251Y-179402477D01*
X62879613Y-179461041D01*
X62780211Y-179530643D01*
X62780208Y-179530645D01*
X62775700Y-179533802D01*
X62613802Y-179695700D01*
X62610645Y-179700208D01*
X62610643Y-179700211D01*
X62560903Y-179771248D01*
X62482477Y-179883251D01*
X62480154Y-179888233D01*
X62480151Y-179888238D01*
X62399409Y-180061392D01*
X62385716Y-180090757D01*
X62384294Y-180096065D01*
X62384293Y-180096067D01*
X62340670Y-180258868D01*
X62326457Y-180311913D01*
X62306502Y-180540000D01*
X62326457Y-180768087D01*
X62327881Y-180773400D01*
X62327881Y-180773402D01*
X62342700Y-180828705D01*
X62385716Y-180989243D01*
X62388039Y-180994224D01*
X62388039Y-180994225D01*
X62480151Y-181191762D01*
X62480154Y-181191767D01*
X62482477Y-181196749D01*
X62529932Y-181264522D01*
X62597524Y-181361052D01*
X62613802Y-181384300D01*
X62775700Y-181546198D01*
X62780208Y-181549355D01*
X62780211Y-181549357D01*
X62798190Y-181561946D01*
X62963251Y-181677523D01*
X62968233Y-181679846D01*
X62968238Y-181679849D01*
X63002457Y-181695805D01*
X63055742Y-181742722D01*
X63075203Y-181810999D01*
X63054661Y-181878959D01*
X63002457Y-181924195D01*
X62968238Y-181940151D01*
X62968233Y-181940154D01*
X62963251Y-181942477D01*
X62884386Y-181997699D01*
X62780211Y-182070643D01*
X62780208Y-182070645D01*
X62775700Y-182073802D01*
X62613802Y-182235700D01*
X62610645Y-182240208D01*
X62610643Y-182240211D01*
X62600118Y-182255243D01*
X62482477Y-182423251D01*
X62480154Y-182428233D01*
X62480151Y-182428238D01*
X62399409Y-182601392D01*
X62385716Y-182630757D01*
X62384294Y-182636065D01*
X62384293Y-182636067D01*
X62337986Y-182808887D01*
X62326457Y-182851913D01*
X62306502Y-183080000D01*
X62326457Y-183308087D01*
X62327881Y-183313400D01*
X62327881Y-183313402D01*
X62373844Y-183484935D01*
X62385716Y-183529243D01*
X62388039Y-183534224D01*
X62388039Y-183534225D01*
X62480151Y-183731762D01*
X62480154Y-183731767D01*
X62482477Y-183736749D01*
X62613802Y-183924300D01*
X62775700Y-184086198D01*
X62780208Y-184089355D01*
X62780211Y-184089357D01*
X62851085Y-184138983D01*
X62963251Y-184217523D01*
X62968233Y-184219846D01*
X62968238Y-184219849D01*
X63003049Y-184236081D01*
X63056334Y-184282998D01*
X63075795Y-184351275D01*
X63055253Y-184419235D01*
X63003049Y-184464471D01*
X62968489Y-184480586D01*
X62958993Y-184486069D01*
X62780533Y-184611028D01*
X62772125Y-184618084D01*
X62618084Y-184772125D01*
X62611028Y-184780533D01*
X62486069Y-184958993D01*
X62480586Y-184968489D01*
X62388510Y-185165947D01*
X62384764Y-185176239D01*
X62338606Y-185348503D01*
X62338942Y-185362599D01*
X62346884Y-185366000D01*
X64887967Y-185366000D01*
X64901498Y-185362027D01*
X64902727Y-185353478D01*
X64855236Y-185176239D01*
X64851490Y-185165947D01*
X64759414Y-184968489D01*
X64753931Y-184958993D01*
X64628972Y-184780533D01*
X64621916Y-184772125D01*
X64467875Y-184618084D01*
X64459467Y-184611028D01*
X64281007Y-184486069D01*
X64271511Y-184480586D01*
X64236951Y-184464471D01*
X64183666Y-184417554D01*
X64164205Y-184349277D01*
X64184747Y-184281317D01*
X64236951Y-184236081D01*
X64271762Y-184219849D01*
X64271767Y-184219846D01*
X64276749Y-184217523D01*
X64388915Y-184138983D01*
X64459789Y-184089357D01*
X64459792Y-184089355D01*
X64464300Y-184086198D01*
X64626198Y-183924300D01*
X64660408Y-183875443D01*
X64715866Y-183831115D01*
X64786486Y-183823807D01*
X64852716Y-183858620D01*
X65765898Y-184771803D01*
X66386348Y-185392253D01*
X66393888Y-185400539D01*
X66398000Y-185407018D01*
X66403777Y-185412443D01*
X66447651Y-185453643D01*
X66450493Y-185456398D01*
X66470230Y-185476135D01*
X66473427Y-185478615D01*
X66482447Y-185486318D01*
X66514679Y-185516586D01*
X66521625Y-185520405D01*
X66521628Y-185520407D01*
X66532434Y-185526348D01*
X66548953Y-185537199D01*
X66564959Y-185549614D01*
X66572230Y-185552761D01*
X66579057Y-185556798D01*
X66577936Y-185558694D01*
X66623838Y-185596884D01*
X66645201Y-185664590D01*
X66626568Y-185733098D01*
X66607349Y-185753501D01*
X66588576Y-185776988D01*
X66595644Y-185790434D01*
X67297188Y-186491978D01*
X67311132Y-186499592D01*
X67312965Y-186499461D01*
X67319580Y-186495210D01*
X68025077Y-185789713D01*
X68032692Y-185775768D01*
X68032171Y-185768488D01*
X68047263Y-185699114D01*
X68097465Y-185648912D01*
X68157850Y-185633500D01*
X70565500Y-185633500D01*
X70633621Y-185653502D01*
X70680114Y-185707158D01*
X70691500Y-185759500D01*
X70691500Y-185848134D01*
X70698255Y-185910316D01*
X70749385Y-186046705D01*
X70836739Y-186163261D01*
X70953295Y-186250615D01*
X71089684Y-186301745D01*
X71151866Y-186308500D01*
X72848134Y-186308500D01*
X72910316Y-186301745D01*
X73046705Y-186250615D01*
X73163261Y-186163261D01*
X73250615Y-186046705D01*
X73301745Y-185910316D01*
X73308500Y-185848134D01*
X73308500Y-184151866D01*
X73301745Y-184089684D01*
X73250615Y-183953295D01*
X73163261Y-183836739D01*
X73156081Y-183831358D01*
X73149731Y-183825008D01*
X73151971Y-183822768D01*
X73118829Y-183778435D01*
X73113810Y-183707616D01*
X73131949Y-183666210D01*
X73131617Y-183666019D01*
X73133339Y-183663036D01*
X73133705Y-183662201D01*
X73134368Y-183661255D01*
X73134369Y-183661254D01*
X73137523Y-183656749D01*
X73139846Y-183651767D01*
X73139849Y-183651762D01*
X73231961Y-183454225D01*
X73231961Y-183454224D01*
X73234284Y-183449243D01*
X73236608Y-183440572D01*
X73292119Y-183233402D01*
X73292119Y-183233400D01*
X73293543Y-183228087D01*
X73313498Y-183000000D01*
X73293543Y-182771913D01*
X73285028Y-182740135D01*
X73235707Y-182556067D01*
X73235706Y-182556065D01*
X73234284Y-182550757D01*
X73203311Y-182484334D01*
X73139849Y-182348238D01*
X73139846Y-182348233D01*
X73137523Y-182343251D01*
X73006198Y-182155700D01*
X72844300Y-181993802D01*
X72839792Y-181990645D01*
X72839789Y-181990643D01*
X72687229Y-181883819D01*
X72642901Y-181828362D01*
X72633500Y-181780606D01*
X72633500Y-176980767D01*
X72634027Y-176969584D01*
X72635702Y-176962091D01*
X72633562Y-176894000D01*
X72633500Y-176890043D01*
X72633500Y-176862144D01*
X72632996Y-176858153D01*
X72632063Y-176846311D01*
X72631763Y-176836739D01*
X72630674Y-176802111D01*
X72628462Y-176794497D01*
X72628461Y-176794492D01*
X72625023Y-176782659D01*
X72621012Y-176763295D01*
X72620613Y-176760132D01*
X72618474Y-176743203D01*
X72615557Y-176735836D01*
X72615556Y-176735831D01*
X72602198Y-176702092D01*
X72598354Y-176690865D01*
X72588230Y-176656022D01*
X72586018Y-176648407D01*
X72578624Y-176635905D01*
X72575707Y-176630972D01*
X72567012Y-176613224D01*
X72559552Y-176594383D01*
X72544448Y-176573593D01*
X72533564Y-176558613D01*
X72527048Y-176548693D01*
X72508580Y-176517465D01*
X72508578Y-176517462D01*
X72504542Y-176510638D01*
X72490221Y-176496317D01*
X72477380Y-176481283D01*
X72465472Y-176464893D01*
X72431395Y-176436702D01*
X72422616Y-176428712D01*
X70373652Y-174379747D01*
X70366112Y-174371461D01*
X70362000Y-174364982D01*
X70312348Y-174318356D01*
X70309507Y-174315602D01*
X70289770Y-174295865D01*
X70286573Y-174293385D01*
X70277550Y-174285679D01*
X70258425Y-174267719D01*
X70227487Y-174222152D01*
X70207185Y-174170744D01*
X70207184Y-174170742D01*
X70205224Y-174165779D01*
X70198503Y-174154702D01*
X70088390Y-173973243D01*
X70085623Y-173968683D01*
X70075954Y-173957540D01*
X69938023Y-173798588D01*
X69938021Y-173798586D01*
X69934523Y-173794555D01*
X69837989Y-173715402D01*
X69760373Y-173651760D01*
X69760367Y-173651756D01*
X69756245Y-173648376D01*
X69751609Y-173645737D01*
X69751606Y-173645735D01*
X69560529Y-173536968D01*
X69555886Y-173534325D01*
X69339175Y-173455663D01*
X69333926Y-173454714D01*
X69333923Y-173454713D01*
X69116392Y-173415377D01*
X69116385Y-173415376D01*
X69112308Y-173414639D01*
X69094221Y-173413786D01*
X69089644Y-173413570D01*
X69089637Y-173413570D01*
X69088156Y-173413500D01*
X68626110Y-173413500D01*
X68559191Y-173419178D01*
X68459591Y-173427629D01*
X68459587Y-173427630D01*
X68454280Y-173428080D01*
X68449125Y-173429418D01*
X68449119Y-173429419D01*
X68236297Y-173484657D01*
X68236293Y-173484658D01*
X68231128Y-173485999D01*
X68226262Y-173488191D01*
X68226259Y-173488192D01*
X68117980Y-173536968D01*
X68020925Y-173580688D01*
X67829681Y-173709441D01*
X67825824Y-173713120D01*
X67825822Y-173713122D01*
X67775066Y-173761541D01*
X67662865Y-173868576D01*
X67659682Y-173872854D01*
X67634251Y-173907035D01*
X67525246Y-174053542D01*
X67522830Y-174058293D01*
X67522828Y-174058297D01*
X67494475Y-174114064D01*
X67420760Y-174259051D01*
X67419178Y-174264145D01*
X67419177Y-174264148D01*
X67378421Y-174395405D01*
X67352393Y-174479227D01*
X67351692Y-174484516D01*
X67333799Y-174619523D01*
X67322102Y-174707774D01*
X67322302Y-174713103D01*
X67322302Y-174713105D01*
X67325232Y-174791152D01*
X67330751Y-174938158D01*
X67378093Y-175163791D01*
X67380051Y-175168750D01*
X67380052Y-175168752D01*
X67430620Y-175296796D01*
X67462776Y-175378221D01*
X67465543Y-175382780D01*
X67465544Y-175382783D01*
X67494868Y-175431107D01*
X67582377Y-175575317D01*
X67585874Y-175579347D01*
X67723310Y-175737728D01*
X67733477Y-175749445D01*
X67737608Y-175752832D01*
X67769529Y-175779006D01*
X67809524Y-175837666D01*
X67811455Y-175908636D01*
X67774710Y-175969384D01*
X67755941Y-175983584D01*
X67616193Y-176070063D01*
X67604792Y-176079099D01*
X67490261Y-176193829D01*
X67481249Y-176205240D01*
X67396184Y-176343243D01*
X67390037Y-176356424D01*
X67338862Y-176510710D01*
X67335995Y-176524086D01*
X67326328Y-176618438D01*
X67326000Y-176624855D01*
X67326000Y-176999885D01*
X67330475Y-177015124D01*
X67331865Y-177016329D01*
X67339548Y-177018000D01*
X70323884Y-177018000D01*
X70339123Y-177013525D01*
X70340328Y-177012135D01*
X70341999Y-177004452D01*
X70341999Y-176624905D01*
X70341662Y-176618386D01*
X70331743Y-176522794D01*
X70328850Y-176509397D01*
X70306295Y-176441788D01*
X70303711Y-176370839D01*
X70339895Y-176309755D01*
X70403360Y-176277931D01*
X70473955Y-176285470D01*
X70514911Y-176312815D01*
X71329597Y-177127502D01*
X71363621Y-177189812D01*
X71366500Y-177216595D01*
X71366500Y-181780606D01*
X71346498Y-181848727D01*
X71312771Y-181883819D01*
X71160211Y-181990643D01*
X71160208Y-181990645D01*
X71155700Y-181993802D01*
X70993802Y-182155700D01*
X70862477Y-182343251D01*
X70860154Y-182348233D01*
X70860151Y-182348238D01*
X70796689Y-182484334D01*
X70765716Y-182550757D01*
X70764294Y-182556065D01*
X70764293Y-182556067D01*
X70714972Y-182740135D01*
X70706457Y-182771913D01*
X70686502Y-183000000D01*
X70706457Y-183228087D01*
X70707881Y-183233400D01*
X70707881Y-183233402D01*
X70763393Y-183440572D01*
X70765716Y-183449243D01*
X70768039Y-183454224D01*
X70768039Y-183454225D01*
X70860151Y-183651762D01*
X70860154Y-183651767D01*
X70862477Y-183656749D01*
X70865631Y-183661254D01*
X70865632Y-183661255D01*
X70866295Y-183662201D01*
X70866459Y-183662686D01*
X70868383Y-183666019D01*
X70867713Y-183666406D01*
X70888988Y-183729474D01*
X70871707Y-183798335D01*
X70848998Y-183823737D01*
X70850269Y-183825008D01*
X70843919Y-183831358D01*
X70836739Y-183836739D01*
X70749385Y-183953295D01*
X70698255Y-184089684D01*
X70691500Y-184151866D01*
X70691500Y-184240500D01*
X70671498Y-184308621D01*
X70617842Y-184355114D01*
X70565500Y-184366500D01*
X67204594Y-184366500D01*
X67136473Y-184346498D01*
X67115499Y-184329595D01*
X66309838Y-183523933D01*
X65473652Y-182687747D01*
X65466112Y-182679461D01*
X65462000Y-182672982D01*
X65412348Y-182626356D01*
X65409507Y-182623602D01*
X65389770Y-182603865D01*
X65386573Y-182601385D01*
X65377551Y-182593680D01*
X65351100Y-182568841D01*
X65345321Y-182563414D01*
X65338375Y-182559595D01*
X65338372Y-182559593D01*
X65327566Y-182553652D01*
X65311047Y-182542801D01*
X65302660Y-182536296D01*
X65295041Y-182530386D01*
X65287772Y-182527241D01*
X65287768Y-182527238D01*
X65254463Y-182512826D01*
X65243813Y-182507609D01*
X65205060Y-182486305D01*
X65185437Y-182481267D01*
X65166734Y-182474863D01*
X65155420Y-182469967D01*
X65155419Y-182469967D01*
X65148145Y-182466819D01*
X65140322Y-182465580D01*
X65140312Y-182465577D01*
X65104476Y-182459901D01*
X65092856Y-182457495D01*
X65057711Y-182448472D01*
X65057710Y-182448472D01*
X65050030Y-182446500D01*
X65029776Y-182446500D01*
X65010065Y-182444949D01*
X64997886Y-182443020D01*
X64990057Y-182441780D01*
X64982165Y-182442526D01*
X64946039Y-182445941D01*
X64934181Y-182446500D01*
X64839394Y-182446500D01*
X64771273Y-182426498D01*
X64736181Y-182392771D01*
X64629357Y-182240211D01*
X64629355Y-182240208D01*
X64626198Y-182235700D01*
X64464300Y-182073802D01*
X64459792Y-182070645D01*
X64459789Y-182070643D01*
X64355614Y-181997699D01*
X64276749Y-181942477D01*
X64271767Y-181940154D01*
X64271762Y-181940151D01*
X64237543Y-181924195D01*
X64184258Y-181877278D01*
X64164797Y-181809001D01*
X64185339Y-181741041D01*
X64237543Y-181695805D01*
X64271762Y-181679849D01*
X64271767Y-181679846D01*
X64276749Y-181677523D01*
X64441810Y-181561946D01*
X64459789Y-181549357D01*
X64459792Y-181549355D01*
X64464300Y-181546198D01*
X64626198Y-181384300D01*
X64629357Y-181379789D01*
X64736181Y-181227229D01*
X64791638Y-181182901D01*
X64839394Y-181173500D01*
X65671406Y-181173500D01*
X65739527Y-181193502D01*
X65760501Y-181210405D01*
X66000848Y-181450752D01*
X66034874Y-181513064D01*
X66033459Y-181572459D01*
X66017882Y-181630591D01*
X66017881Y-181630598D01*
X66016457Y-181635913D01*
X65996502Y-181864000D01*
X66016457Y-182092087D01*
X66075716Y-182313243D01*
X66078039Y-182318224D01*
X66078039Y-182318225D01*
X66170151Y-182515762D01*
X66170154Y-182515767D01*
X66172477Y-182520749D01*
X66223544Y-182593680D01*
X66289411Y-182687747D01*
X66303802Y-182708300D01*
X66465700Y-182870198D01*
X66470208Y-182873355D01*
X66470211Y-182873357D01*
X66548389Y-182928098D01*
X66653251Y-183001523D01*
X66658233Y-183003846D01*
X66658238Y-183003849D01*
X66855775Y-183095961D01*
X66860757Y-183098284D01*
X66866065Y-183099706D01*
X66866067Y-183099707D01*
X67076598Y-183156119D01*
X67076600Y-183156119D01*
X67081913Y-183157543D01*
X67310000Y-183177498D01*
X67538087Y-183157543D01*
X67543400Y-183156119D01*
X67543402Y-183156119D01*
X67753933Y-183099707D01*
X67753935Y-183099706D01*
X67759243Y-183098284D01*
X67764225Y-183095961D01*
X67961762Y-183003849D01*
X67961767Y-183003846D01*
X67966749Y-183001523D01*
X68071611Y-182928098D01*
X68149789Y-182873357D01*
X68149792Y-182873355D01*
X68154300Y-182870198D01*
X68316198Y-182708300D01*
X68330590Y-182687747D01*
X68396456Y-182593680D01*
X68447523Y-182520749D01*
X68449846Y-182515767D01*
X68449849Y-182515762D01*
X68541961Y-182318225D01*
X68541961Y-182318224D01*
X68544284Y-182313243D01*
X68603543Y-182092087D01*
X68623498Y-181864000D01*
X68603543Y-181635913D01*
X68599051Y-181619148D01*
X68545707Y-181420067D01*
X68545706Y-181420065D01*
X68544284Y-181414757D01*
X68499965Y-181319713D01*
X68449849Y-181212238D01*
X68449846Y-181212233D01*
X68447523Y-181207251D01*
X68365773Y-181090500D01*
X68319357Y-181024211D01*
X68319355Y-181024208D01*
X68316198Y-181019700D01*
X68154300Y-180857802D01*
X68149792Y-180854645D01*
X68149789Y-180854643D01*
X68071611Y-180799902D01*
X67966749Y-180726477D01*
X67961767Y-180724154D01*
X67961762Y-180724151D01*
X67764225Y-180632039D01*
X67764224Y-180632039D01*
X67759243Y-180629716D01*
X67753935Y-180628294D01*
X67753933Y-180628293D01*
X67543402Y-180571881D01*
X67543400Y-180571881D01*
X67538087Y-180570457D01*
X67310000Y-180550502D01*
X67081913Y-180570457D01*
X67076608Y-180571879D01*
X67076594Y-180571881D01*
X67018461Y-180587459D01*
X66947484Y-180585771D01*
X66896752Y-180554848D01*
X66694675Y-180352770D01*
X66489647Y-180147742D01*
X66482113Y-180139463D01*
X66478000Y-180132982D01*
X66428348Y-180086356D01*
X66425507Y-180083602D01*
X66405770Y-180063865D01*
X66402573Y-180061385D01*
X66393551Y-180053680D01*
X66361321Y-180023414D01*
X66354375Y-180019595D01*
X66354372Y-180019593D01*
X66343566Y-180013652D01*
X66327047Y-180002801D01*
X66325056Y-180001257D01*
X66311041Y-179990386D01*
X66303772Y-179987241D01*
X66303768Y-179987238D01*
X66270463Y-179972826D01*
X66259813Y-179967609D01*
X66221060Y-179946305D01*
X66201437Y-179941267D01*
X66182734Y-179934863D01*
X66171420Y-179929967D01*
X66171419Y-179929967D01*
X66164145Y-179926819D01*
X66156322Y-179925580D01*
X66156312Y-179925577D01*
X66120476Y-179919901D01*
X66108856Y-179917495D01*
X66073711Y-179908472D01*
X66073710Y-179908472D01*
X66066030Y-179906500D01*
X66045776Y-179906500D01*
X66026065Y-179904949D01*
X66013886Y-179903020D01*
X66006057Y-179901780D01*
X65968323Y-179905347D01*
X65962039Y-179905941D01*
X65950181Y-179906500D01*
X65453595Y-179906500D01*
X65385474Y-179886498D01*
X65338981Y-179832842D01*
X65328877Y-179762568D01*
X65358371Y-179697988D01*
X65364500Y-179691405D01*
X65416253Y-179639652D01*
X65424539Y-179632112D01*
X65431018Y-179628000D01*
X65477644Y-179578348D01*
X65480398Y-179575507D01*
X65500135Y-179555770D01*
X65502615Y-179552573D01*
X65510320Y-179543551D01*
X65511981Y-179541782D01*
X65540586Y-179511321D01*
X65544405Y-179504375D01*
X65544407Y-179504372D01*
X65550348Y-179493566D01*
X65561199Y-179477047D01*
X65568758Y-179467301D01*
X65573614Y-179461041D01*
X65576759Y-179453772D01*
X65576762Y-179453768D01*
X65591174Y-179420463D01*
X65596391Y-179409813D01*
X65617695Y-179371060D01*
X65622733Y-179351437D01*
X65629137Y-179332734D01*
X65634033Y-179321420D01*
X65634033Y-179321419D01*
X65637181Y-179314145D01*
X65638420Y-179306322D01*
X65638423Y-179306312D01*
X65644099Y-179270476D01*
X65646505Y-179258856D01*
X65655528Y-179223711D01*
X65655528Y-179223710D01*
X65657500Y-179216030D01*
X65657500Y-179195776D01*
X65659051Y-179176065D01*
X65660980Y-179163886D01*
X65662220Y-179156057D01*
X65658059Y-179112038D01*
X65657500Y-179100181D01*
X65657500Y-177919095D01*
X67326001Y-177919095D01*
X67326338Y-177925614D01*
X67336257Y-178021206D01*
X67339149Y-178034600D01*
X67390588Y-178188784D01*
X67396761Y-178201962D01*
X67482063Y-178339807D01*
X67491099Y-178351208D01*
X67605829Y-178465739D01*
X67617240Y-178474751D01*
X67755243Y-178559816D01*
X67768424Y-178565963D01*
X67922710Y-178617138D01*
X67936086Y-178620005D01*
X68030438Y-178629672D01*
X68036854Y-178630000D01*
X68561885Y-178630000D01*
X68577124Y-178625525D01*
X68578329Y-178624135D01*
X68580000Y-178616452D01*
X68580000Y-178611884D01*
X69088000Y-178611884D01*
X69092475Y-178627123D01*
X69093865Y-178628328D01*
X69101548Y-178629999D01*
X69631095Y-178629999D01*
X69637614Y-178629662D01*
X69733206Y-178619743D01*
X69746600Y-178616851D01*
X69900784Y-178565412D01*
X69913962Y-178559239D01*
X70051807Y-178473937D01*
X70063208Y-178464901D01*
X70177739Y-178350171D01*
X70186751Y-178338760D01*
X70271816Y-178200757D01*
X70277963Y-178187576D01*
X70329138Y-178033290D01*
X70332005Y-178019914D01*
X70341672Y-177925562D01*
X70342000Y-177919146D01*
X70342000Y-177544115D01*
X70337525Y-177528876D01*
X70336135Y-177527671D01*
X70328452Y-177526000D01*
X69106115Y-177526000D01*
X69090876Y-177530475D01*
X69089671Y-177531865D01*
X69088000Y-177539548D01*
X69088000Y-178611884D01*
X68580000Y-178611884D01*
X68580000Y-177544115D01*
X68575525Y-177528876D01*
X68574135Y-177527671D01*
X68566452Y-177526000D01*
X67344116Y-177526000D01*
X67328877Y-177530475D01*
X67327672Y-177531865D01*
X67326001Y-177539548D01*
X67326001Y-177919095D01*
X65657500Y-177919095D01*
X65657500Y-167464767D01*
X65658027Y-167453584D01*
X65659702Y-167446091D01*
X65657562Y-167378000D01*
X65657500Y-167374043D01*
X65657500Y-167346144D01*
X65656996Y-167342153D01*
X65656063Y-167330311D01*
X65654923Y-167294036D01*
X65654674Y-167286111D01*
X65652462Y-167278497D01*
X65652461Y-167278492D01*
X65649023Y-167266659D01*
X65645012Y-167247295D01*
X65643467Y-167235064D01*
X65642474Y-167227203D01*
X65639557Y-167219836D01*
X65639556Y-167219831D01*
X65626198Y-167186092D01*
X65622354Y-167174865D01*
X65613210Y-167143394D01*
X65610018Y-167132407D01*
X65599707Y-167114972D01*
X65591012Y-167097224D01*
X65583552Y-167078383D01*
X65566256Y-167054576D01*
X65557564Y-167042613D01*
X65551048Y-167032693D01*
X65532580Y-167001465D01*
X65532578Y-167001462D01*
X65528542Y-166994638D01*
X65514221Y-166980317D01*
X65501380Y-166965283D01*
X65494131Y-166955306D01*
X65489472Y-166948893D01*
X65455395Y-166920702D01*
X65446616Y-166912712D01*
X64219443Y-165685538D01*
X64185417Y-165623226D01*
X64184453Y-165574561D01*
X64185264Y-165569961D01*
X64186686Y-165564655D01*
X64187166Y-165559175D01*
X64204637Y-165359475D01*
X64205116Y-165354000D01*
X64186686Y-165143345D01*
X64185262Y-165138030D01*
X64133379Y-164944400D01*
X64133378Y-164944398D01*
X64131956Y-164939090D01*
X64119987Y-164913423D01*
X64044912Y-164752423D01*
X64044910Y-164752420D01*
X64042589Y-164747442D01*
X63921301Y-164574224D01*
X63771776Y-164424699D01*
X63598558Y-164303411D01*
X63593580Y-164301090D01*
X63593577Y-164301088D01*
X63411892Y-164216367D01*
X63411891Y-164216366D01*
X63406910Y-164214044D01*
X63401602Y-164212622D01*
X63401600Y-164212621D01*
X63207970Y-164160738D01*
X63207968Y-164160738D01*
X63202655Y-164159314D01*
X62992000Y-164140884D01*
X62781345Y-164159314D01*
X62776032Y-164160738D01*
X62776030Y-164160738D01*
X62582400Y-164212621D01*
X62582398Y-164212622D01*
X62577090Y-164214044D01*
X62572109Y-164216366D01*
X62572108Y-164216367D01*
X62390423Y-164301088D01*
X62390420Y-164301090D01*
X62385442Y-164303411D01*
X62212224Y-164424699D01*
X62062699Y-164574224D01*
X61941411Y-164747442D01*
X61939090Y-164752420D01*
X61939088Y-164752423D01*
X61864013Y-164913423D01*
X61852044Y-164939090D01*
X61850622Y-164944398D01*
X61850621Y-164944400D01*
X61798738Y-165138030D01*
X61797314Y-165143345D01*
X61778884Y-165354000D01*
X61779363Y-165359475D01*
X61796835Y-165559175D01*
X61797314Y-165564655D01*
X61798736Y-165569961D01*
X61799547Y-165574561D01*
X61791679Y-165645121D01*
X61764557Y-165685538D01*
X57940500Y-169509595D01*
X57878188Y-169543621D01*
X57851405Y-169546500D01*
X57649596Y-169546500D01*
X57581475Y-169526498D01*
X57534982Y-169472842D01*
X57524878Y-169402568D01*
X57554372Y-169337988D01*
X57599856Y-169304733D01*
X57603493Y-169303170D01*
X57610263Y-169299765D01*
X57886042Y-169139580D01*
X57892349Y-169135390D01*
X58102305Y-168976889D01*
X58110761Y-168965496D01*
X58104045Y-168953256D01*
X56400810Y-167250020D01*
X56386869Y-167242408D01*
X56385034Y-167242539D01*
X56378420Y-167246790D01*
X54673818Y-168951393D01*
X54666703Y-168964423D01*
X54674227Y-168974854D01*
X54813483Y-169087020D01*
X54819657Y-169091408D01*
X55090271Y-169260178D01*
X55096937Y-169263797D01*
X55187988Y-169306352D01*
X55241233Y-169353315D01*
X55260634Y-169421609D01*
X55240033Y-169489551D01*
X55185970Y-169535570D01*
X55134639Y-169546500D01*
X50094500Y-169546500D01*
X50026379Y-169526498D01*
X49979886Y-169472842D01*
X49968500Y-169420500D01*
X49968500Y-167661866D01*
X49961745Y-167599684D01*
X49910615Y-167463295D01*
X49823261Y-167346739D01*
X49706705Y-167259385D01*
X49570316Y-167208255D01*
X49508134Y-167201500D01*
X47499594Y-167201500D01*
X47431473Y-167181498D01*
X47410499Y-167164595D01*
X47099287Y-166853383D01*
X53675388Y-166853383D01*
X53691245Y-167171914D01*
X53692076Y-167179443D01*
X53746085Y-167493759D01*
X53747818Y-167501146D01*
X53839196Y-167806695D01*
X53841799Y-167813808D01*
X53969227Y-168106173D01*
X53972669Y-168112929D01*
X54134296Y-168387865D01*
X54138519Y-168394150D01*
X54289463Y-168591934D01*
X54300989Y-168600396D01*
X54313054Y-168593735D01*
X56015980Y-166890810D01*
X56022357Y-166879131D01*
X56752408Y-166879131D01*
X56752539Y-166880966D01*
X56756790Y-166887580D01*
X58461285Y-168592074D01*
X58474408Y-168599240D01*
X58484709Y-168591851D01*
X58588751Y-168464055D01*
X58593164Y-168457914D01*
X58763349Y-168188187D01*
X58767005Y-168181536D01*
X58903544Y-167893335D01*
X58906375Y-167886295D01*
X59007306Y-167583767D01*
X59009270Y-167576433D01*
X59073122Y-167263989D01*
X59074194Y-167256465D01*
X59100173Y-166937051D01*
X59100378Y-166932576D01*
X59100927Y-166880221D01*
X59100817Y-166875789D01*
X59081529Y-166555853D01*
X59080621Y-166548351D01*
X59023319Y-166234593D01*
X59021518Y-166227260D01*
X58926935Y-165922655D01*
X58924263Y-165915583D01*
X58793781Y-165624570D01*
X58790264Y-165617843D01*
X58625771Y-165344621D01*
X58621481Y-165338377D01*
X58485991Y-165164647D01*
X58474199Y-165156178D01*
X58462486Y-165162725D01*
X56760020Y-166865190D01*
X56752408Y-166879131D01*
X56022357Y-166879131D01*
X56023592Y-166876869D01*
X56023461Y-166875034D01*
X56019210Y-166868420D01*
X54314445Y-165163656D01*
X54301510Y-165156592D01*
X54290949Y-165164252D01*
X54170766Y-165315072D01*
X54166410Y-165321270D01*
X53999059Y-165592764D01*
X53995479Y-165599440D01*
X53861956Y-165889074D01*
X53859206Y-165896125D01*
X53761444Y-166199708D01*
X53759561Y-166207041D01*
X53698979Y-166520170D01*
X53697992Y-166527670D01*
X53675467Y-166845802D01*
X53675388Y-166853383D01*
X47099287Y-166853383D01*
X46574946Y-166329041D01*
X45715652Y-165469747D01*
X45708112Y-165461461D01*
X45704000Y-165454982D01*
X45654348Y-165408356D01*
X45651507Y-165405602D01*
X45631770Y-165385865D01*
X45628573Y-165383385D01*
X45619551Y-165375680D01*
X45587321Y-165345414D01*
X45580375Y-165341595D01*
X45580372Y-165341593D01*
X45569566Y-165335652D01*
X45553047Y-165324801D01*
X45552583Y-165324441D01*
X45537041Y-165312386D01*
X45529772Y-165309241D01*
X45529768Y-165309238D01*
X45496463Y-165294826D01*
X45485813Y-165289609D01*
X45447060Y-165268305D01*
X45427437Y-165263267D01*
X45408734Y-165256863D01*
X45397420Y-165251967D01*
X45397419Y-165251967D01*
X45390145Y-165248819D01*
X45382322Y-165247580D01*
X45382312Y-165247577D01*
X45346476Y-165241901D01*
X45334856Y-165239495D01*
X45299711Y-165230472D01*
X45299710Y-165230472D01*
X45292030Y-165228500D01*
X45271776Y-165228500D01*
X45252065Y-165226949D01*
X45239886Y-165225020D01*
X45232057Y-165223780D01*
X45224165Y-165224526D01*
X45188039Y-165227941D01*
X45176181Y-165228500D01*
X40727394Y-165228500D01*
X40659273Y-165208498D01*
X40624181Y-165174771D01*
X40517357Y-165022211D01*
X40517355Y-165022208D01*
X40514198Y-165017700D01*
X40352300Y-164855802D01*
X40347792Y-164852645D01*
X40347789Y-164852643D01*
X40269611Y-164797902D01*
X40260358Y-164791423D01*
X54665917Y-164791423D01*
X54672520Y-164803309D01*
X56375190Y-166505980D01*
X56389131Y-166513592D01*
X56390966Y-166513461D01*
X56397580Y-166509210D01*
X58102559Y-164804230D01*
X58109571Y-164791389D01*
X58101777Y-164780701D01*
X57939298Y-164652613D01*
X57933075Y-164648288D01*
X57660702Y-164482357D01*
X57654025Y-164478822D01*
X57363686Y-164346813D01*
X57356616Y-164344099D01*
X57052537Y-164247932D01*
X57045186Y-164246085D01*
X56731746Y-164187142D01*
X56724237Y-164186194D01*
X56405989Y-164165335D01*
X56398424Y-164165295D01*
X56079964Y-164182821D01*
X56072450Y-164183690D01*
X55758405Y-164239348D01*
X55751044Y-164241115D01*
X55445980Y-164334092D01*
X55438860Y-164336740D01*
X55147182Y-164465690D01*
X55140445Y-164469167D01*
X54866355Y-164632233D01*
X54860091Y-164636490D01*
X54674385Y-164779762D01*
X54665917Y-164791423D01*
X40260358Y-164791423D01*
X40164749Y-164724477D01*
X40159767Y-164722154D01*
X40159762Y-164722151D01*
X39962225Y-164630039D01*
X39962224Y-164630039D01*
X39957243Y-164627716D01*
X39951935Y-164626294D01*
X39951933Y-164626293D01*
X39741402Y-164569881D01*
X39741400Y-164569881D01*
X39736087Y-164568457D01*
X39508000Y-164548502D01*
X39279913Y-164568457D01*
X39274600Y-164569881D01*
X39274598Y-164569881D01*
X39064067Y-164626293D01*
X39064065Y-164626294D01*
X39058757Y-164627716D01*
X39053776Y-164630039D01*
X39053775Y-164630039D01*
X38856238Y-164722151D01*
X38856233Y-164722154D01*
X38851251Y-164724477D01*
X38746389Y-164797902D01*
X38668211Y-164852643D01*
X38668208Y-164852645D01*
X38663700Y-164855802D01*
X38501802Y-165017700D01*
X38498645Y-165022208D01*
X38498643Y-165022211D01*
X38391819Y-165174771D01*
X38336362Y-165219099D01*
X38288606Y-165228500D01*
X37287394Y-165228500D01*
X37219273Y-165208498D01*
X37184181Y-165174771D01*
X37077357Y-165022211D01*
X37077355Y-165022208D01*
X37074198Y-165017700D01*
X36912300Y-164855802D01*
X36907792Y-164852645D01*
X36907789Y-164852643D01*
X36829611Y-164797902D01*
X36724749Y-164724477D01*
X36719767Y-164722154D01*
X36719762Y-164722151D01*
X36522225Y-164630039D01*
X36522224Y-164630039D01*
X36517243Y-164627716D01*
X36511935Y-164626294D01*
X36511933Y-164626293D01*
X36301402Y-164569881D01*
X36301400Y-164569881D01*
X36296087Y-164568457D01*
X36068000Y-164548502D01*
X35839913Y-164568457D01*
X35834600Y-164569881D01*
X35834598Y-164569881D01*
X35624067Y-164626293D01*
X35624065Y-164626294D01*
X35618757Y-164627716D01*
X35613776Y-164630039D01*
X35613775Y-164630039D01*
X35416238Y-164722151D01*
X35416233Y-164722154D01*
X35411251Y-164724477D01*
X35306389Y-164797902D01*
X35228211Y-164852643D01*
X35228208Y-164852645D01*
X35223700Y-164855802D01*
X35061802Y-165017700D01*
X34930477Y-165205251D01*
X34928154Y-165210233D01*
X34928151Y-165210238D01*
X34847409Y-165383392D01*
X34833716Y-165412757D01*
X34832294Y-165418065D01*
X34832293Y-165418067D01*
X34776960Y-165624570D01*
X34774457Y-165633913D01*
X34754502Y-165862000D01*
X34774457Y-166090087D01*
X34775881Y-166095400D01*
X34775881Y-166095402D01*
X34813178Y-166234593D01*
X34833716Y-166311243D01*
X34836039Y-166316224D01*
X34836039Y-166316225D01*
X34928151Y-166513762D01*
X34928154Y-166513767D01*
X34930477Y-166518749D01*
X34955385Y-166554321D01*
X35042576Y-166678842D01*
X35061802Y-166706300D01*
X35223700Y-166868198D01*
X35228208Y-166871355D01*
X35228211Y-166871357D01*
X35283206Y-166909865D01*
X35411251Y-166999523D01*
X35416233Y-167001846D01*
X35416238Y-167001849D01*
X35580368Y-167078383D01*
X35618757Y-167096284D01*
X35624065Y-167097706D01*
X35624067Y-167097707D01*
X35834598Y-167154119D01*
X35834600Y-167154119D01*
X35839913Y-167155543D01*
X36068000Y-167175498D01*
X36296087Y-167155543D01*
X36301400Y-167154119D01*
X36301402Y-167154119D01*
X36511933Y-167097707D01*
X36511935Y-167097706D01*
X36517243Y-167096284D01*
X36555632Y-167078383D01*
X36719762Y-167001849D01*
X36719767Y-167001846D01*
X36724749Y-166999523D01*
X36852794Y-166909865D01*
X36907789Y-166871357D01*
X36907792Y-166871355D01*
X36912300Y-166868198D01*
X37074198Y-166706300D01*
X37077582Y-166701467D01*
X37184181Y-166549229D01*
X37239638Y-166504901D01*
X37287394Y-166495500D01*
X38288606Y-166495500D01*
X38356727Y-166515502D01*
X38391819Y-166549229D01*
X38498418Y-166701467D01*
X38501802Y-166706300D01*
X38663700Y-166868198D01*
X38668208Y-166871355D01*
X38668211Y-166871357D01*
X38723206Y-166909865D01*
X38851251Y-166999523D01*
X38856233Y-167001846D01*
X38856238Y-167001849D01*
X39020368Y-167078383D01*
X39058757Y-167096284D01*
X39064065Y-167097706D01*
X39064067Y-167097707D01*
X39274598Y-167154119D01*
X39274600Y-167154119D01*
X39279913Y-167155543D01*
X39508000Y-167175498D01*
X39736087Y-167155543D01*
X39741400Y-167154119D01*
X39741402Y-167154119D01*
X39951933Y-167097707D01*
X39951935Y-167097706D01*
X39957243Y-167096284D01*
X39995632Y-167078383D01*
X40159762Y-167001849D01*
X40159767Y-167001846D01*
X40164749Y-166999523D01*
X40292794Y-166909865D01*
X40347789Y-166871357D01*
X40347792Y-166871355D01*
X40352300Y-166868198D01*
X40514198Y-166706300D01*
X40517582Y-166701467D01*
X40624181Y-166549229D01*
X40679638Y-166504901D01*
X40727394Y-166495500D01*
X44897406Y-166495500D01*
X44965527Y-166515502D01*
X44986501Y-166532405D01*
X46514595Y-168060500D01*
X46548621Y-168122812D01*
X46551500Y-168149595D01*
X46551500Y-170158134D01*
X46558255Y-170220316D01*
X46609385Y-170356705D01*
X46696739Y-170473261D01*
X46813295Y-170560615D01*
X46949684Y-170611745D01*
X47011866Y-170618500D01*
X49020406Y-170618500D01*
X49088527Y-170638502D01*
X49104139Y-170651084D01*
X49104462Y-170650717D01*
X49107428Y-170653332D01*
X49110230Y-170656134D01*
X49113425Y-170658612D01*
X49122447Y-170666318D01*
X49154679Y-170696586D01*
X49161628Y-170700406D01*
X49172432Y-170706346D01*
X49188956Y-170717199D01*
X49204959Y-170729613D01*
X49245543Y-170747176D01*
X49256173Y-170752383D01*
X49294940Y-170773695D01*
X49302617Y-170775666D01*
X49302622Y-170775668D01*
X49314558Y-170778732D01*
X49333266Y-170785137D01*
X49351855Y-170793181D01*
X49359683Y-170794421D01*
X49359690Y-170794423D01*
X49395524Y-170800099D01*
X49407144Y-170802505D01*
X49438959Y-170810673D01*
X49449970Y-170813500D01*
X49470224Y-170813500D01*
X49489934Y-170815051D01*
X49509943Y-170818220D01*
X49517835Y-170817474D01*
X49536580Y-170815702D01*
X49553962Y-170814059D01*
X49565819Y-170813500D01*
X58087233Y-170813500D01*
X58098416Y-170814027D01*
X58105909Y-170815702D01*
X58113835Y-170815453D01*
X58113836Y-170815453D01*
X58173986Y-170813562D01*
X58177945Y-170813500D01*
X58205856Y-170813500D01*
X58209791Y-170813003D01*
X58209856Y-170812995D01*
X58221693Y-170812062D01*
X58253951Y-170811048D01*
X58257970Y-170810922D01*
X58265889Y-170810673D01*
X58285343Y-170805021D01*
X58304700Y-170801013D01*
X58316930Y-170799468D01*
X58316931Y-170799468D01*
X58324797Y-170798474D01*
X58332168Y-170795555D01*
X58332170Y-170795555D01*
X58365912Y-170782196D01*
X58377142Y-170778351D01*
X58411983Y-170768229D01*
X58411984Y-170768229D01*
X58419593Y-170766018D01*
X58426412Y-170761985D01*
X58426417Y-170761983D01*
X58437028Y-170755707D01*
X58454776Y-170747012D01*
X58473617Y-170739552D01*
X58493987Y-170724753D01*
X58509387Y-170713564D01*
X58519307Y-170707048D01*
X58550535Y-170688580D01*
X58550538Y-170688578D01*
X58557362Y-170684542D01*
X58571683Y-170670221D01*
X58586717Y-170657380D01*
X58588432Y-170656134D01*
X58603107Y-170645472D01*
X58631298Y-170611395D01*
X58639288Y-170602616D01*
X62660461Y-166581443D01*
X62722773Y-166547417D01*
X62771437Y-166546452D01*
X62776029Y-166547262D01*
X62781345Y-166548686D01*
X62992000Y-166567116D01*
X62997475Y-166566637D01*
X63197184Y-166549165D01*
X63197188Y-166549164D01*
X63202655Y-166548686D01*
X63207961Y-166547264D01*
X63212561Y-166546453D01*
X63283121Y-166554321D01*
X63323538Y-166581443D01*
X64353595Y-167611500D01*
X64387621Y-167673812D01*
X64390500Y-167700595D01*
X64390500Y-174214939D01*
X64370498Y-174283060D01*
X64316842Y-174329553D01*
X64246568Y-174339657D01*
X64181988Y-174310163D01*
X64162564Y-174289000D01*
X64153565Y-174276614D01*
X64147048Y-174266693D01*
X64128580Y-174235465D01*
X64128578Y-174235462D01*
X64124542Y-174228638D01*
X64110221Y-174214317D01*
X64097380Y-174199283D01*
X64090131Y-174189306D01*
X64085472Y-174182893D01*
X64051395Y-174154702D01*
X64042616Y-174146712D01*
X63545405Y-173649501D01*
X63511379Y-173587189D01*
X63508500Y-173560406D01*
X63508500Y-172349600D01*
X63508163Y-172346350D01*
X63498238Y-172250692D01*
X63498237Y-172250688D01*
X63497526Y-172243834D01*
X63494249Y-172234010D01*
X63443868Y-172083002D01*
X63441550Y-172076054D01*
X63348478Y-171925652D01*
X63223303Y-171800695D01*
X63077660Y-171710919D01*
X63030168Y-171658148D01*
X63018744Y-171588076D01*
X63047018Y-171522952D01*
X63056805Y-171512490D01*
X63167278Y-171407103D01*
X63171135Y-171403424D01*
X63192454Y-171374771D01*
X63305568Y-171222740D01*
X63308754Y-171218458D01*
X63413240Y-171012949D01*
X63417207Y-171000175D01*
X63480024Y-170797871D01*
X63481607Y-170792773D01*
X63491281Y-170719785D01*
X63511198Y-170569511D01*
X63511198Y-170569506D01*
X63511898Y-170564226D01*
X63503249Y-170333842D01*
X63455907Y-170108209D01*
X63371224Y-169893779D01*
X63251623Y-169696683D01*
X63189323Y-169624888D01*
X63104023Y-169526588D01*
X63104021Y-169526586D01*
X63100523Y-169522555D01*
X63039894Y-169472842D01*
X62926373Y-169379760D01*
X62926367Y-169379756D01*
X62922245Y-169376376D01*
X62917609Y-169373737D01*
X62917606Y-169373735D01*
X62726529Y-169264968D01*
X62721886Y-169262325D01*
X62505175Y-169183663D01*
X62499926Y-169182714D01*
X62499923Y-169182713D01*
X62282392Y-169143377D01*
X62282385Y-169143376D01*
X62278308Y-169142639D01*
X62260586Y-169141803D01*
X62255644Y-169141570D01*
X62255637Y-169141570D01*
X62254156Y-169141500D01*
X61792110Y-169141500D01*
X61725191Y-169147178D01*
X61625591Y-169155629D01*
X61625587Y-169155630D01*
X61620280Y-169156080D01*
X61615125Y-169157418D01*
X61615119Y-169157419D01*
X61402297Y-169212657D01*
X61402293Y-169212658D01*
X61397128Y-169213999D01*
X61392262Y-169216191D01*
X61392259Y-169216192D01*
X61286580Y-169263797D01*
X61186925Y-169308688D01*
X60995681Y-169437441D01*
X60828865Y-169596576D01*
X60691246Y-169781542D01*
X60586760Y-169987051D01*
X60585178Y-169992145D01*
X60585177Y-169992148D01*
X60534698Y-170154717D01*
X60518393Y-170207227D01*
X60517692Y-170212516D01*
X60498582Y-170356705D01*
X60488102Y-170435774D01*
X60496751Y-170666158D01*
X60544093Y-170891791D01*
X60546052Y-170896751D01*
X60561344Y-170935474D01*
X60567761Y-171006180D01*
X60533246Y-171070849D01*
X55607747Y-175996348D01*
X55599461Y-176003888D01*
X55592982Y-176008000D01*
X55587557Y-176013777D01*
X55546357Y-176057651D01*
X55543602Y-176060493D01*
X55523865Y-176080230D01*
X55521385Y-176083427D01*
X55513682Y-176092447D01*
X55483414Y-176124679D01*
X55479595Y-176131625D01*
X55479593Y-176131628D01*
X55473652Y-176142434D01*
X55462801Y-176158953D01*
X55450386Y-176174959D01*
X55447241Y-176182228D01*
X55447238Y-176182232D01*
X55432826Y-176215537D01*
X55427609Y-176226187D01*
X55406305Y-176264940D01*
X55404334Y-176272615D01*
X55404334Y-176272616D01*
X55401267Y-176284562D01*
X55394863Y-176303266D01*
X55390730Y-176312818D01*
X55386819Y-176321855D01*
X55385580Y-176329678D01*
X55385577Y-176329688D01*
X55379901Y-176365524D01*
X55377495Y-176377144D01*
X55366500Y-176419970D01*
X55366500Y-176440224D01*
X55364949Y-176459934D01*
X55361780Y-176479943D01*
X55362526Y-176487835D01*
X55365941Y-176523961D01*
X55366500Y-176535819D01*
X55366500Y-176565500D01*
X55346498Y-176633621D01*
X55292842Y-176680114D01*
X55240500Y-176691500D01*
X55151866Y-176691500D01*
X55089684Y-176698255D01*
X54953295Y-176749385D01*
X54836739Y-176836739D01*
X54749385Y-176953295D01*
X54698255Y-177089684D01*
X54691500Y-177151866D01*
X54691500Y-178848134D01*
X54698255Y-178910316D01*
X54749385Y-179046705D01*
X54836739Y-179163261D01*
X54953295Y-179250615D01*
X55089684Y-179301745D01*
X55100474Y-179302917D01*
X55102606Y-179303803D01*
X55105222Y-179304425D01*
X55105121Y-179304848D01*
X55166035Y-179330155D01*
X55206463Y-179388517D01*
X55208922Y-179459471D01*
X55172629Y-179520490D01*
X55163969Y-179527489D01*
X55160207Y-179530646D01*
X55155700Y-179533802D01*
X54993802Y-179695700D01*
X54990645Y-179700208D01*
X54990643Y-179700211D01*
X54883819Y-179852771D01*
X54828362Y-179897099D01*
X54780606Y-179906500D01*
X48841596Y-179906500D01*
X48773475Y-179886498D01*
X48752501Y-179869595D01*
X44166266Y-175283359D01*
X47251386Y-175283359D01*
X47260099Y-175294879D01*
X47348586Y-175359760D01*
X47356505Y-175364708D01*
X47572877Y-175478547D01*
X47581451Y-175482275D01*
X47812282Y-175562885D01*
X47821291Y-175565299D01*
X48061518Y-175610908D01*
X48070775Y-175611962D01*
X48315107Y-175621563D01*
X48324420Y-175621237D01*
X48567478Y-175594618D01*
X48576655Y-175592917D01*
X48813107Y-175530665D01*
X48821926Y-175527628D01*
X49046584Y-175431107D01*
X49054856Y-175426800D01*
X49262777Y-175298135D01*
X49264620Y-175296796D01*
X49272038Y-175285541D01*
X49265974Y-175275184D01*
X48272812Y-174282022D01*
X48258868Y-174274408D01*
X48257035Y-174274539D01*
X48250420Y-174278790D01*
X47258044Y-175271166D01*
X47251386Y-175283359D01*
X44166266Y-175283359D01*
X42752742Y-173869835D01*
X46548022Y-173869835D01*
X46559754Y-174114064D01*
X46560891Y-174123324D01*
X46608593Y-174363143D01*
X46611082Y-174372118D01*
X46693708Y-174602250D01*
X46697505Y-174610778D01*
X46813234Y-174826160D01*
X46818245Y-174834027D01*
X46875173Y-174910263D01*
X46886431Y-174918712D01*
X46898850Y-174911940D01*
X47887978Y-173922812D01*
X47894356Y-173911132D01*
X48624408Y-173911132D01*
X48624539Y-173912965D01*
X48628790Y-173919580D01*
X49623732Y-174914522D01*
X49636112Y-174921282D01*
X49644453Y-174915038D01*
X49762700Y-174731202D01*
X49767147Y-174723011D01*
X49867572Y-174500076D01*
X49870767Y-174491298D01*
X49937135Y-174255973D01*
X49938993Y-174246844D01*
X49970044Y-174002770D01*
X49970525Y-173996483D01*
X49972706Y-173913160D01*
X49972555Y-173906851D01*
X49954321Y-173661486D01*
X49952944Y-173652280D01*
X49898979Y-173413786D01*
X49896255Y-173404875D01*
X49807633Y-173176983D01*
X49803619Y-173168567D01*
X49682284Y-172956276D01*
X49677074Y-172948553D01*
X49645787Y-172908865D01*
X49633863Y-172900395D01*
X49622328Y-172906882D01*
X48632022Y-173897188D01*
X48624408Y-173911132D01*
X47894356Y-173911132D01*
X47895592Y-173908868D01*
X47895461Y-173907035D01*
X47891210Y-173900420D01*
X46896828Y-172906038D01*
X46883520Y-172898771D01*
X46873481Y-172905893D01*
X46868581Y-172911784D01*
X46863168Y-172919373D01*
X46736322Y-173128409D01*
X46732084Y-173136726D01*
X46637529Y-173362214D01*
X46634572Y-173371052D01*
X46574384Y-173608042D01*
X46572763Y-173617232D01*
X46548267Y-173860510D01*
X46548022Y-173869835D01*
X42752742Y-173869835D01*
X41417824Y-172534917D01*
X47249330Y-172534917D01*
X47253903Y-172544693D01*
X48247188Y-173537978D01*
X48261132Y-173545592D01*
X48262965Y-173545461D01*
X48269580Y-173541210D01*
X49262488Y-172548302D01*
X49268872Y-172536612D01*
X49259460Y-172524502D01*
X49133144Y-172436873D01*
X49125116Y-172432145D01*
X48905810Y-172323995D01*
X48897177Y-172320507D01*
X48664288Y-172245958D01*
X48655238Y-172243785D01*
X48413891Y-172204480D01*
X48404602Y-172203668D01*
X48160114Y-172200467D01*
X48150803Y-172201037D01*
X47908522Y-172234010D01*
X47899403Y-172235948D01*
X47664668Y-172304367D01*
X47655915Y-172307639D01*
X47433869Y-172410004D01*
X47425714Y-172414524D01*
X47258468Y-172524175D01*
X47249330Y-172534917D01*
X41417824Y-172534917D01*
X40647653Y-171764746D01*
X40640113Y-171756460D01*
X40636001Y-171749981D01*
X40586349Y-171703355D01*
X40583508Y-171700601D01*
X40563771Y-171680864D01*
X40560574Y-171678384D01*
X40551552Y-171670679D01*
X40532708Y-171652983D01*
X40519322Y-171640413D01*
X40512376Y-171636594D01*
X40512373Y-171636592D01*
X40501567Y-171630651D01*
X40485048Y-171619800D01*
X40484584Y-171619440D01*
X40469042Y-171607385D01*
X40461773Y-171604240D01*
X40461769Y-171604237D01*
X40428464Y-171589825D01*
X40417814Y-171584608D01*
X40379061Y-171563304D01*
X40359438Y-171558266D01*
X40340735Y-171551862D01*
X40329421Y-171546966D01*
X40329420Y-171546966D01*
X40322146Y-171543818D01*
X40314323Y-171542579D01*
X40314313Y-171542576D01*
X40278477Y-171536900D01*
X40266857Y-171534494D01*
X40231712Y-171525471D01*
X40231711Y-171525471D01*
X40224031Y-171523499D01*
X40203777Y-171523499D01*
X40184066Y-171521948D01*
X40181535Y-171521547D01*
X40164058Y-171518779D01*
X40156166Y-171519525D01*
X40120040Y-171522940D01*
X40108182Y-171523499D01*
X33915764Y-171523499D01*
X33904580Y-171522972D01*
X33897092Y-171521298D01*
X33889169Y-171521547D01*
X33829034Y-171523437D01*
X33825076Y-171523499D01*
X33797145Y-171523499D01*
X33793230Y-171523994D01*
X33793226Y-171523994D01*
X33793168Y-171524002D01*
X33793139Y-171524005D01*
X33781297Y-171524938D01*
X33737111Y-171526326D01*
X33719745Y-171531371D01*
X33717659Y-171531977D01*
X33698307Y-171535985D01*
X33686069Y-171537531D01*
X33686067Y-171537532D01*
X33678204Y-171538525D01*
X33637087Y-171554805D01*
X33625886Y-171558640D01*
X33583407Y-171570981D01*
X33576588Y-171575014D01*
X33576583Y-171575016D01*
X33565972Y-171581292D01*
X33548222Y-171589989D01*
X33529384Y-171597447D01*
X33522968Y-171602108D01*
X33522967Y-171602109D01*
X33493626Y-171623427D01*
X33483702Y-171629946D01*
X33452461Y-171648421D01*
X33452456Y-171648425D01*
X33445638Y-171652457D01*
X33431314Y-171666781D01*
X33416282Y-171679620D01*
X33399894Y-171691527D01*
X33383851Y-171710920D01*
X33371713Y-171725592D01*
X33363723Y-171734372D01*
X32925247Y-172172848D01*
X32862935Y-172206874D01*
X32803542Y-172205460D01*
X32740087Y-172188457D01*
X32512000Y-172168502D01*
X32283913Y-172188457D01*
X32278600Y-172189881D01*
X32278598Y-172189881D01*
X32068067Y-172246293D01*
X32068065Y-172246294D01*
X32062757Y-172247716D01*
X32057776Y-172250039D01*
X32057775Y-172250039D01*
X31860238Y-172342151D01*
X31860233Y-172342154D01*
X31855251Y-172344477D01*
X31782269Y-172395580D01*
X31672211Y-172472643D01*
X31672208Y-172472645D01*
X31667700Y-172475802D01*
X31505802Y-172637700D01*
X31374477Y-172825251D01*
X31372154Y-172830233D01*
X31372151Y-172830238D01*
X31290256Y-173005865D01*
X31277716Y-173032757D01*
X31276294Y-173038065D01*
X31276293Y-173038067D01*
X31233168Y-173199011D01*
X31218457Y-173253913D01*
X31198502Y-173482000D01*
X31218457Y-173710087D01*
X31219880Y-173715398D01*
X31219881Y-173715402D01*
X31272871Y-173913160D01*
X31277716Y-173931243D01*
X31280039Y-173936224D01*
X31280039Y-173936225D01*
X31372151Y-174133762D01*
X31372154Y-174133767D01*
X31374477Y-174138749D01*
X31447902Y-174243611D01*
X31494503Y-174310163D01*
X31505802Y-174326300D01*
X31667700Y-174488198D01*
X31672208Y-174491355D01*
X31672211Y-174491357D01*
X31683975Y-174499594D01*
X31855251Y-174619523D01*
X31860233Y-174621846D01*
X31860238Y-174621849D01*
X32056765Y-174713490D01*
X32062757Y-174716284D01*
X32068065Y-174717706D01*
X32068067Y-174717707D01*
X32278598Y-174774119D01*
X32278600Y-174774119D01*
X32283913Y-174775543D01*
X32512000Y-174795498D01*
X32740087Y-174775543D01*
X32745398Y-174774120D01*
X32745409Y-174774118D01*
X32803541Y-174758541D01*
X32874517Y-174760230D01*
X32925248Y-174791152D01*
X34678753Y-176544657D01*
X34712779Y-176606969D01*
X34707714Y-176677784D01*
X34665167Y-176734620D01*
X34598647Y-176759431D01*
X34549991Y-176753345D01*
X34414389Y-176708368D01*
X34414387Y-176708368D01*
X34407861Y-176706203D01*
X34401025Y-176705503D01*
X34401022Y-176705502D01*
X34357363Y-176701029D01*
X34303400Y-176695500D01*
X32752600Y-176695500D01*
X32749354Y-176695837D01*
X32749350Y-176695837D01*
X32653692Y-176705762D01*
X32653688Y-176705763D01*
X32646834Y-176706474D01*
X32640298Y-176708655D01*
X32640296Y-176708655D01*
X32536744Y-176743203D01*
X32479054Y-176762450D01*
X32328652Y-176855522D01*
X32203695Y-176980697D01*
X32199855Y-176986927D01*
X32199854Y-176986928D01*
X32131672Y-177097540D01*
X32110885Y-177131262D01*
X32055203Y-177299139D01*
X32044500Y-177403600D01*
X32044500Y-178704400D01*
X32044837Y-178707646D01*
X32044837Y-178707650D01*
X32052567Y-178782145D01*
X32055474Y-178810166D01*
X32057655Y-178816702D01*
X32057655Y-178816704D01*
X32085017Y-178898717D01*
X32111450Y-178977946D01*
X32204522Y-179128348D01*
X32329697Y-179253305D01*
X32335927Y-179257145D01*
X32335928Y-179257146D01*
X32355764Y-179269373D01*
X32475258Y-179343030D01*
X32475780Y-179343352D01*
X32523273Y-179396124D01*
X32534697Y-179466196D01*
X32506423Y-179531320D01*
X32496636Y-179541782D01*
X32386094Y-179647234D01*
X32379059Y-179655186D01*
X32247859Y-179831525D01*
X32242255Y-179840562D01*
X32142643Y-180036484D01*
X32138643Y-180046335D01*
X32073466Y-180256240D01*
X32071183Y-180266624D01*
X32069139Y-180282043D01*
X32071335Y-180296207D01*
X32084522Y-180300000D01*
X34969192Y-180300000D01*
X34982723Y-180296027D01*
X34984248Y-180285420D01*
X34959523Y-180167579D01*
X34956463Y-180157383D01*
X34875737Y-179952971D01*
X34871006Y-179943439D01*
X34756984Y-179755538D01*
X34750720Y-179746948D01*
X34606673Y-179580948D01*
X34599044Y-179573530D01*
X34567431Y-179547609D01*
X34527436Y-179488949D01*
X34525504Y-179417979D01*
X34562248Y-179357230D01*
X34581018Y-179343030D01*
X34690826Y-179275079D01*
X34759278Y-179256241D01*
X34827048Y-179277402D01*
X34846224Y-179293128D01*
X35324344Y-179771248D01*
X35331888Y-179779538D01*
X35336001Y-179786019D01*
X35341778Y-179791444D01*
X35385668Y-179832659D01*
X35388510Y-179835414D01*
X35408231Y-179855135D01*
X35411426Y-179857613D01*
X35420448Y-179865319D01*
X35452680Y-179895587D01*
X35459629Y-179899407D01*
X35470433Y-179905347D01*
X35486957Y-179916200D01*
X35502960Y-179928614D01*
X35543544Y-179946177D01*
X35554174Y-179951384D01*
X35592941Y-179972696D01*
X35600618Y-179974667D01*
X35600623Y-179974669D01*
X35612559Y-179977733D01*
X35631267Y-179984138D01*
X35649856Y-179992182D01*
X35657681Y-179993421D01*
X35657683Y-179993422D01*
X35693520Y-179999098D01*
X35705141Y-180001505D01*
X35736960Y-180009674D01*
X35747971Y-180012501D01*
X35768232Y-180012501D01*
X35787941Y-180014052D01*
X35807944Y-180017220D01*
X35815836Y-180016474D01*
X35821063Y-180015980D01*
X35851955Y-180013060D01*
X35863812Y-180012501D01*
X40252232Y-180012501D01*
X40263415Y-180013028D01*
X40270908Y-180014703D01*
X40278834Y-180014454D01*
X40278835Y-180014454D01*
X40338985Y-180012563D01*
X40342944Y-180012501D01*
X40370855Y-180012501D01*
X40374790Y-180012004D01*
X40374855Y-180011996D01*
X40386692Y-180011063D01*
X40418950Y-180010049D01*
X40422969Y-180009923D01*
X40430888Y-180009674D01*
X40450342Y-180004022D01*
X40469699Y-180000014D01*
X40481929Y-179998469D01*
X40481930Y-179998469D01*
X40489796Y-179997475D01*
X40497167Y-179994556D01*
X40497169Y-179994556D01*
X40530911Y-179981197D01*
X40542141Y-179977352D01*
X40576982Y-179967230D01*
X40576983Y-179967230D01*
X40584592Y-179965019D01*
X40591411Y-179960986D01*
X40591416Y-179960984D01*
X40602027Y-179954708D01*
X40619775Y-179946013D01*
X40638616Y-179938553D01*
X40658986Y-179923754D01*
X40674386Y-179912565D01*
X40684306Y-179906049D01*
X40715534Y-179887581D01*
X40715537Y-179887579D01*
X40722361Y-179883543D01*
X40736682Y-179869222D01*
X40751716Y-179856381D01*
X40756685Y-179852771D01*
X40768106Y-179844473D01*
X40796297Y-179810396D01*
X40804287Y-179801617D01*
X41206499Y-179399405D01*
X41268811Y-179365379D01*
X41295594Y-179362500D01*
X42504134Y-179362500D01*
X42566316Y-179355745D01*
X42702705Y-179304615D01*
X42819261Y-179217261D01*
X42906615Y-179100705D01*
X42957745Y-178964316D01*
X42964500Y-178902134D01*
X42964500Y-177205866D01*
X42957745Y-177143684D01*
X42906615Y-177007295D01*
X42819261Y-176890739D01*
X42702705Y-176803385D01*
X42566316Y-176752255D01*
X42504134Y-176745500D01*
X41410964Y-176745500D01*
X41342843Y-176725498D01*
X41321869Y-176708595D01*
X39607360Y-174994085D01*
X39573334Y-174931773D01*
X39578399Y-174860957D01*
X39620946Y-174804122D01*
X39685474Y-174779469D01*
X39730520Y-174775528D01*
X39741312Y-174773625D01*
X39951761Y-174717236D01*
X39962053Y-174713490D01*
X40159511Y-174621414D01*
X40169007Y-174615931D01*
X40347467Y-174490972D01*
X40355875Y-174483916D01*
X40509916Y-174329875D01*
X40516972Y-174321467D01*
X40641931Y-174143007D01*
X40647414Y-174133511D01*
X40739490Y-173936053D01*
X40743236Y-173925761D01*
X40744575Y-173920763D01*
X40781527Y-173860140D01*
X40845387Y-173829119D01*
X40915882Y-173837547D01*
X40955377Y-173864279D01*
X48023345Y-180932247D01*
X48030889Y-180940537D01*
X48035002Y-180947018D01*
X48040779Y-180952443D01*
X48084669Y-180993658D01*
X48087511Y-180996413D01*
X48107233Y-181016135D01*
X48110375Y-181018572D01*
X48110435Y-181018619D01*
X48119447Y-181026317D01*
X48129511Y-181035767D01*
X48151681Y-181056586D01*
X48158623Y-181060403D01*
X48163664Y-181064065D01*
X48207018Y-181120288D01*
X48213092Y-181191024D01*
X48179959Y-181253816D01*
X48118139Y-181288726D01*
X48089602Y-181292000D01*
X47272115Y-181292000D01*
X47256876Y-181296475D01*
X47255671Y-181297865D01*
X47254000Y-181305548D01*
X47254000Y-182727885D01*
X47258475Y-182743124D01*
X47259865Y-182744329D01*
X47267548Y-182746000D01*
X48689884Y-182746000D01*
X48705123Y-182741525D01*
X48706328Y-182740135D01*
X48707999Y-182732452D01*
X48707999Y-181755331D01*
X48707629Y-181748510D01*
X48702105Y-181697648D01*
X48698479Y-181682396D01*
X48653324Y-181561946D01*
X48644786Y-181546351D01*
X48568285Y-181444276D01*
X48555724Y-181431715D01*
X48513842Y-181400326D01*
X48471327Y-181343467D01*
X48466301Y-181272648D01*
X48500361Y-181210355D01*
X48562692Y-181176365D01*
X48589407Y-181173500D01*
X54780606Y-181173500D01*
X54848727Y-181193502D01*
X54883819Y-181227229D01*
X54990643Y-181379789D01*
X54993802Y-181384300D01*
X55155700Y-181546198D01*
X55160208Y-181549355D01*
X55160211Y-181549357D01*
X55178190Y-181561946D01*
X55343251Y-181677523D01*
X55348233Y-181679846D01*
X55348238Y-181679849D01*
X55382457Y-181695805D01*
X55435742Y-181742722D01*
X55455203Y-181810999D01*
X55434661Y-181878959D01*
X55382457Y-181924195D01*
X55348238Y-181940151D01*
X55348233Y-181940154D01*
X55343251Y-181942477D01*
X55264386Y-181997699D01*
X55160211Y-182070643D01*
X55160208Y-182070645D01*
X55155700Y-182073802D01*
X54993802Y-182235700D01*
X54990645Y-182240208D01*
X54990643Y-182240211D01*
X54980118Y-182255243D01*
X54862477Y-182423251D01*
X54860154Y-182428233D01*
X54860151Y-182428238D01*
X54779409Y-182601392D01*
X54765716Y-182630757D01*
X54764294Y-182636065D01*
X54764293Y-182636067D01*
X54717986Y-182808887D01*
X54706457Y-182851913D01*
X54686502Y-183080000D01*
X54706457Y-183308087D01*
X54707879Y-183313392D01*
X54707881Y-183313406D01*
X54723459Y-183371539D01*
X54721771Y-183442516D01*
X54690848Y-183493248D01*
X54407355Y-183776740D01*
X54129498Y-184054597D01*
X54067186Y-184088622D01*
X54040403Y-184091501D01*
X48834000Y-184091501D01*
X48765879Y-184071499D01*
X48719386Y-184017843D01*
X48708000Y-183965501D01*
X48708000Y-183272115D01*
X48703525Y-183256876D01*
X48702135Y-183255671D01*
X48694452Y-183254000D01*
X45310116Y-183254000D01*
X45294877Y-183258475D01*
X45293672Y-183259865D01*
X45292001Y-183267548D01*
X45292001Y-183965501D01*
X45271999Y-184033622D01*
X45218343Y-184080115D01*
X45166001Y-184091501D01*
X40734764Y-184091501D01*
X40723581Y-184090974D01*
X40716088Y-184089299D01*
X40708162Y-184089548D01*
X40708161Y-184089548D01*
X40647998Y-184091439D01*
X40644040Y-184091501D01*
X40616141Y-184091501D01*
X40612151Y-184092005D01*
X40600317Y-184092937D01*
X40556108Y-184094327D01*
X40548494Y-184096539D01*
X40548489Y-184096540D01*
X40536656Y-184099978D01*
X40517293Y-184103989D01*
X40497200Y-184106527D01*
X40489833Y-184109444D01*
X40489828Y-184109445D01*
X40456089Y-184122803D01*
X40444862Y-184126647D01*
X40402404Y-184138983D01*
X40395578Y-184143020D01*
X40384969Y-184149294D01*
X40367221Y-184157989D01*
X40348380Y-184165449D01*
X40341964Y-184170111D01*
X40341963Y-184170111D01*
X40312610Y-184191437D01*
X40302690Y-184197953D01*
X40271462Y-184216421D01*
X40271459Y-184216423D01*
X40264635Y-184220459D01*
X40250314Y-184234780D01*
X40235281Y-184247620D01*
X40218890Y-184259529D01*
X40200717Y-184281496D01*
X40190699Y-184293606D01*
X40182709Y-184302385D01*
X36902746Y-187582347D01*
X36894460Y-187589887D01*
X36887981Y-187593999D01*
X36882556Y-187599776D01*
X36841356Y-187643650D01*
X36838601Y-187646492D01*
X36818864Y-187666229D01*
X36816384Y-187669426D01*
X36808681Y-187678446D01*
X36778413Y-187710678D01*
X36774594Y-187717624D01*
X36774592Y-187717627D01*
X36768651Y-187728433D01*
X36757800Y-187744952D01*
X36745385Y-187760958D01*
X36742240Y-187768227D01*
X36742237Y-187768231D01*
X36727825Y-187801536D01*
X36722608Y-187812186D01*
X36701304Y-187850939D01*
X36699333Y-187858614D01*
X36699333Y-187858615D01*
X36696266Y-187870561D01*
X36689862Y-187889265D01*
X36681818Y-187907854D01*
X36680579Y-187915677D01*
X36680576Y-187915687D01*
X36674900Y-187951523D01*
X36672494Y-187963143D01*
X36663563Y-187997931D01*
X36661499Y-188005969D01*
X36661499Y-188026223D01*
X36659948Y-188045933D01*
X36656779Y-188065942D01*
X36657525Y-188073834D01*
X36660940Y-188109960D01*
X36661499Y-188121818D01*
X36661499Y-189279234D01*
X36660972Y-189290417D01*
X36659297Y-189297910D01*
X36659546Y-189305836D01*
X36659546Y-189305837D01*
X36661437Y-189365987D01*
X36661499Y-189369946D01*
X36661499Y-189397857D01*
X36661996Y-189401791D01*
X36661996Y-189401792D01*
X36662004Y-189401857D01*
X36662937Y-189413694D01*
X36664326Y-189457890D01*
X36669977Y-189477340D01*
X36673986Y-189496701D01*
X36676525Y-189516798D01*
X36679444Y-189524169D01*
X36679444Y-189524171D01*
X36692803Y-189557913D01*
X36696648Y-189569143D01*
X36708981Y-189611594D01*
X36713014Y-189618413D01*
X36713016Y-189618418D01*
X36719292Y-189629029D01*
X36727987Y-189646777D01*
X36735447Y-189665618D01*
X36740109Y-189672034D01*
X36740109Y-189672035D01*
X36761435Y-189701388D01*
X36767951Y-189711308D01*
X36783737Y-189738000D01*
X36790457Y-189749363D01*
X36804778Y-189763684D01*
X36817618Y-189778717D01*
X36829527Y-189795108D01*
X36863604Y-189823299D01*
X36872383Y-189831289D01*
X38155346Y-191114253D01*
X38162886Y-191122539D01*
X38166998Y-191129018D01*
X38172775Y-191134443D01*
X38216649Y-191175643D01*
X38219491Y-191178398D01*
X38239228Y-191198135D01*
X38242425Y-191200615D01*
X38251445Y-191208318D01*
X38283677Y-191238586D01*
X38290623Y-191242405D01*
X38290626Y-191242407D01*
X38301432Y-191248348D01*
X38317951Y-191259199D01*
X38333957Y-191271614D01*
X38341226Y-191274759D01*
X38341230Y-191274762D01*
X38374535Y-191289174D01*
X38385185Y-191294391D01*
X38423938Y-191315695D01*
X38431613Y-191317666D01*
X38431614Y-191317666D01*
X38443560Y-191320733D01*
X38462265Y-191327137D01*
X38480853Y-191335181D01*
X38488676Y-191336420D01*
X38488686Y-191336423D01*
X38524522Y-191342099D01*
X38536142Y-191344505D01*
X38571287Y-191353528D01*
X38578968Y-191355500D01*
X38599222Y-191355500D01*
X38618932Y-191357051D01*
X38638941Y-191360220D01*
X38646833Y-191359474D01*
X38682959Y-191356059D01*
X38694817Y-191355500D01*
X39360776Y-191355500D01*
X39428897Y-191375502D01*
X39449871Y-191392405D01*
X40843871Y-192786405D01*
X40877897Y-192848717D01*
X40872832Y-192919532D01*
X40830285Y-192976368D01*
X40763765Y-193001179D01*
X40754776Y-193001500D01*
X39283866Y-193001500D01*
X39221684Y-193008255D01*
X39085295Y-193059385D01*
X38968739Y-193146739D01*
X38881385Y-193263295D01*
X38830255Y-193399684D01*
X38823500Y-193461866D01*
X38823500Y-193550500D01*
X38803498Y-193618621D01*
X38749842Y-193665114D01*
X38697500Y-193676500D01*
X36902595Y-193676500D01*
X36834474Y-193656498D01*
X36813500Y-193639595D01*
X32309152Y-189135247D01*
X32275126Y-189072935D01*
X32276540Y-189013541D01*
X32280471Y-188998870D01*
X32293543Y-188950087D01*
X32313498Y-188722000D01*
X32293543Y-188493913D01*
X32292119Y-188488598D01*
X32292118Y-188488591D01*
X32276541Y-188430459D01*
X32278230Y-188359483D01*
X32309152Y-188308752D01*
X33092899Y-187525006D01*
X33920253Y-186697652D01*
X33928539Y-186690112D01*
X33935018Y-186686000D01*
X33981644Y-186636348D01*
X33984398Y-186633507D01*
X34004135Y-186613770D01*
X34006615Y-186610573D01*
X34014320Y-186601551D01*
X34017753Y-186597895D01*
X34044586Y-186569321D01*
X34048405Y-186562375D01*
X34048407Y-186562372D01*
X34054348Y-186551566D01*
X34065199Y-186535047D01*
X34072758Y-186525301D01*
X34077614Y-186519041D01*
X34080759Y-186511772D01*
X34080762Y-186511768D01*
X34095174Y-186478463D01*
X34100391Y-186467813D01*
X34121695Y-186429060D01*
X34126733Y-186409437D01*
X34133137Y-186390734D01*
X34138033Y-186379420D01*
X34138033Y-186379419D01*
X34141181Y-186372145D01*
X34142420Y-186364322D01*
X34142423Y-186364312D01*
X34148099Y-186328476D01*
X34150505Y-186316856D01*
X34159528Y-186281711D01*
X34159528Y-186281710D01*
X34161500Y-186274030D01*
X34161500Y-186253776D01*
X34163051Y-186234065D01*
X34164980Y-186221886D01*
X34166220Y-186214057D01*
X34162059Y-186170038D01*
X34161500Y-186158181D01*
X34161500Y-184396378D01*
X34181502Y-184328257D01*
X34235750Y-184281496D01*
X34311210Y-184247504D01*
X34311214Y-184247502D01*
X34316075Y-184245312D01*
X34321301Y-184241794D01*
X34390913Y-184194928D01*
X34507319Y-184116559D01*
X34514777Y-184109445D01*
X34670278Y-183961103D01*
X34674135Y-183957424D01*
X34811754Y-183772458D01*
X34827618Y-183741257D01*
X34873119Y-183651762D01*
X34916240Y-183566949D01*
X34918376Y-183560072D01*
X34983024Y-183351871D01*
X34984607Y-183346773D01*
X34996522Y-183256876D01*
X35014198Y-183123511D01*
X35014198Y-183123506D01*
X35014898Y-183118226D01*
X35013669Y-183085475D01*
X35006927Y-182905913D01*
X35006249Y-182887842D01*
X34972687Y-182727885D01*
X45292000Y-182727885D01*
X45296475Y-182743124D01*
X45297865Y-182744329D01*
X45305548Y-182746000D01*
X46727885Y-182746000D01*
X46743124Y-182741525D01*
X46744329Y-182740135D01*
X46746000Y-182732452D01*
X46746000Y-181310116D01*
X46741525Y-181294877D01*
X46740135Y-181293672D01*
X46732452Y-181292001D01*
X45755331Y-181292001D01*
X45748510Y-181292371D01*
X45697648Y-181297895D01*
X45682396Y-181301521D01*
X45561946Y-181346676D01*
X45546351Y-181355214D01*
X45444276Y-181431715D01*
X45431715Y-181444276D01*
X45355214Y-181546351D01*
X45346676Y-181561946D01*
X45301522Y-181682394D01*
X45297895Y-181697649D01*
X45292369Y-181748514D01*
X45292000Y-181755328D01*
X45292000Y-182727885D01*
X34972687Y-182727885D01*
X34958907Y-182662209D01*
X34949958Y-182639548D01*
X34876185Y-182452744D01*
X34876184Y-182452742D01*
X34874224Y-182447779D01*
X34871037Y-182442526D01*
X34757390Y-182255243D01*
X34754623Y-182250683D01*
X34745536Y-182240211D01*
X34607023Y-182080588D01*
X34607021Y-182080586D01*
X34603523Y-182076555D01*
X34561970Y-182042484D01*
X34429373Y-181933760D01*
X34429367Y-181933756D01*
X34425245Y-181930376D01*
X34414387Y-181924195D01*
X34393265Y-181912171D01*
X34343959Y-181861088D01*
X34330098Y-181791458D01*
X34356082Y-181725387D01*
X34385232Y-181698149D01*
X34502578Y-181619148D01*
X34510870Y-181612481D01*
X34669900Y-181460772D01*
X34676941Y-181452814D01*
X34808141Y-181276475D01*
X34813745Y-181267438D01*
X34913357Y-181071516D01*
X34917357Y-181061665D01*
X34982534Y-180851760D01*
X34984817Y-180841376D01*
X34986861Y-180825957D01*
X34984665Y-180811793D01*
X34971478Y-180808000D01*
X32086808Y-180808000D01*
X32073277Y-180811973D01*
X32071752Y-180822580D01*
X32096477Y-180940421D01*
X32099537Y-180950617D01*
X32180263Y-181155029D01*
X32184994Y-181164561D01*
X32299016Y-181352462D01*
X32305280Y-181361052D01*
X32449327Y-181527052D01*
X32456958Y-181534472D01*
X32626911Y-181673826D01*
X32635674Y-181679848D01*
X32662711Y-181695238D01*
X32712018Y-181746320D01*
X32725880Y-181815951D01*
X32699897Y-181882022D01*
X32670747Y-181909261D01*
X32661779Y-181915299D01*
X32548681Y-181991441D01*
X32381865Y-182150576D01*
X32244246Y-182335542D01*
X32241830Y-182340293D01*
X32241828Y-182340297D01*
X32198002Y-182426498D01*
X32139760Y-182541051D01*
X32138178Y-182546145D01*
X32138177Y-182546148D01*
X32098794Y-182672982D01*
X32071393Y-182761227D01*
X32070692Y-182766516D01*
X32051491Y-182911391D01*
X32041102Y-182989774D01*
X32041302Y-182995103D01*
X32041302Y-182995105D01*
X32041486Y-183000000D01*
X32049751Y-183220158D01*
X32097093Y-183445791D01*
X32099051Y-183450750D01*
X32099052Y-183450752D01*
X32159164Y-183602963D01*
X32181776Y-183660221D01*
X32301377Y-183857317D01*
X32304874Y-183861347D01*
X32440674Y-184017843D01*
X32452477Y-184031445D01*
X32456608Y-184034832D01*
X32626627Y-184174240D01*
X32626633Y-184174244D01*
X32630755Y-184177624D01*
X32830833Y-184291515D01*
X32880138Y-184342596D01*
X32894500Y-184401016D01*
X32894500Y-185879406D01*
X32874498Y-185947527D01*
X32857595Y-185968501D01*
X31413248Y-187412848D01*
X31350936Y-187446874D01*
X31291541Y-187445459D01*
X31233409Y-187429882D01*
X31233398Y-187429880D01*
X31228087Y-187428457D01*
X31000000Y-187408502D01*
X30771913Y-187428457D01*
X30766600Y-187429881D01*
X30766598Y-187429881D01*
X30556067Y-187486293D01*
X30556065Y-187486294D01*
X30550757Y-187487716D01*
X30545776Y-187490039D01*
X30545775Y-187490039D01*
X30348238Y-187582151D01*
X30348233Y-187582154D01*
X30343251Y-187584477D01*
X30256704Y-187645078D01*
X30160211Y-187712643D01*
X30160208Y-187712645D01*
X30155700Y-187715802D01*
X29993802Y-187877700D01*
X29990645Y-187882208D01*
X29990643Y-187882211D01*
X29972688Y-187907854D01*
X29862477Y-188065251D01*
X29860154Y-188070233D01*
X29860151Y-188070238D01*
X29819218Y-188158020D01*
X29765716Y-188272757D01*
X29764294Y-188278065D01*
X29764293Y-188278067D01*
X29718910Y-188447438D01*
X29706457Y-188493913D01*
X29686502Y-188722000D01*
X28508000Y-188722000D01*
X28508000Y-166128522D01*
X31229273Y-166128522D01*
X31276764Y-166305761D01*
X31280510Y-166316053D01*
X31372586Y-166513511D01*
X31378069Y-166523007D01*
X31503028Y-166701467D01*
X31510084Y-166709875D01*
X31664125Y-166863916D01*
X31672533Y-166870972D01*
X31850993Y-166995931D01*
X31860489Y-167001414D01*
X32057947Y-167093490D01*
X32068239Y-167097236D01*
X32240503Y-167143394D01*
X32254599Y-167143058D01*
X32258000Y-167135116D01*
X32258000Y-167129967D01*
X32766000Y-167129967D01*
X32769973Y-167143498D01*
X32778522Y-167144727D01*
X32955761Y-167097236D01*
X32966053Y-167093490D01*
X33163511Y-167001414D01*
X33173007Y-166995931D01*
X33351467Y-166870972D01*
X33359875Y-166863916D01*
X33513916Y-166709875D01*
X33520972Y-166701467D01*
X33645931Y-166523007D01*
X33651414Y-166513511D01*
X33743490Y-166316053D01*
X33747236Y-166305761D01*
X33793394Y-166133497D01*
X33793058Y-166119401D01*
X33785116Y-166116000D01*
X32784115Y-166116000D01*
X32768876Y-166120475D01*
X32767671Y-166121865D01*
X32766000Y-166129548D01*
X32766000Y-167129967D01*
X32258000Y-167129967D01*
X32258000Y-166134115D01*
X32253525Y-166118876D01*
X32252135Y-166117671D01*
X32244452Y-166116000D01*
X31244033Y-166116000D01*
X31230502Y-166119973D01*
X31229273Y-166128522D01*
X28508000Y-166128522D01*
X28508000Y-165590503D01*
X31230606Y-165590503D01*
X31230942Y-165604599D01*
X31238884Y-165608000D01*
X32239885Y-165608000D01*
X32255124Y-165603525D01*
X32256329Y-165602135D01*
X32258000Y-165594452D01*
X32258000Y-165589885D01*
X32766000Y-165589885D01*
X32770475Y-165605124D01*
X32771865Y-165606329D01*
X32779548Y-165608000D01*
X33779967Y-165608000D01*
X33793498Y-165604027D01*
X33794727Y-165595478D01*
X33747236Y-165418239D01*
X33743490Y-165407947D01*
X33651414Y-165210489D01*
X33645931Y-165200993D01*
X33520972Y-165022533D01*
X33513916Y-165014125D01*
X33359875Y-164860084D01*
X33351467Y-164853028D01*
X33173007Y-164728069D01*
X33163511Y-164722586D01*
X32966053Y-164630510D01*
X32955761Y-164626764D01*
X32783497Y-164580606D01*
X32769401Y-164580942D01*
X32766000Y-164588884D01*
X32766000Y-165589885D01*
X32258000Y-165589885D01*
X32258000Y-164594033D01*
X32254027Y-164580502D01*
X32245478Y-164579273D01*
X32068239Y-164626764D01*
X32057947Y-164630510D01*
X31860489Y-164722586D01*
X31850993Y-164728069D01*
X31672533Y-164853028D01*
X31664125Y-164860084D01*
X31510084Y-165014125D01*
X31503028Y-165022533D01*
X31378069Y-165200993D01*
X31372586Y-165210489D01*
X31280510Y-165407947D01*
X31276764Y-165418239D01*
X31230606Y-165590503D01*
X28508000Y-165590503D01*
X28508000Y-163702000D01*
X28528002Y-163633879D01*
X28581658Y-163587386D01*
X28634000Y-163576000D01*
X96393492Y-163576000D01*
X96461613Y-163596002D01*
G37*
%TD.AperFunction*%
%TD*%
M02*
