%TF.GenerationSoftware,KiCad,Pcbnew,6.0.0*%
%TF.CreationDate,2022-02-05T14:24:53+01:00*%
%TF.ProjectId,diy-schematics,6469792d-7363-4686-956d-61746963732e,rev?*%
%TF.SameCoordinates,Original*%
%TF.FileFunction,Soldermask,Top*%
%TF.FilePolarity,Negative*%
%FSLAX46Y46*%
G04 Gerber Fmt 4.6, Leading zero omitted, Abs format (unit mm)*
G04 Created by KiCad (PCBNEW 6.0.0) date 2022-02-05 14:24:53*
%MOMM*%
%LPD*%
G01*
G04 APERTURE LIST*
G04 Aperture macros list*
%AMRoundRect*
0 Rectangle with rounded corners*
0 $1 Rounding radius*
0 $2 $3 $4 $5 $6 $7 $8 $9 X,Y pos of 4 corners*
0 Add a 4 corners polygon primitive as box body*
4,1,4,$2,$3,$4,$5,$6,$7,$8,$9,$2,$3,0*
0 Add four circle primitives for the rounded corners*
1,1,$1+$1,$2,$3*
1,1,$1+$1,$4,$5*
1,1,$1+$1,$6,$7*
1,1,$1+$1,$8,$9*
0 Add four rect primitives between the rounded corners*
20,1,$1+$1,$2,$3,$4,$5,0*
20,1,$1+$1,$4,$5,$6,$7,0*
20,1,$1+$1,$6,$7,$8,$9,0*
20,1,$1+$1,$8,$9,$2,$3,0*%
G04 Aperture macros list end*
%ADD10R,1.600000X1.600000*%
%ADD11C,1.600000*%
%ADD12O,1.600000X1.600000*%
%ADD13R,2.400000X2.400000*%
%ADD14C,2.400000*%
%ADD15RoundRect,0.250000X0.750000X-0.600000X0.750000X0.600000X-0.750000X0.600000X-0.750000X-0.600000X0*%
%ADD16O,2.000000X1.700000*%
%ADD17R,1.900000X1.800000*%
%ADD18R,1.900000X2.300000*%
%ADD19R,1.400000X0.400000*%
%ADD20R,1.700000X1.700000*%
%ADD21O,1.700000X1.700000*%
%ADD22RoundRect,0.250000X-0.725000X0.600000X-0.725000X-0.600000X0.725000X-0.600000X0.725000X0.600000X0*%
%ADD23O,1.950000X1.700000*%
%ADD24O,1.400000X1.400000*%
%ADD25C,1.400000*%
%ADD26R,1.500000X1.500000*%
%ADD27O,1.500000X1.500000*%
%ADD28C,4.400000*%
G04 APERTURE END LIST*
D10*
%TO.C,C1*%
X41656000Y-178054000D03*
D11*
X39656000Y-178054000D03*
%TD*%
D12*
%TO.C,R5*%
X39508000Y-173482000D03*
D11*
X39508000Y-165862000D03*
%TD*%
D13*
%TO.C,C5*%
X79756000Y-167386000D03*
D14*
X79756000Y-172386000D03*
%TD*%
D11*
%TO.C,C10*%
X83312000Y-183134000D03*
X83312000Y-188134000D03*
%TD*%
%TO.C,C3*%
X67310000Y-186864000D03*
X67310000Y-181864000D03*
%TD*%
D14*
%TO.C,C4*%
X90424000Y-180260000D03*
D13*
X90424000Y-175260000D03*
%TD*%
%TO.C,C6*%
X48260000Y-168910000D03*
D14*
X48260000Y-173910000D03*
%TD*%
%TO.C,C7*%
X47000000Y-188000000D03*
D13*
X47000000Y-183000000D03*
%TD*%
D11*
%TO.C,C9*%
X59690000Y-189992000D03*
X64690000Y-189992000D03*
%TD*%
D15*
%TO.C,J2*%
X62000000Y-173000000D03*
D16*
X62000000Y-170500000D03*
%TD*%
D17*
%TO.C,J4*%
X95300000Y-190850000D03*
X95300000Y-193150000D03*
D18*
X95300000Y-188250000D03*
X95300000Y-195750000D03*
D19*
X92450000Y-190700000D03*
X92450000Y-191350000D03*
X92450000Y-192000000D03*
X92450000Y-192650000D03*
X92450000Y-193300000D03*
%TD*%
D20*
%TO.C,J5*%
X87884000Y-195072000D03*
D21*
X87884000Y-192532000D03*
X87884000Y-189992000D03*
X87884000Y-187452000D03*
%TD*%
D22*
%TO.C,J6*%
X33528000Y-178054000D03*
D23*
X33528000Y-180554000D03*
X33528000Y-183054000D03*
%TD*%
D12*
%TO.C,R1*%
X36068000Y-165862000D03*
D11*
X36068000Y-173482000D03*
%TD*%
%TO.C,R2*%
X31000000Y-188722000D03*
D12*
X38620000Y-188722000D03*
%TD*%
D11*
%TO.C,R3*%
X32512000Y-173482000D03*
D12*
X32512000Y-165862000D03*
%TD*%
%TO.C,R4*%
X46380000Y-195000000D03*
D11*
X54000000Y-195000000D03*
%TD*%
%TO.C,R6*%
X64000000Y-193000000D03*
D12*
X71620000Y-193000000D03*
%TD*%
D24*
%TO.C,R7*%
X68072000Y-165354000D03*
D25*
X62992000Y-165354000D03*
%TD*%
%TO.C,R8*%
X56642000Y-190246000D03*
D24*
X56642000Y-195326000D03*
%TD*%
D10*
%TO.C,U1*%
X56000000Y-178000000D03*
D12*
X63620000Y-185620000D03*
X56000000Y-180540000D03*
X63620000Y-183080000D03*
X56000000Y-183080000D03*
X63620000Y-180540000D03*
X56000000Y-185620000D03*
X63620000Y-178000000D03*
%TD*%
D26*
%TO.C,U2*%
X80010000Y-179832000D03*
D27*
X80010000Y-182372000D03*
X80010000Y-187452000D03*
X80010000Y-189992000D03*
X80010000Y-192532000D03*
%TD*%
D11*
%TO.C,C2*%
X42132000Y-194310000D03*
D10*
X40132000Y-194310000D03*
%TD*%
%TO.C,C8*%
X72000000Y-185000000D03*
D11*
X72000000Y-183000000D03*
%TD*%
D15*
%TO.C,J3*%
X68834000Y-177272000D03*
D16*
X68834000Y-174772000D03*
%TD*%
D28*
%TO.C,H1*%
X56388000Y-166878000D03*
%TD*%
%TO.C,H2*%
X93000000Y-167000000D03*
%TD*%
%TO.C,H3*%
X32000000Y-194000000D03*
%TD*%
M02*
