M48
; DRILL file {KiCad 6.0.0} date Sat 05 Feb 2022 02:24:15 PM CET
; FORMAT={-:-/ absolute / metric / decimal}
; #@! TF.CreationDate,2022-02-05T14:24:15+01:00
; #@! TF.GenerationSoftware,Kicad,Pcbnew,6.0.0
; #@! TF.FileFunction,Plated,1,2,PTH
FMAT,2
METRIC
; #@! TA.AperFunction,Plated,PTH,ComponentDrill
T1C0.700
; #@! TA.AperFunction,Plated,PTH,ComponentDrill
T2C0.800
; #@! TA.AperFunction,Plated,PTH,ComponentDrill
T3C0.950
; #@! TA.AperFunction,Plated,PTH,ComponentDrill
T4C1.000
; #@! TA.AperFunction,Plated,PTH,ComponentDrill
T5C1.200
; #@! TA.AperFunction,Plated,PTH,ComponentDrill
T6C2.200
%
G90
G05
T1
X56.642Y-190.246
X56.642Y-195.326
X62.992Y-165.354
X68.072Y-165.354
X80.01Y-179.832
X80.01Y-182.372
X80.01Y-187.452
X80.01Y-189.992
X80.01Y-192.532
T2
X31.0Y-188.722
X32.512Y-165.862
X32.512Y-173.482
X36.068Y-165.862
X36.068Y-173.482
X38.62Y-188.722
X39.508Y-165.862
X39.508Y-173.482
X39.656Y-178.054
X40.132Y-194.31
X41.656Y-178.054
X42.132Y-194.31
X46.38Y-195.0
X54.0Y-195.0
X56.0Y-178.0
X56.0Y-180.54
X56.0Y-183.08
X56.0Y-185.62
X59.69Y-189.992
X63.62Y-178.0
X63.62Y-180.54
X63.62Y-183.08
X63.62Y-185.62
X64.0Y-193.0
X64.69Y-189.992
X67.31Y-181.864
X67.31Y-186.864
X71.62Y-193.0
X72.0Y-183.0
X72.0Y-185.0
X83.312Y-183.134
X83.312Y-188.134
T3
X33.528Y-178.054
X33.528Y-180.554
X33.528Y-183.054
T4
X62.0Y-170.5
X62.0Y-173.0
X68.834Y-174.772
X68.834Y-177.272
X87.884Y-187.452
X87.884Y-189.992
X87.884Y-192.532
X87.884Y-195.072
T5
X47.0Y-183.0
X47.0Y-188.0
X48.26Y-168.91
X48.26Y-173.91
X79.756Y-167.386
X79.756Y-172.386
X90.424Y-175.26
X90.424Y-180.26
T6
X32.0Y-194.0
X56.388Y-166.878
X93.0Y-167.0
T0
M30
