%TF.GenerationSoftware,KiCad,Pcbnew,5.1.12*%
%TF.CreationDate,2022-01-03T10:53:03+01:00*%
%TF.ProjectId,diy-schematics,6469792d-7363-4686-956d-61746963732e,rev?*%
%TF.SameCoordinates,Original*%
%TF.FileFunction,Copper,L1,Top*%
%TF.FilePolarity,Positive*%
%FSLAX46Y46*%
G04 Gerber Fmt 4.6, Leading zero omitted, Abs format (unit mm)*
G04 Created by KiCad (PCBNEW 5.1.12) date 2022-01-03 10:53:03*
%MOMM*%
%LPD*%
G01*
G04 APERTURE LIST*
%TA.AperFunction,ComponentPad*%
%ADD10R,1.600000X1.600000*%
%TD*%
%TA.AperFunction,ComponentPad*%
%ADD11C,1.600000*%
%TD*%
%TA.AperFunction,ComponentPad*%
%ADD12O,1.600000X1.600000*%
%TD*%
%TA.AperFunction,ComponentPad*%
%ADD13R,2.400000X2.400000*%
%TD*%
%TA.AperFunction,ComponentPad*%
%ADD14C,2.400000*%
%TD*%
%TA.AperFunction,ComponentPad*%
%ADD15O,2.000000X1.700000*%
%TD*%
%TA.AperFunction,SMDPad,CuDef*%
%ADD16R,1.900000X1.800000*%
%TD*%
%TA.AperFunction,SMDPad,CuDef*%
%ADD17R,1.900000X2.300000*%
%TD*%
%TA.AperFunction,SMDPad,CuDef*%
%ADD18R,1.400000X0.400000*%
%TD*%
%TA.AperFunction,ComponentPad*%
%ADD19R,1.700000X1.700000*%
%TD*%
%TA.AperFunction,ComponentPad*%
%ADD20O,1.700000X1.700000*%
%TD*%
%TA.AperFunction,ComponentPad*%
%ADD21O,1.950000X1.700000*%
%TD*%
%TA.AperFunction,ComponentPad*%
%ADD22O,1.400000X1.400000*%
%TD*%
%TA.AperFunction,ComponentPad*%
%ADD23C,1.400000*%
%TD*%
%TA.AperFunction,ComponentPad*%
%ADD24R,1.500000X1.500000*%
%TD*%
%TA.AperFunction,ComponentPad*%
%ADD25O,1.500000X1.500000*%
%TD*%
%TA.AperFunction,ComponentPad*%
%ADD26C,4.400000*%
%TD*%
%TA.AperFunction,Conductor*%
%ADD27C,0.250000*%
%TD*%
%TA.AperFunction,Conductor*%
%ADD28C,0.254000*%
%TD*%
%TA.AperFunction,Conductor*%
%ADD29C,0.100000*%
%TD*%
G04 APERTURE END LIST*
D10*
%TO.P,C1,1*%
%TO.N,Net-(C1-Pad1)*%
X41656000Y-178054000D03*
D11*
%TO.P,C1,2*%
%TO.N,Net-(C1-Pad2)*%
X39656000Y-178054000D03*
%TD*%
D12*
%TO.P,R5,2*%
%TO.N,Earth*%
X39508000Y-173482000D03*
D11*
%TO.P,R5,1*%
%TO.N,Net-(C3-Pad1)*%
X39508000Y-165862000D03*
%TD*%
D13*
%TO.P,C5,1*%
%TO.N,VBUS*%
X79756000Y-167386000D03*
D14*
%TO.P,C5,2*%
%TO.N,Earth*%
X79756000Y-172386000D03*
%TD*%
D11*
%TO.P,C10,1*%
%TO.N,VBUS*%
X83312000Y-183134000D03*
%TO.P,C10,2*%
%TO.N,Earth*%
X83312000Y-188134000D03*
%TD*%
%TO.P,C3,2*%
%TO.N,Earth*%
X67310000Y-186864000D03*
%TO.P,C3,1*%
%TO.N,Net-(C3-Pad1)*%
X67310000Y-181864000D03*
%TD*%
D14*
%TO.P,C4,2*%
%TO.N,Earth*%
X90424000Y-180260000D03*
D13*
%TO.P,C4,1*%
%TO.N,VBUS*%
X90424000Y-175260000D03*
%TD*%
%TO.P,C6,1*%
%TO.N,Net-(C3-Pad1)*%
X48260000Y-168910000D03*
D14*
%TO.P,C6,2*%
%TO.N,Earth*%
X48260000Y-173910000D03*
%TD*%
%TO.P,C7,2*%
%TO.N,Net-(C7-Pad2)*%
X47000000Y-188000000D03*
D13*
%TO.P,C7,1*%
%TO.N,Earth*%
X47000000Y-183000000D03*
%TD*%
D11*
%TO.P,C9,1*%
%TO.N,Net-(C7-Pad2)*%
X59690000Y-189992000D03*
%TO.P,C9,2*%
%TO.N,Earth*%
X64690000Y-189992000D03*
%TD*%
%TO.P,J2,1*%
%TO.N,Net-(J2-Pad1)*%
%TA.AperFunction,ComponentPad*%
G36*
G01*
X62750000Y-173850000D02*
X61250000Y-173850000D01*
G75*
G02*
X61000000Y-173600000I0J250000D01*
G01*
X61000000Y-172400000D01*
G75*
G02*
X61250000Y-172150000I250000J0D01*
G01*
X62750000Y-172150000D01*
G75*
G02*
X63000000Y-172400000I0J-250000D01*
G01*
X63000000Y-173600000D01*
G75*
G02*
X62750000Y-173850000I-250000J0D01*
G01*
G37*
%TD.AperFunction*%
D15*
%TO.P,J2,2*%
%TO.N,Net-(J2-Pad2)*%
X62000000Y-170500000D03*
%TD*%
D16*
%TO.P,J4,6*%
%TO.N,Earth*%
X95300000Y-190850000D03*
X95300000Y-193150000D03*
D17*
X95300000Y-188250000D03*
X95300000Y-195750000D03*
D18*
%TO.P,J4,5*%
X92450000Y-190700000D03*
%TO.P,J4,4*%
%TO.N,Net-(J4-Pad4)*%
X92450000Y-191350000D03*
%TO.P,J4,3*%
%TO.N,Net-(J4-Pad3)*%
X92450000Y-192000000D03*
%TO.P,J4,2*%
%TO.N,Net-(J4-Pad2)*%
X92450000Y-192650000D03*
%TO.P,J4,1*%
%TO.N,VBUS*%
X92450000Y-193300000D03*
%TD*%
D19*
%TO.P,J5,1*%
%TO.N,VBUS*%
X87884000Y-195072000D03*
D20*
%TO.P,J5,2*%
%TO.N,Net-(J4-Pad2)*%
X87884000Y-192532000D03*
%TO.P,J5,3*%
%TO.N,Net-(J4-Pad3)*%
X87884000Y-189992000D03*
%TO.P,J5,4*%
%TO.N,Earth*%
X87884000Y-187452000D03*
%TD*%
%TO.P,J6,1*%
%TO.N,Net-(C1-Pad1)*%
%TA.AperFunction,ComponentPad*%
G36*
G01*
X32803000Y-177204000D02*
X34253000Y-177204000D01*
G75*
G02*
X34503000Y-177454000I0J-250000D01*
G01*
X34503000Y-178654000D01*
G75*
G02*
X34253000Y-178904000I-250000J0D01*
G01*
X32803000Y-178904000D01*
G75*
G02*
X32553000Y-178654000I0J250000D01*
G01*
X32553000Y-177454000D01*
G75*
G02*
X32803000Y-177204000I250000J0D01*
G01*
G37*
%TD.AperFunction*%
D21*
%TO.P,J6,2*%
%TO.N,Earth*%
X33528000Y-180554000D03*
%TO.P,J6,3*%
%TO.N,Net-(C2-Pad1)*%
X33528000Y-183054000D03*
%TD*%
D12*
%TO.P,R1,2*%
%TO.N,Net-(C3-Pad1)*%
X36068000Y-165862000D03*
D11*
%TO.P,R1,1*%
%TO.N,Net-(C1-Pad1)*%
X36068000Y-173482000D03*
%TD*%
%TO.P,R2,1*%
%TO.N,Net-(C2-Pad1)*%
X31000000Y-188722000D03*
D12*
%TO.P,R2,2*%
%TO.N,Net-(C7-Pad2)*%
X38620000Y-188722000D03*
%TD*%
D11*
%TO.P,R3,1*%
%TO.N,Net-(C1-Pad2)*%
X32512000Y-173482000D03*
D12*
%TO.P,R3,2*%
%TO.N,Earth*%
X32512000Y-165862000D03*
%TD*%
%TO.P,R4,2*%
%TO.N,Earth*%
X46380000Y-195000000D03*
D11*
%TO.P,R4,1*%
%TO.N,Net-(C2-Pad2)*%
X54000000Y-195000000D03*
%TD*%
%TO.P,R6,1*%
%TO.N,Net-(C7-Pad2)*%
X64000000Y-193000000D03*
D12*
%TO.P,R6,2*%
%TO.N,Earth*%
X71620000Y-193000000D03*
%TD*%
D22*
%TO.P,R7,2*%
%TO.N,+15V*%
X68072000Y-165354000D03*
D23*
%TO.P,R7,1*%
%TO.N,Net-(C3-Pad1)*%
X62992000Y-165354000D03*
%TD*%
%TO.P,R8,1*%
%TO.N,Net-(C7-Pad2)*%
X56642000Y-190246000D03*
D22*
%TO.P,R8,2*%
%TO.N,-15V*%
X56642000Y-195326000D03*
%TD*%
D10*
%TO.P,U1,1*%
%TO.N,Net-(J2-Pad2)*%
X56000000Y-178000000D03*
D12*
%TO.P,U1,5*%
%TO.N,Earth*%
X63620000Y-185620000D03*
%TO.P,U1,2*%
%TO.N,Net-(C1-Pad2)*%
X56000000Y-180540000D03*
%TO.P,U1,6*%
%TO.N,Net-(C8-Pad1)*%
X63620000Y-183080000D03*
%TO.P,U1,3*%
%TO.N,Net-(C2-Pad2)*%
X56000000Y-183080000D03*
%TO.P,U1,7*%
%TO.N,Net-(C3-Pad1)*%
X63620000Y-180540000D03*
%TO.P,U1,4*%
%TO.N,Net-(C7-Pad2)*%
X56000000Y-185620000D03*
%TO.P,U1,8*%
%TO.N,Net-(J2-Pad1)*%
X63620000Y-178000000D03*
%TD*%
D24*
%TO.P,U2,1*%
%TO.N,VBUS*%
X80010000Y-179832000D03*
D25*
%TO.P,U2,2*%
%TO.N,Earth*%
X80010000Y-182372000D03*
%TO.P,U2,4*%
%TO.N,-15V*%
X80010000Y-187452000D03*
%TO.P,U2,5*%
%TO.N,Earth*%
X80010000Y-189992000D03*
%TO.P,U2,6*%
%TO.N,+15V*%
X80010000Y-192532000D03*
%TD*%
D11*
%TO.P,C2,2*%
%TO.N,Net-(C2-Pad2)*%
X42132000Y-194310000D03*
D10*
%TO.P,C2,1*%
%TO.N,Net-(C2-Pad1)*%
X40132000Y-194310000D03*
%TD*%
%TO.P,C8,1*%
%TO.N,Net-(C8-Pad1)*%
X72000000Y-185000000D03*
D11*
%TO.P,C8,2*%
%TO.N,Net-(C8-Pad2)*%
X72000000Y-183000000D03*
%TD*%
%TO.P,J3,1*%
%TO.N,Net-(C8-Pad2)*%
%TA.AperFunction,ComponentPad*%
G36*
G01*
X69584000Y-177888000D02*
X68084000Y-177888000D01*
G75*
G02*
X67834000Y-177638000I0J250000D01*
G01*
X67834000Y-176438000D01*
G75*
G02*
X68084000Y-176188000I250000J0D01*
G01*
X69584000Y-176188000D01*
G75*
G02*
X69834000Y-176438000I0J-250000D01*
G01*
X69834000Y-177638000D01*
G75*
G02*
X69584000Y-177888000I-250000J0D01*
G01*
G37*
%TD.AperFunction*%
D15*
%TO.P,J3,2*%
%TO.N,Earth*%
X68834000Y-174538000D03*
%TD*%
D26*
%TO.P,H1,1*%
%TO.N,Earth*%
X56388000Y-166878000D03*
%TD*%
%TO.P,H2,1*%
%TO.N,Earth*%
X93000000Y-167000000D03*
%TD*%
%TO.P,H3,1*%
%TO.N,Earth*%
X32000000Y-194000000D03*
%TD*%
D27*
%TO.N,Earth*%
X48170000Y-174000000D02*
X48260000Y-173910000D01*
X67000000Y-187000000D02*
X68000000Y-187000000D01*
X95300000Y-190850000D02*
X95074999Y-190624999D01*
X67682000Y-187000000D02*
X68000000Y-187000000D01*
X67174000Y-187000000D02*
X67310000Y-186864000D01*
X67446000Y-187000000D02*
X67310000Y-186864000D01*
X39508000Y-173482000D02*
X41540000Y-175514000D01*
X95300000Y-190850000D02*
X94330000Y-190850000D01*
X94180000Y-190700000D02*
X92450000Y-190700000D01*
X94330000Y-190850000D02*
X94180000Y-190700000D01*
%TO.N,Net-(C1-Pad1)*%
X41656000Y-177938630D02*
X41656000Y-178054000D01*
X37199370Y-173482000D02*
X41656000Y-177938630D01*
X36068000Y-173482000D02*
X37199370Y-173482000D01*
X40330999Y-179379001D02*
X41656000Y-178054000D01*
X35828001Y-179379001D02*
X40330999Y-179379001D01*
X34503000Y-178054000D02*
X35828001Y-179379001D01*
X33528000Y-178054000D02*
X34503000Y-178054000D01*
%TO.N,Net-(C1-Pad2)*%
X37084000Y-178054000D02*
X39656000Y-178054000D01*
X32512000Y-173482000D02*
X37084000Y-178054000D01*
X33837001Y-172156999D02*
X32512000Y-173482000D01*
X40144001Y-172156999D02*
X33837001Y-172156999D01*
X48527002Y-180540000D02*
X40144001Y-172156999D01*
X56000000Y-180540000D02*
X48527002Y-180540000D01*
%TO.N,Net-(C2-Pad2)*%
X42767001Y-193674999D02*
X42132000Y-194310000D01*
X52674999Y-193674999D02*
X42767001Y-193674999D01*
X54000000Y-195000000D02*
X52674999Y-193674999D01*
X40655997Y-184725001D02*
X54354999Y-184725001D01*
X54354999Y-184725001D02*
X56000000Y-183080000D01*
X37294999Y-188085999D02*
X40655997Y-184725001D01*
X37294999Y-189358001D02*
X37294999Y-188085999D01*
X38658998Y-190722000D02*
X37294999Y-189358001D01*
X39675370Y-190722000D02*
X38658998Y-190722000D01*
X42132000Y-193178630D02*
X39675370Y-190722000D01*
X42132000Y-194310000D02*
X42132000Y-193178630D01*
%TO.N,Net-(C2-Pad1)*%
X33528000Y-186194000D02*
X31000000Y-188722000D01*
X33528000Y-183054000D02*
X33528000Y-186194000D01*
X36588000Y-194310000D02*
X31000000Y-188722000D01*
X40132000Y-194310000D02*
X36588000Y-194310000D01*
%TO.N,Net-(C7-Pad2)*%
X59682000Y-190000000D02*
X59690000Y-189992000D01*
X46278000Y-188722000D02*
X47000000Y-188000000D01*
X38620000Y-188722000D02*
X46278000Y-188722000D01*
X53620000Y-188000000D02*
X56000000Y-185620000D01*
X54396000Y-188000000D02*
X56642000Y-190246000D01*
X52872000Y-188000000D02*
X54396000Y-188000000D01*
X47000000Y-188000000D02*
X52872000Y-188000000D01*
X52872000Y-188000000D02*
X53620000Y-188000000D01*
X59436000Y-190246000D02*
X59690000Y-189992000D01*
X56642000Y-190246000D02*
X59436000Y-190246000D01*
X62698000Y-193000000D02*
X59690000Y-189992000D01*
X64000000Y-193000000D02*
X62698000Y-193000000D01*
%TO.N,Net-(C8-Pad1)*%
X63620000Y-183080000D02*
X64970000Y-183080000D01*
X66890000Y-185000000D02*
X72000000Y-185000000D01*
X64970000Y-183080000D02*
X66890000Y-185000000D01*
%TO.N,Net-(C8-Pad2)*%
X68834000Y-179834000D02*
X72000000Y-183000000D01*
X68834000Y-177038000D02*
X68834000Y-179834000D01*
%TO.N,Net-(J2-Pad2)*%
X56000000Y-176500000D02*
X62000000Y-170500000D01*
X56000000Y-178000000D02*
X56000000Y-176500000D01*
%TO.N,Net-(J2-Pad1)*%
X63620000Y-174620000D02*
X62000000Y-173000000D01*
X63620000Y-178000000D02*
X63620000Y-174620000D01*
%TO.N,Net-(C3-Pad1)*%
X48170000Y-169000000D02*
X48260000Y-168910000D01*
X65986000Y-180540000D02*
X67310000Y-181864000D01*
X63620000Y-180540000D02*
X65986000Y-180540000D01*
X36068000Y-165862000D02*
X39508000Y-165862000D01*
X45212000Y-165862000D02*
X48260000Y-168910000D01*
X39508000Y-165862000D02*
X45212000Y-165862000D01*
X63620000Y-180540000D02*
X64945001Y-179214999D01*
X49276000Y-169926000D02*
X48260000Y-168910000D01*
X63620000Y-180540000D02*
X65024000Y-179136000D01*
X65024000Y-167386000D02*
X62992000Y-165354000D01*
X65024000Y-179136000D02*
X65024000Y-167386000D01*
X58166000Y-170180000D02*
X62992000Y-165354000D01*
X49530000Y-170180000D02*
X58166000Y-170180000D01*
X48260000Y-168910000D02*
X49530000Y-170180000D01*
%TO.N,VBUS*%
X82550000Y-167386000D02*
X90424000Y-175260000D01*
X79756000Y-167386000D02*
X82550000Y-167386000D01*
X90424000Y-176022000D02*
X83312000Y-183134000D01*
X90424000Y-175260000D02*
X90424000Y-176022000D01*
X80010000Y-179832000D02*
X83312000Y-183134000D01*
X86508999Y-193696999D02*
X87884000Y-195072000D01*
X86508999Y-186330999D02*
X86508999Y-193696999D01*
X83312000Y-183134000D02*
X86508999Y-186330999D01*
X89656000Y-193300000D02*
X87884000Y-195072000D01*
X92450000Y-193300000D02*
X89656000Y-193300000D01*
%TO.N,Net-(J4-Pad3)*%
X89892000Y-192000000D02*
X87884000Y-189992000D01*
X92450000Y-192000000D02*
X89892000Y-192000000D01*
%TO.N,Net-(J4-Pad2)*%
X88048000Y-192206000D02*
X88113001Y-192271001D01*
X88238000Y-192396000D02*
X88048000Y-192206000D01*
X88002000Y-192650000D02*
X87884000Y-192532000D01*
X92450000Y-192650000D02*
X88002000Y-192650000D01*
%TO.N,+15V*%
X76252999Y-173534999D02*
X68072000Y-165354000D01*
X76252999Y-188774999D02*
X76252999Y-173534999D01*
X80010000Y-192532000D02*
X76252999Y-188774999D01*
%TO.N,-15V*%
X79103002Y-195326000D02*
X56642000Y-195326000D01*
X81285001Y-193144001D02*
X79103002Y-195326000D01*
X81285001Y-188727001D02*
X81285001Y-193144001D01*
X80010000Y-187452000D02*
X81285001Y-188727001D01*
%TD*%
D28*
%TO.N,Earth*%
X96349241Y-186471702D02*
X96250000Y-186461928D01*
X95585750Y-186465000D01*
X95427000Y-186623750D01*
X95427000Y-188123000D01*
X95447000Y-188123000D01*
X95447000Y-188377000D01*
X95427000Y-188377000D01*
X95427000Y-190723000D01*
X95447000Y-190723000D01*
X95447000Y-190977000D01*
X95427000Y-190977000D01*
X95427000Y-193023000D01*
X95447000Y-193023000D01*
X95447000Y-193277000D01*
X95427000Y-193277000D01*
X95427000Y-195623000D01*
X95447000Y-195623000D01*
X95447000Y-195877000D01*
X95427000Y-195877000D01*
X95427000Y-195897000D01*
X95173000Y-195897000D01*
X95173000Y-195877000D01*
X93873750Y-195877000D01*
X93715000Y-196035750D01*
X93711928Y-196900000D01*
X93724188Y-197024482D01*
X93760498Y-197144180D01*
X93819463Y-197254494D01*
X93889636Y-197340000D01*
X28660000Y-197340000D01*
X28660000Y-195989775D01*
X30189830Y-195989775D01*
X30429976Y-196377018D01*
X30923877Y-196637641D01*
X31459133Y-196796901D01*
X32015174Y-196848678D01*
X32570632Y-196790981D01*
X33104161Y-196626028D01*
X33570024Y-196377018D01*
X33810170Y-195989775D01*
X32000000Y-194179605D01*
X30189830Y-195989775D01*
X28660000Y-195989775D01*
X28660000Y-194015174D01*
X29151322Y-194015174D01*
X29209019Y-194570632D01*
X29373972Y-195104161D01*
X29622982Y-195570024D01*
X30010225Y-195810170D01*
X31820395Y-194000000D01*
X30010225Y-192189830D01*
X29622982Y-192429976D01*
X29362359Y-192923877D01*
X29203099Y-193459133D01*
X29151322Y-194015174D01*
X28660000Y-194015174D01*
X28660000Y-188580665D01*
X29565000Y-188580665D01*
X29565000Y-188863335D01*
X29620147Y-189140574D01*
X29728320Y-189401727D01*
X29885363Y-189636759D01*
X30085241Y-189836637D01*
X30320273Y-189993680D01*
X30581426Y-190101853D01*
X30858665Y-190157000D01*
X31141335Y-190157000D01*
X31323886Y-190120688D01*
X32392480Y-191189282D01*
X31984826Y-191151322D01*
X31429368Y-191209019D01*
X30895839Y-191373972D01*
X30429976Y-191622982D01*
X30189830Y-192010225D01*
X32000000Y-193820395D01*
X32014143Y-193806253D01*
X32193748Y-193985858D01*
X32179605Y-194000000D01*
X33989775Y-195810170D01*
X34377018Y-195570024D01*
X34637641Y-195076123D01*
X34796901Y-194540867D01*
X34848678Y-193984826D01*
X34809343Y-193606146D01*
X36024205Y-194821008D01*
X36047999Y-194850001D01*
X36076992Y-194873795D01*
X36076996Y-194873799D01*
X36136964Y-194923013D01*
X36163724Y-194944974D01*
X36295753Y-195015546D01*
X36439014Y-195059003D01*
X36550667Y-195070000D01*
X36550676Y-195070000D01*
X36587999Y-195073676D01*
X36625322Y-195070000D01*
X38693928Y-195070000D01*
X38693928Y-195110000D01*
X38706188Y-195234482D01*
X38742498Y-195354180D01*
X38801463Y-195464494D01*
X38880815Y-195561185D01*
X38977506Y-195640537D01*
X39087820Y-195699502D01*
X39207518Y-195735812D01*
X39332000Y-195748072D01*
X40932000Y-195748072D01*
X41056482Y-195735812D01*
X41176180Y-195699502D01*
X41286494Y-195640537D01*
X41383185Y-195561185D01*
X41396790Y-195544607D01*
X41452273Y-195581680D01*
X41713426Y-195689853D01*
X41990665Y-195745000D01*
X42273335Y-195745000D01*
X42550574Y-195689853D01*
X42811727Y-195581680D01*
X43046759Y-195424637D01*
X43122357Y-195349039D01*
X44988096Y-195349039D01*
X45028754Y-195483087D01*
X45148963Y-195737420D01*
X45316481Y-195963414D01*
X45524869Y-196152385D01*
X45766119Y-196297070D01*
X46030960Y-196391909D01*
X46253000Y-196270624D01*
X46253000Y-195127000D01*
X46507000Y-195127000D01*
X46507000Y-196270624D01*
X46729040Y-196391909D01*
X46993881Y-196297070D01*
X47235131Y-196152385D01*
X47443519Y-195963414D01*
X47611037Y-195737420D01*
X47731246Y-195483087D01*
X47771904Y-195349039D01*
X47649915Y-195127000D01*
X46507000Y-195127000D01*
X46253000Y-195127000D01*
X45110085Y-195127000D01*
X44988096Y-195349039D01*
X43122357Y-195349039D01*
X43246637Y-195224759D01*
X43403680Y-194989727D01*
X43511853Y-194728574D01*
X43567000Y-194451335D01*
X43567000Y-194434999D01*
X45067470Y-194434999D01*
X45028754Y-194516913D01*
X44988096Y-194650961D01*
X45110085Y-194873000D01*
X46253000Y-194873000D01*
X46253000Y-194853000D01*
X46507000Y-194853000D01*
X46507000Y-194873000D01*
X47649915Y-194873000D01*
X47771904Y-194650961D01*
X47731246Y-194516913D01*
X47692530Y-194434999D01*
X52360198Y-194434999D01*
X52601312Y-194676114D01*
X52565000Y-194858665D01*
X52565000Y-195141335D01*
X52620147Y-195418574D01*
X52728320Y-195679727D01*
X52885363Y-195914759D01*
X53085241Y-196114637D01*
X53320273Y-196271680D01*
X53581426Y-196379853D01*
X53858665Y-196435000D01*
X54141335Y-196435000D01*
X54418574Y-196379853D01*
X54679727Y-196271680D01*
X54914759Y-196114637D01*
X55114637Y-195914759D01*
X55271680Y-195679727D01*
X55325406Y-195550020D01*
X55358304Y-195715405D01*
X55458939Y-195958359D01*
X55605038Y-196177013D01*
X55790987Y-196362962D01*
X56009641Y-196509061D01*
X56252595Y-196609696D01*
X56510514Y-196661000D01*
X56773486Y-196661000D01*
X57031405Y-196609696D01*
X57274359Y-196509061D01*
X57493013Y-196362962D01*
X57678962Y-196177013D01*
X57739775Y-196086000D01*
X79065680Y-196086000D01*
X79103002Y-196089676D01*
X79140324Y-196086000D01*
X79140335Y-196086000D01*
X79251988Y-196075003D01*
X79395249Y-196031546D01*
X79527278Y-195960974D01*
X79643003Y-195866001D01*
X79666806Y-195836997D01*
X81796004Y-193707800D01*
X81825002Y-193684002D01*
X81919975Y-193568277D01*
X81990547Y-193436248D01*
X82034004Y-193292987D01*
X82045001Y-193181334D01*
X82048678Y-193144001D01*
X82045001Y-193106668D01*
X82045001Y-189126702D01*
X82498903Y-189126702D01*
X82570486Y-189370671D01*
X82825996Y-189491571D01*
X83100184Y-189560300D01*
X83382512Y-189574217D01*
X83662130Y-189532787D01*
X83928292Y-189437603D01*
X84053514Y-189370671D01*
X84125097Y-189126702D01*
X83312000Y-188313605D01*
X82498903Y-189126702D01*
X82045001Y-189126702D01*
X82045001Y-188818774D01*
X82075329Y-188875514D01*
X82319298Y-188947097D01*
X83132395Y-188134000D01*
X83491605Y-188134000D01*
X84304702Y-188947097D01*
X84548671Y-188875514D01*
X84669571Y-188620004D01*
X84738300Y-188345816D01*
X84752217Y-188063488D01*
X84710787Y-187783870D01*
X84615603Y-187517708D01*
X84548671Y-187392486D01*
X84304702Y-187320903D01*
X83491605Y-188134000D01*
X83132395Y-188134000D01*
X82319298Y-187320903D01*
X82075329Y-187392486D01*
X81954429Y-187647996D01*
X81885700Y-187922184D01*
X81871783Y-188204512D01*
X81878923Y-188252703D01*
X81825002Y-188187000D01*
X81796005Y-188163203D01*
X81366167Y-187733365D01*
X81395000Y-187588411D01*
X81395000Y-187315589D01*
X81360332Y-187141298D01*
X82498903Y-187141298D01*
X83312000Y-187954395D01*
X84125097Y-187141298D01*
X84053514Y-186897329D01*
X83798004Y-186776429D01*
X83523816Y-186707700D01*
X83241488Y-186693783D01*
X82961870Y-186735213D01*
X82695708Y-186830397D01*
X82570486Y-186897329D01*
X82498903Y-187141298D01*
X81360332Y-187141298D01*
X81341775Y-187048011D01*
X81237371Y-186795957D01*
X81085799Y-186569114D01*
X80892886Y-186376201D01*
X80666043Y-186224629D01*
X80413989Y-186120225D01*
X80146411Y-186067000D01*
X79873589Y-186067000D01*
X79606011Y-186120225D01*
X79353957Y-186224629D01*
X79127114Y-186376201D01*
X78934201Y-186569114D01*
X78782629Y-186795957D01*
X78678225Y-187048011D01*
X78625000Y-187315589D01*
X78625000Y-187588411D01*
X78678225Y-187855989D01*
X78782629Y-188108043D01*
X78934201Y-188334886D01*
X79127114Y-188527799D01*
X79353957Y-188679371D01*
X79462467Y-188724317D01*
X79413496Y-188742031D01*
X79181101Y-188882421D01*
X78980560Y-189065451D01*
X78819580Y-189284088D01*
X78704347Y-189529930D01*
X78667682Y-189650815D01*
X78790344Y-189865000D01*
X79883000Y-189865000D01*
X79883000Y-189845000D01*
X80137000Y-189845000D01*
X80137000Y-189865000D01*
X80157000Y-189865000D01*
X80157000Y-190119000D01*
X80137000Y-190119000D01*
X80137000Y-190139000D01*
X79883000Y-190139000D01*
X79883000Y-190119000D01*
X78790344Y-190119000D01*
X78747177Y-190194376D01*
X77012999Y-188460198D01*
X77012999Y-182713185D01*
X78667682Y-182713185D01*
X78704347Y-182834070D01*
X78819580Y-183079912D01*
X78980560Y-183298549D01*
X79181101Y-183481579D01*
X79413496Y-183621969D01*
X79668814Y-183714323D01*
X79883000Y-183592420D01*
X79883000Y-182499000D01*
X80137000Y-182499000D01*
X80137000Y-183592420D01*
X80351186Y-183714323D01*
X80606504Y-183621969D01*
X80838899Y-183481579D01*
X81039440Y-183298549D01*
X81200420Y-183079912D01*
X81315653Y-182834070D01*
X81352318Y-182713185D01*
X81229656Y-182499000D01*
X80137000Y-182499000D01*
X79883000Y-182499000D01*
X78790344Y-182499000D01*
X78667682Y-182713185D01*
X77012999Y-182713185D01*
X77012999Y-173663980D01*
X78657626Y-173663980D01*
X78777514Y-173948836D01*
X79101210Y-174109699D01*
X79450069Y-174204322D01*
X79810684Y-174229067D01*
X80169198Y-174182985D01*
X80511833Y-174067846D01*
X80734486Y-173948836D01*
X80854374Y-173663980D01*
X79756000Y-172565605D01*
X78657626Y-173663980D01*
X77012999Y-173663980D01*
X77012999Y-173572324D01*
X77016675Y-173534999D01*
X77012999Y-173497674D01*
X77012999Y-173497666D01*
X77002002Y-173386013D01*
X76958545Y-173242752D01*
X76887973Y-173110723D01*
X76793000Y-172994998D01*
X76764002Y-172971200D01*
X76233486Y-172440684D01*
X77912933Y-172440684D01*
X77959015Y-172799198D01*
X78074154Y-173141833D01*
X78193164Y-173364486D01*
X78478020Y-173484374D01*
X79576395Y-172386000D01*
X79935605Y-172386000D01*
X81033980Y-173484374D01*
X81318836Y-173364486D01*
X81479699Y-173040790D01*
X81574322Y-172691931D01*
X81599067Y-172331316D01*
X81552985Y-171972802D01*
X81437846Y-171630167D01*
X81318836Y-171407514D01*
X81033980Y-171287626D01*
X79935605Y-172386000D01*
X79576395Y-172386000D01*
X78478020Y-171287626D01*
X78193164Y-171407514D01*
X78032301Y-171731210D01*
X77937678Y-172080069D01*
X77912933Y-172440684D01*
X76233486Y-172440684D01*
X74900822Y-171108020D01*
X78657626Y-171108020D01*
X79756000Y-172206395D01*
X80854374Y-171108020D01*
X80734486Y-170823164D01*
X80410790Y-170662301D01*
X80061931Y-170567678D01*
X79701316Y-170542933D01*
X79342802Y-170589015D01*
X79000167Y-170704154D01*
X78777514Y-170823164D01*
X78657626Y-171108020D01*
X74900822Y-171108020D01*
X69978802Y-166186000D01*
X77917928Y-166186000D01*
X77917928Y-168586000D01*
X77930188Y-168710482D01*
X77966498Y-168830180D01*
X78025463Y-168940494D01*
X78104815Y-169037185D01*
X78201506Y-169116537D01*
X78311820Y-169175502D01*
X78431518Y-169211812D01*
X78556000Y-169224072D01*
X80956000Y-169224072D01*
X81080482Y-169211812D01*
X81200180Y-169175502D01*
X81310494Y-169116537D01*
X81407185Y-169037185D01*
X81486537Y-168940494D01*
X81545502Y-168830180D01*
X81581812Y-168710482D01*
X81594072Y-168586000D01*
X81594072Y-168146000D01*
X82235199Y-168146000D01*
X88585928Y-174496730D01*
X88585928Y-176460000D01*
X88598188Y-176584482D01*
X88634498Y-176704180D01*
X88645826Y-176725372D01*
X83635887Y-181735312D01*
X83453335Y-181699000D01*
X83170665Y-181699000D01*
X82988114Y-181735312D01*
X81398072Y-180145271D01*
X81398072Y-179082000D01*
X81385812Y-178957518D01*
X81349502Y-178837820D01*
X81290537Y-178727506D01*
X81211185Y-178630815D01*
X81114494Y-178551463D01*
X81004180Y-178492498D01*
X80884482Y-178456188D01*
X80760000Y-178443928D01*
X79260000Y-178443928D01*
X79135518Y-178456188D01*
X79015820Y-178492498D01*
X78905506Y-178551463D01*
X78808815Y-178630815D01*
X78729463Y-178727506D01*
X78670498Y-178837820D01*
X78634188Y-178957518D01*
X78621928Y-179082000D01*
X78621928Y-180582000D01*
X78634188Y-180706482D01*
X78670498Y-180826180D01*
X78729463Y-180936494D01*
X78808815Y-181033185D01*
X78905506Y-181112537D01*
X79015820Y-181171502D01*
X79135518Y-181207812D01*
X79252437Y-181219327D01*
X79181101Y-181262421D01*
X78980560Y-181445451D01*
X78819580Y-181664088D01*
X78704347Y-181909930D01*
X78667682Y-182030815D01*
X78790344Y-182245000D01*
X79883000Y-182245000D01*
X79883000Y-182225000D01*
X80137000Y-182225000D01*
X80137000Y-182245000D01*
X81229656Y-182245000D01*
X81272823Y-182169624D01*
X81913312Y-182810114D01*
X81877000Y-182992665D01*
X81877000Y-183275335D01*
X81932147Y-183552574D01*
X82040320Y-183813727D01*
X82197363Y-184048759D01*
X82397241Y-184248637D01*
X82632273Y-184405680D01*
X82893426Y-184513853D01*
X83170665Y-184569000D01*
X83453335Y-184569000D01*
X83635886Y-184532688D01*
X85748999Y-186645801D01*
X85749000Y-193659667D01*
X85745323Y-193696999D01*
X85749000Y-193734332D01*
X85759997Y-193845985D01*
X85773179Y-193889441D01*
X85803453Y-193989245D01*
X85874025Y-194121275D01*
X85921896Y-194179605D01*
X85968999Y-194237000D01*
X85997997Y-194260798D01*
X86395928Y-194658729D01*
X86395928Y-195922000D01*
X86408188Y-196046482D01*
X86444498Y-196166180D01*
X86503463Y-196276494D01*
X86582815Y-196373185D01*
X86679506Y-196452537D01*
X86789820Y-196511502D01*
X86909518Y-196547812D01*
X87034000Y-196560072D01*
X88734000Y-196560072D01*
X88858482Y-196547812D01*
X88978180Y-196511502D01*
X89088494Y-196452537D01*
X89185185Y-196373185D01*
X89264537Y-196276494D01*
X89323502Y-196166180D01*
X89359812Y-196046482D01*
X89372072Y-195922000D01*
X89372072Y-194658730D01*
X89970803Y-194060000D01*
X91450627Y-194060000D01*
X91505820Y-194089502D01*
X91625518Y-194125812D01*
X91750000Y-194138072D01*
X93150000Y-194138072D01*
X93274482Y-194125812D01*
X93394180Y-194089502D01*
X93504494Y-194030537D01*
X93601185Y-193951185D01*
X93680537Y-193854494D01*
X93713211Y-193793365D01*
X93711928Y-194050000D01*
X93724188Y-194174482D01*
X93760498Y-194294180D01*
X93776972Y-194325000D01*
X93760498Y-194355820D01*
X93724188Y-194475518D01*
X93711928Y-194600000D01*
X93715000Y-195464250D01*
X93873750Y-195623000D01*
X95173000Y-195623000D01*
X95173000Y-193277000D01*
X95153000Y-193277000D01*
X95153000Y-193023000D01*
X95173000Y-193023000D01*
X95173000Y-190977000D01*
X93873750Y-190977000D01*
X93780243Y-191070507D01*
X93775812Y-191025518D01*
X93775029Y-191022936D01*
X93785000Y-190931750D01*
X93717032Y-190863782D01*
X93680537Y-190795506D01*
X93601185Y-190698815D01*
X93513678Y-190627000D01*
X93626250Y-190627000D01*
X93714871Y-190538379D01*
X93715000Y-190564250D01*
X93873750Y-190723000D01*
X95173000Y-190723000D01*
X95173000Y-188377000D01*
X93873750Y-188377000D01*
X93715000Y-188535750D01*
X93711928Y-189400000D01*
X93724188Y-189524482D01*
X93760498Y-189644180D01*
X93776972Y-189675000D01*
X93760498Y-189705820D01*
X93724188Y-189825518D01*
X93711928Y-189950000D01*
X93713210Y-190206254D01*
X93674943Y-190137273D01*
X93594092Y-190041831D01*
X93496174Y-189963997D01*
X93384954Y-189906761D01*
X93264704Y-189872323D01*
X93140046Y-189862006D01*
X92735750Y-189865000D01*
X92577000Y-190023750D01*
X92577000Y-190511928D01*
X92323000Y-190511928D01*
X92323000Y-190023750D01*
X92164250Y-189865000D01*
X91759954Y-189862006D01*
X91635296Y-189872323D01*
X91515046Y-189906761D01*
X91403826Y-189963997D01*
X91305908Y-190041831D01*
X91225057Y-190137273D01*
X91164379Y-190246654D01*
X91126206Y-190365771D01*
X91115000Y-190468250D01*
X91273750Y-190627000D01*
X91386322Y-190627000D01*
X91298815Y-190698815D01*
X91219463Y-190795506D01*
X91182968Y-190863782D01*
X91115000Y-190931750D01*
X91124971Y-191022936D01*
X91124188Y-191025518D01*
X91111928Y-191150000D01*
X91111928Y-191240000D01*
X90206802Y-191240000D01*
X89325209Y-190358408D01*
X89369000Y-190138260D01*
X89369000Y-189845740D01*
X89311932Y-189558842D01*
X89199990Y-189288589D01*
X89037475Y-189045368D01*
X88830632Y-188838525D01*
X88648466Y-188716805D01*
X88765355Y-188647178D01*
X88981588Y-188452269D01*
X89155641Y-188218920D01*
X89280825Y-187956099D01*
X89325476Y-187808890D01*
X89204155Y-187579000D01*
X88011000Y-187579000D01*
X88011000Y-187599000D01*
X87757000Y-187599000D01*
X87757000Y-187579000D01*
X87737000Y-187579000D01*
X87737000Y-187325000D01*
X87757000Y-187325000D01*
X87757000Y-186131186D01*
X88011000Y-186131186D01*
X88011000Y-187325000D01*
X89204155Y-187325000D01*
X89322895Y-187100000D01*
X93711928Y-187100000D01*
X93715000Y-187964250D01*
X93873750Y-188123000D01*
X95173000Y-188123000D01*
X95173000Y-186623750D01*
X95014250Y-186465000D01*
X94350000Y-186461928D01*
X94225518Y-186474188D01*
X94105820Y-186510498D01*
X93995506Y-186569463D01*
X93898815Y-186648815D01*
X93819463Y-186745506D01*
X93760498Y-186855820D01*
X93724188Y-186975518D01*
X93711928Y-187100000D01*
X89322895Y-187100000D01*
X89325476Y-187095110D01*
X89280825Y-186947901D01*
X89155641Y-186685080D01*
X88981588Y-186451731D01*
X88765355Y-186256822D01*
X88515252Y-186107843D01*
X88240891Y-186010519D01*
X88011000Y-186131186D01*
X87757000Y-186131186D01*
X87527109Y-186010519D01*
X87252748Y-186107843D01*
X87238142Y-186116543D01*
X87214545Y-186038752D01*
X87143973Y-185906723D01*
X87049000Y-185790998D01*
X87020003Y-185767201D01*
X84710688Y-183457886D01*
X84747000Y-183275335D01*
X84747000Y-182992665D01*
X84710688Y-182810113D01*
X85982821Y-181537980D01*
X89325626Y-181537980D01*
X89445514Y-181822836D01*
X89769210Y-181983699D01*
X90118069Y-182078322D01*
X90478684Y-182103067D01*
X90837198Y-182056985D01*
X91179833Y-181941846D01*
X91402486Y-181822836D01*
X91522374Y-181537980D01*
X90424000Y-180439605D01*
X89325626Y-181537980D01*
X85982821Y-181537980D01*
X87206117Y-180314684D01*
X88580933Y-180314684D01*
X88627015Y-180673198D01*
X88742154Y-181015833D01*
X88861164Y-181238486D01*
X89146020Y-181358374D01*
X90244395Y-180260000D01*
X90603605Y-180260000D01*
X91701980Y-181358374D01*
X91986836Y-181238486D01*
X92147699Y-180914790D01*
X92242322Y-180565931D01*
X92267067Y-180205316D01*
X92220985Y-179846802D01*
X92105846Y-179504167D01*
X91986836Y-179281514D01*
X91701980Y-179161626D01*
X90603605Y-180260000D01*
X90244395Y-180260000D01*
X89146020Y-179161626D01*
X88861164Y-179281514D01*
X88700301Y-179605210D01*
X88605678Y-179954069D01*
X88580933Y-180314684D01*
X87206117Y-180314684D01*
X88538781Y-178982020D01*
X89325626Y-178982020D01*
X90424000Y-180080395D01*
X91522374Y-178982020D01*
X91402486Y-178697164D01*
X91078790Y-178536301D01*
X90729931Y-178441678D01*
X90369316Y-178416933D01*
X90010802Y-178463015D01*
X89668167Y-178578154D01*
X89445514Y-178697164D01*
X89325626Y-178982020D01*
X88538781Y-178982020D01*
X90422730Y-177098072D01*
X91624000Y-177098072D01*
X91748482Y-177085812D01*
X91868180Y-177049502D01*
X91978494Y-176990537D01*
X92075185Y-176911185D01*
X92154537Y-176814494D01*
X92213502Y-176704180D01*
X92249812Y-176584482D01*
X92262072Y-176460000D01*
X92262072Y-174060000D01*
X92249812Y-173935518D01*
X92213502Y-173815820D01*
X92154537Y-173705506D01*
X92075185Y-173608815D01*
X91978494Y-173529463D01*
X91868180Y-173470498D01*
X91748482Y-173434188D01*
X91624000Y-173421928D01*
X89660730Y-173421928D01*
X85228577Y-168989775D01*
X91189830Y-168989775D01*
X91429976Y-169377018D01*
X91923877Y-169637641D01*
X92459133Y-169796901D01*
X93015174Y-169848678D01*
X93570632Y-169790981D01*
X94104161Y-169626028D01*
X94570024Y-169377018D01*
X94810170Y-168989775D01*
X93000000Y-167179605D01*
X91189830Y-168989775D01*
X85228577Y-168989775D01*
X83253976Y-167015174D01*
X90151322Y-167015174D01*
X90209019Y-167570632D01*
X90373972Y-168104161D01*
X90622982Y-168570024D01*
X91010225Y-168810170D01*
X92820395Y-167000000D01*
X93179605Y-167000000D01*
X94989775Y-168810170D01*
X95377018Y-168570024D01*
X95637641Y-168076123D01*
X95796901Y-167540867D01*
X95848678Y-166984826D01*
X95790981Y-166429368D01*
X95626028Y-165895839D01*
X95377018Y-165429976D01*
X94989775Y-165189830D01*
X93179605Y-167000000D01*
X92820395Y-167000000D01*
X91010225Y-165189830D01*
X90622982Y-165429976D01*
X90362359Y-165923877D01*
X90203099Y-166459133D01*
X90151322Y-167015174D01*
X83253976Y-167015174D01*
X83113804Y-166875003D01*
X83090001Y-166845999D01*
X82974276Y-166751026D01*
X82842247Y-166680454D01*
X82698986Y-166636997D01*
X82587333Y-166626000D01*
X82587322Y-166626000D01*
X82550000Y-166622324D01*
X82512678Y-166626000D01*
X81594072Y-166626000D01*
X81594072Y-166186000D01*
X81581812Y-166061518D01*
X81545502Y-165941820D01*
X81486537Y-165831506D01*
X81407185Y-165734815D01*
X81310494Y-165655463D01*
X81200180Y-165596498D01*
X81080482Y-165560188D01*
X80956000Y-165547928D01*
X78556000Y-165547928D01*
X78431518Y-165560188D01*
X78311820Y-165596498D01*
X78201506Y-165655463D01*
X78104815Y-165734815D01*
X78025463Y-165831506D01*
X77966498Y-165941820D01*
X77930188Y-166061518D01*
X77917928Y-166186000D01*
X69978802Y-166186000D01*
X69385645Y-165592844D01*
X69407000Y-165485486D01*
X69407000Y-165222514D01*
X69364773Y-165010225D01*
X91189830Y-165010225D01*
X93000000Y-166820395D01*
X94810170Y-165010225D01*
X94570024Y-164622982D01*
X94076123Y-164362359D01*
X93540867Y-164203099D01*
X92984826Y-164151322D01*
X92429368Y-164209019D01*
X91895839Y-164373972D01*
X91429976Y-164622982D01*
X91189830Y-165010225D01*
X69364773Y-165010225D01*
X69355696Y-164964595D01*
X69255061Y-164721641D01*
X69108962Y-164502987D01*
X68923013Y-164317038D01*
X68704359Y-164170939D01*
X68461405Y-164070304D01*
X68203486Y-164019000D01*
X67940514Y-164019000D01*
X67682595Y-164070304D01*
X67439641Y-164170939D01*
X67220987Y-164317038D01*
X67035038Y-164502987D01*
X66888939Y-164721641D01*
X66788304Y-164964595D01*
X66737000Y-165222514D01*
X66737000Y-165485486D01*
X66788304Y-165743405D01*
X66888939Y-165986359D01*
X67035038Y-166205013D01*
X67220987Y-166390962D01*
X67439641Y-166537061D01*
X67682595Y-166637696D01*
X67940514Y-166689000D01*
X68203486Y-166689000D01*
X68310844Y-166667645D01*
X75493000Y-173849802D01*
X75492999Y-188737677D01*
X75489323Y-188774999D01*
X75492999Y-188812321D01*
X75492999Y-188812331D01*
X75503996Y-188923984D01*
X75540817Y-189045368D01*
X75547453Y-189067245D01*
X75618025Y-189199275D01*
X75653907Y-189242997D01*
X75712998Y-189315000D01*
X75742002Y-189338803D01*
X78653833Y-192250635D01*
X78625000Y-192395589D01*
X78625000Y-192668411D01*
X78678225Y-192935989D01*
X78782629Y-193188043D01*
X78934201Y-193414886D01*
X79127114Y-193607799D01*
X79353957Y-193759371D01*
X79524280Y-193829921D01*
X78788201Y-194566000D01*
X57739775Y-194566000D01*
X57678962Y-194474987D01*
X57493013Y-194289038D01*
X57274359Y-194142939D01*
X57031405Y-194042304D01*
X56773486Y-193991000D01*
X56510514Y-193991000D01*
X56252595Y-194042304D01*
X56009641Y-194142939D01*
X55790987Y-194289038D01*
X55605038Y-194474987D01*
X55458939Y-194693641D01*
X55420590Y-194786223D01*
X55379853Y-194581426D01*
X55271680Y-194320273D01*
X55114637Y-194085241D01*
X54914759Y-193885363D01*
X54679727Y-193728320D01*
X54418574Y-193620147D01*
X54141335Y-193565000D01*
X53858665Y-193565000D01*
X53676114Y-193601312D01*
X53238802Y-193164001D01*
X53215000Y-193134998D01*
X53099275Y-193040025D01*
X52967246Y-192969453D01*
X52823985Y-192925996D01*
X52712332Y-192914999D01*
X52712321Y-192914999D01*
X52674999Y-192911323D01*
X52637677Y-192914999D01*
X42846226Y-192914999D01*
X42837546Y-192886383D01*
X42766974Y-192754354D01*
X42728730Y-192707753D01*
X42695799Y-192667626D01*
X42695795Y-192667622D01*
X42672001Y-192638629D01*
X42643008Y-192614835D01*
X40239174Y-190211003D01*
X40215371Y-190181999D01*
X40099646Y-190087026D01*
X39967617Y-190016454D01*
X39824356Y-189972997D01*
X39712703Y-189962000D01*
X39712692Y-189962000D01*
X39675370Y-189958324D01*
X39638048Y-189962000D01*
X39347140Y-189962000D01*
X39534759Y-189836637D01*
X39734637Y-189636759D01*
X39838043Y-189482000D01*
X45915057Y-189482000D01*
X46130801Y-189626156D01*
X46464750Y-189764482D01*
X46819268Y-189835000D01*
X47180732Y-189835000D01*
X47535250Y-189764482D01*
X47869199Y-189626156D01*
X48169744Y-189425338D01*
X48425338Y-189169744D01*
X48626156Y-188869199D01*
X48671388Y-188760000D01*
X53582678Y-188760000D01*
X53620000Y-188763676D01*
X53657322Y-188760000D01*
X54081199Y-188760000D01*
X55328355Y-190007157D01*
X55307000Y-190114514D01*
X55307000Y-190377486D01*
X55358304Y-190635405D01*
X55458939Y-190878359D01*
X55605038Y-191097013D01*
X55790987Y-191282962D01*
X56009641Y-191429061D01*
X56252595Y-191529696D01*
X56510514Y-191581000D01*
X56773486Y-191581000D01*
X57031405Y-191529696D01*
X57274359Y-191429061D01*
X57493013Y-191282962D01*
X57678962Y-191097013D01*
X57739775Y-191006000D01*
X58674604Y-191006000D01*
X58775241Y-191106637D01*
X59010273Y-191263680D01*
X59271426Y-191371853D01*
X59548665Y-191427000D01*
X59831335Y-191427000D01*
X60013886Y-191390688D01*
X62134205Y-193511008D01*
X62157999Y-193540001D01*
X62186992Y-193563795D01*
X62186996Y-193563799D01*
X62236535Y-193604454D01*
X62273724Y-193634974D01*
X62405753Y-193705546D01*
X62549014Y-193749003D01*
X62660667Y-193760000D01*
X62660676Y-193760000D01*
X62697999Y-193763676D01*
X62735322Y-193760000D01*
X62781957Y-193760000D01*
X62885363Y-193914759D01*
X63085241Y-194114637D01*
X63320273Y-194271680D01*
X63581426Y-194379853D01*
X63858665Y-194435000D01*
X64141335Y-194435000D01*
X64418574Y-194379853D01*
X64679727Y-194271680D01*
X64914759Y-194114637D01*
X65114637Y-193914759D01*
X65271680Y-193679727D01*
X65379853Y-193418574D01*
X65393684Y-193349039D01*
X70228096Y-193349039D01*
X70268754Y-193483087D01*
X70388963Y-193737420D01*
X70556481Y-193963414D01*
X70764869Y-194152385D01*
X71006119Y-194297070D01*
X71270960Y-194391909D01*
X71493000Y-194270624D01*
X71493000Y-193127000D01*
X71747000Y-193127000D01*
X71747000Y-194270624D01*
X71969040Y-194391909D01*
X72233881Y-194297070D01*
X72475131Y-194152385D01*
X72683519Y-193963414D01*
X72851037Y-193737420D01*
X72971246Y-193483087D01*
X73011904Y-193349039D01*
X72889915Y-193127000D01*
X71747000Y-193127000D01*
X71493000Y-193127000D01*
X70350085Y-193127000D01*
X70228096Y-193349039D01*
X65393684Y-193349039D01*
X65435000Y-193141335D01*
X65435000Y-192858665D01*
X65393685Y-192650961D01*
X70228096Y-192650961D01*
X70350085Y-192873000D01*
X71493000Y-192873000D01*
X71493000Y-191729376D01*
X71747000Y-191729376D01*
X71747000Y-192873000D01*
X72889915Y-192873000D01*
X73011904Y-192650961D01*
X72971246Y-192516913D01*
X72851037Y-192262580D01*
X72683519Y-192036586D01*
X72475131Y-191847615D01*
X72233881Y-191702930D01*
X71969040Y-191608091D01*
X71747000Y-191729376D01*
X71493000Y-191729376D01*
X71270960Y-191608091D01*
X71006119Y-191702930D01*
X70764869Y-191847615D01*
X70556481Y-192036586D01*
X70388963Y-192262580D01*
X70268754Y-192516913D01*
X70228096Y-192650961D01*
X65393685Y-192650961D01*
X65379853Y-192581426D01*
X65271680Y-192320273D01*
X65114637Y-192085241D01*
X64914759Y-191885363D01*
X64679727Y-191728320D01*
X64418574Y-191620147D01*
X64141335Y-191565000D01*
X63858665Y-191565000D01*
X63581426Y-191620147D01*
X63320273Y-191728320D01*
X63085241Y-191885363D01*
X62885363Y-192085241D01*
X62874420Y-192101618D01*
X61757504Y-190984702D01*
X63876903Y-190984702D01*
X63948486Y-191228671D01*
X64203996Y-191349571D01*
X64478184Y-191418300D01*
X64760512Y-191432217D01*
X65040130Y-191390787D01*
X65306292Y-191295603D01*
X65431514Y-191228671D01*
X65503097Y-190984702D01*
X64690000Y-190171605D01*
X63876903Y-190984702D01*
X61757504Y-190984702D01*
X61088688Y-190315886D01*
X61125000Y-190133335D01*
X61125000Y-190062512D01*
X63249783Y-190062512D01*
X63291213Y-190342130D01*
X63386397Y-190608292D01*
X63453329Y-190733514D01*
X63697298Y-190805097D01*
X64510395Y-189992000D01*
X64869605Y-189992000D01*
X65682702Y-190805097D01*
X65926671Y-190733514D01*
X66047571Y-190478004D01*
X66116300Y-190203816D01*
X66130217Y-189921488D01*
X66088787Y-189641870D01*
X65993603Y-189375708D01*
X65926671Y-189250486D01*
X65682702Y-189178903D01*
X64869605Y-189992000D01*
X64510395Y-189992000D01*
X63697298Y-189178903D01*
X63453329Y-189250486D01*
X63332429Y-189505996D01*
X63263700Y-189780184D01*
X63249783Y-190062512D01*
X61125000Y-190062512D01*
X61125000Y-189850665D01*
X61069853Y-189573426D01*
X60961680Y-189312273D01*
X60804637Y-189077241D01*
X60726694Y-188999298D01*
X63876903Y-188999298D01*
X64690000Y-189812395D01*
X65503097Y-188999298D01*
X65431514Y-188755329D01*
X65176004Y-188634429D01*
X64901816Y-188565700D01*
X64619488Y-188551783D01*
X64339870Y-188593213D01*
X64073708Y-188688397D01*
X63948486Y-188755329D01*
X63876903Y-188999298D01*
X60726694Y-188999298D01*
X60604759Y-188877363D01*
X60369727Y-188720320D01*
X60108574Y-188612147D01*
X59831335Y-188557000D01*
X59548665Y-188557000D01*
X59271426Y-188612147D01*
X59010273Y-188720320D01*
X58775241Y-188877363D01*
X58575363Y-189077241D01*
X58418320Y-189312273D01*
X58346360Y-189486000D01*
X57739775Y-189486000D01*
X57678962Y-189394987D01*
X57493013Y-189209038D01*
X57274359Y-189062939D01*
X57031405Y-188962304D01*
X56773486Y-188911000D01*
X56510514Y-188911000D01*
X56403157Y-188932355D01*
X55327504Y-187856702D01*
X66496903Y-187856702D01*
X66568486Y-188100671D01*
X66823996Y-188221571D01*
X67098184Y-188290300D01*
X67380512Y-188304217D01*
X67660130Y-188262787D01*
X67926292Y-188167603D01*
X68051514Y-188100671D01*
X68123097Y-187856702D01*
X67310000Y-187043605D01*
X66496903Y-187856702D01*
X55327504Y-187856702D01*
X55082801Y-187612000D01*
X55676114Y-187018688D01*
X55858665Y-187055000D01*
X56141335Y-187055000D01*
X56418574Y-186999853D01*
X56679727Y-186891680D01*
X56914759Y-186734637D01*
X57114637Y-186534759D01*
X57271680Y-186299727D01*
X57379853Y-186038574D01*
X57393684Y-185969039D01*
X62228096Y-185969039D01*
X62268754Y-186103087D01*
X62388963Y-186357420D01*
X62556481Y-186583414D01*
X62764869Y-186772385D01*
X63006119Y-186917070D01*
X63270960Y-187011909D01*
X63493000Y-186890624D01*
X63493000Y-185747000D01*
X63747000Y-185747000D01*
X63747000Y-186890624D01*
X63969040Y-187011909D01*
X64185173Y-186934512D01*
X65869783Y-186934512D01*
X65911213Y-187214130D01*
X66006397Y-187480292D01*
X66073329Y-187605514D01*
X66317298Y-187677097D01*
X67130395Y-186864000D01*
X67489605Y-186864000D01*
X68302702Y-187677097D01*
X68546671Y-187605514D01*
X68667571Y-187350004D01*
X68736300Y-187075816D01*
X68750217Y-186793488D01*
X68708787Y-186513870D01*
X68613603Y-186247708D01*
X68546671Y-186122486D01*
X68302702Y-186050903D01*
X67489605Y-186864000D01*
X67130395Y-186864000D01*
X66317298Y-186050903D01*
X66073329Y-186122486D01*
X65952429Y-186377996D01*
X65883700Y-186652184D01*
X65869783Y-186934512D01*
X64185173Y-186934512D01*
X64233881Y-186917070D01*
X64475131Y-186772385D01*
X64683519Y-186583414D01*
X64851037Y-186357420D01*
X64971246Y-186103087D01*
X65011904Y-185969039D01*
X64889915Y-185747000D01*
X63747000Y-185747000D01*
X63493000Y-185747000D01*
X62350085Y-185747000D01*
X62228096Y-185969039D01*
X57393684Y-185969039D01*
X57435000Y-185761335D01*
X57435000Y-185478665D01*
X57379853Y-185201426D01*
X57271680Y-184940273D01*
X57114637Y-184705241D01*
X56914759Y-184505363D01*
X56682241Y-184350000D01*
X56914759Y-184194637D01*
X57114637Y-183994759D01*
X57271680Y-183759727D01*
X57379853Y-183498574D01*
X57435000Y-183221335D01*
X57435000Y-182938665D01*
X57379853Y-182661426D01*
X57271680Y-182400273D01*
X57114637Y-182165241D01*
X56914759Y-181965363D01*
X56682241Y-181810000D01*
X56914759Y-181654637D01*
X57114637Y-181454759D01*
X57271680Y-181219727D01*
X57379853Y-180958574D01*
X57435000Y-180681335D01*
X57435000Y-180398665D01*
X57379853Y-180121426D01*
X57271680Y-179860273D01*
X57114637Y-179625241D01*
X56916039Y-179426643D01*
X56924482Y-179425812D01*
X57044180Y-179389502D01*
X57154494Y-179330537D01*
X57251185Y-179251185D01*
X57330537Y-179154494D01*
X57389502Y-179044180D01*
X57425812Y-178924482D01*
X57438072Y-178800000D01*
X57438072Y-177200000D01*
X57425812Y-177075518D01*
X57389502Y-176955820D01*
X57330537Y-176845506D01*
X57251185Y-176748815D01*
X57154494Y-176669463D01*
X57044180Y-176610498D01*
X56982894Y-176591907D01*
X60361928Y-173212874D01*
X60361928Y-173600000D01*
X60378992Y-173773254D01*
X60429528Y-173939850D01*
X60511595Y-174093386D01*
X60622038Y-174227962D01*
X60756614Y-174338405D01*
X60910150Y-174420472D01*
X61076746Y-174471008D01*
X61250000Y-174488072D01*
X62413270Y-174488072D01*
X62860001Y-174934803D01*
X62860000Y-176781956D01*
X62705241Y-176885363D01*
X62505363Y-177085241D01*
X62348320Y-177320273D01*
X62240147Y-177581426D01*
X62185000Y-177858665D01*
X62185000Y-178141335D01*
X62240147Y-178418574D01*
X62348320Y-178679727D01*
X62505363Y-178914759D01*
X62705241Y-179114637D01*
X62937759Y-179270000D01*
X62705241Y-179425363D01*
X62505363Y-179625241D01*
X62348320Y-179860273D01*
X62240147Y-180121426D01*
X62185000Y-180398665D01*
X62185000Y-180681335D01*
X62240147Y-180958574D01*
X62348320Y-181219727D01*
X62505363Y-181454759D01*
X62705241Y-181654637D01*
X62937759Y-181810000D01*
X62705241Y-181965363D01*
X62505363Y-182165241D01*
X62348320Y-182400273D01*
X62240147Y-182661426D01*
X62185000Y-182938665D01*
X62185000Y-183221335D01*
X62240147Y-183498574D01*
X62348320Y-183759727D01*
X62505363Y-183994759D01*
X62705241Y-184194637D01*
X62940273Y-184351680D01*
X62950865Y-184356067D01*
X62764869Y-184467615D01*
X62556481Y-184656586D01*
X62388963Y-184882580D01*
X62268754Y-185136913D01*
X62228096Y-185270961D01*
X62350085Y-185493000D01*
X63493000Y-185493000D01*
X63493000Y-185473000D01*
X63747000Y-185473000D01*
X63747000Y-185493000D01*
X64889915Y-185493000D01*
X65011904Y-185270961D01*
X64971246Y-185136913D01*
X64851037Y-184882580D01*
X64683519Y-184656586D01*
X64475131Y-184467615D01*
X64289135Y-184356067D01*
X64299727Y-184351680D01*
X64534759Y-184194637D01*
X64734637Y-183994759D01*
X64764806Y-183949607D01*
X66326201Y-185511003D01*
X66349999Y-185540001D01*
X66378997Y-185563799D01*
X66465723Y-185634974D01*
X66552615Y-185681419D01*
X66496903Y-185871298D01*
X67310000Y-186684395D01*
X68123097Y-185871298D01*
X68090441Y-185760000D01*
X70561928Y-185760000D01*
X70561928Y-185800000D01*
X70574188Y-185924482D01*
X70610498Y-186044180D01*
X70669463Y-186154494D01*
X70748815Y-186251185D01*
X70845506Y-186330537D01*
X70955820Y-186389502D01*
X71075518Y-186425812D01*
X71200000Y-186438072D01*
X72800000Y-186438072D01*
X72924482Y-186425812D01*
X73044180Y-186389502D01*
X73154494Y-186330537D01*
X73251185Y-186251185D01*
X73330537Y-186154494D01*
X73389502Y-186044180D01*
X73425812Y-185924482D01*
X73438072Y-185800000D01*
X73438072Y-184200000D01*
X73425812Y-184075518D01*
X73389502Y-183955820D01*
X73330537Y-183845506D01*
X73251185Y-183748815D01*
X73234607Y-183735210D01*
X73271680Y-183679727D01*
X73379853Y-183418574D01*
X73435000Y-183141335D01*
X73435000Y-182858665D01*
X73379853Y-182581426D01*
X73271680Y-182320273D01*
X73114637Y-182085241D01*
X72914759Y-181885363D01*
X72679727Y-181728320D01*
X72418574Y-181620147D01*
X72141335Y-181565000D01*
X71858665Y-181565000D01*
X71676114Y-181601312D01*
X69594000Y-179519199D01*
X69594000Y-178525087D01*
X69757254Y-178509008D01*
X69923850Y-178458472D01*
X70077386Y-178376405D01*
X70211962Y-178265962D01*
X70322405Y-178131386D01*
X70404472Y-177977850D01*
X70455008Y-177811254D01*
X70472072Y-177638000D01*
X70472072Y-176438000D01*
X70455008Y-176264746D01*
X70404472Y-176098150D01*
X70322405Y-175944614D01*
X70211962Y-175810038D01*
X70077386Y-175699595D01*
X69975407Y-175645086D01*
X69975795Y-175644802D01*
X70172664Y-175430046D01*
X70323854Y-175181009D01*
X70423554Y-174907261D01*
X70425476Y-174894890D01*
X70304155Y-174665000D01*
X68961000Y-174665000D01*
X68961000Y-174685000D01*
X68707000Y-174685000D01*
X68707000Y-174665000D01*
X67363845Y-174665000D01*
X67242524Y-174894890D01*
X67244446Y-174907261D01*
X67344146Y-175181009D01*
X67495336Y-175430046D01*
X67692205Y-175644802D01*
X67692593Y-175645086D01*
X67590614Y-175699595D01*
X67456038Y-175810038D01*
X67345595Y-175944614D01*
X67263528Y-176098150D01*
X67212992Y-176264746D01*
X67195928Y-176438000D01*
X67195928Y-177638000D01*
X67212992Y-177811254D01*
X67263528Y-177977850D01*
X67345595Y-178131386D01*
X67456038Y-178265962D01*
X67590614Y-178376405D01*
X67744150Y-178458472D01*
X67910746Y-178509008D01*
X68074001Y-178525087D01*
X68074001Y-179796668D01*
X68070324Y-179834000D01*
X68084998Y-179982985D01*
X68128454Y-180126246D01*
X68199026Y-180258276D01*
X68268560Y-180343002D01*
X68294000Y-180374001D01*
X68322998Y-180397799D01*
X70601312Y-182676114D01*
X70565000Y-182858665D01*
X70565000Y-183141335D01*
X70620147Y-183418574D01*
X70728320Y-183679727D01*
X70765393Y-183735210D01*
X70748815Y-183748815D01*
X70669463Y-183845506D01*
X70610498Y-183955820D01*
X70574188Y-184075518D01*
X70561928Y-184200000D01*
X70561928Y-184240000D01*
X67204802Y-184240000D01*
X65533804Y-182569003D01*
X65510001Y-182539999D01*
X65394276Y-182445026D01*
X65262247Y-182374454D01*
X65118986Y-182330997D01*
X65007333Y-182320000D01*
X65007322Y-182320000D01*
X64970000Y-182316324D01*
X64932678Y-182320000D01*
X64838043Y-182320000D01*
X64734637Y-182165241D01*
X64534759Y-181965363D01*
X64302241Y-181810000D01*
X64534759Y-181654637D01*
X64734637Y-181454759D01*
X64838043Y-181300000D01*
X65671199Y-181300000D01*
X65911312Y-181540114D01*
X65875000Y-181722665D01*
X65875000Y-182005335D01*
X65930147Y-182282574D01*
X66038320Y-182543727D01*
X66195363Y-182778759D01*
X66395241Y-182978637D01*
X66630273Y-183135680D01*
X66891426Y-183243853D01*
X67168665Y-183299000D01*
X67451335Y-183299000D01*
X67728574Y-183243853D01*
X67989727Y-183135680D01*
X68224759Y-182978637D01*
X68424637Y-182778759D01*
X68581680Y-182543727D01*
X68689853Y-182282574D01*
X68745000Y-182005335D01*
X68745000Y-181722665D01*
X68689853Y-181445426D01*
X68581680Y-181184273D01*
X68424637Y-180949241D01*
X68224759Y-180749363D01*
X67989727Y-180592320D01*
X67728574Y-180484147D01*
X67451335Y-180429000D01*
X67168665Y-180429000D01*
X66986114Y-180465312D01*
X66549804Y-180029003D01*
X66526001Y-179999999D01*
X66410276Y-179905026D01*
X66278247Y-179834454D01*
X66134986Y-179790997D01*
X66023333Y-179780000D01*
X66023322Y-179780000D01*
X65986000Y-179776324D01*
X65948678Y-179780000D01*
X65454803Y-179780000D01*
X65508800Y-179726003D01*
X65508805Y-179725997D01*
X65535004Y-179699798D01*
X65564001Y-179676001D01*
X65658974Y-179560276D01*
X65729546Y-179428247D01*
X65773003Y-179284986D01*
X65784000Y-179173333D01*
X65784000Y-179173323D01*
X65787676Y-179136000D01*
X65784000Y-179098677D01*
X65784000Y-174181110D01*
X67242524Y-174181110D01*
X67363845Y-174411000D01*
X68707000Y-174411000D01*
X68707000Y-173210768D01*
X68961000Y-173210768D01*
X68961000Y-174411000D01*
X70304155Y-174411000D01*
X70425476Y-174181110D01*
X70423554Y-174168739D01*
X70323854Y-173894991D01*
X70172664Y-173645954D01*
X69975795Y-173431198D01*
X69740812Y-173258975D01*
X69476745Y-173135904D01*
X69193742Y-173066715D01*
X68961000Y-173210768D01*
X68707000Y-173210768D01*
X68474258Y-173066715D01*
X68191255Y-173135904D01*
X67927188Y-173258975D01*
X67692205Y-173431198D01*
X67495336Y-173645954D01*
X67344146Y-173894991D01*
X67244446Y-174168739D01*
X67242524Y-174181110D01*
X65784000Y-174181110D01*
X65784000Y-167423323D01*
X65787676Y-167386000D01*
X65784000Y-167348677D01*
X65784000Y-167348667D01*
X65773003Y-167237014D01*
X65729546Y-167093753D01*
X65687544Y-167015174D01*
X65658974Y-166961723D01*
X65587799Y-166874997D01*
X65564001Y-166845999D01*
X65535003Y-166822201D01*
X64305645Y-165592844D01*
X64327000Y-165485486D01*
X64327000Y-165222514D01*
X64275696Y-164964595D01*
X64175061Y-164721641D01*
X64028962Y-164502987D01*
X63843013Y-164317038D01*
X63624359Y-164170939D01*
X63381405Y-164070304D01*
X63123486Y-164019000D01*
X62860514Y-164019000D01*
X62602595Y-164070304D01*
X62359641Y-164170939D01*
X62140987Y-164317038D01*
X61955038Y-164502987D01*
X61808939Y-164721641D01*
X61708304Y-164964595D01*
X61657000Y-165222514D01*
X61657000Y-165485486D01*
X61678355Y-165592843D01*
X58480403Y-168790795D01*
X58377777Y-168688169D01*
X58765018Y-168448024D01*
X59025641Y-167954123D01*
X59184901Y-167418867D01*
X59236678Y-166862826D01*
X59178981Y-166307368D01*
X59014028Y-165773839D01*
X58765018Y-165307976D01*
X58377775Y-165067830D01*
X56567605Y-166878000D01*
X56581748Y-166892143D01*
X56402143Y-167071748D01*
X56388000Y-167057605D01*
X54577830Y-168867775D01*
X54817976Y-169255018D01*
X55130630Y-169420000D01*
X50098072Y-169420000D01*
X50098072Y-167710000D01*
X50085812Y-167585518D01*
X50049502Y-167465820D01*
X49990537Y-167355506D01*
X49911185Y-167258815D01*
X49814494Y-167179463D01*
X49704180Y-167120498D01*
X49584482Y-167084188D01*
X49460000Y-167071928D01*
X47496730Y-167071928D01*
X47317976Y-166893174D01*
X53539322Y-166893174D01*
X53597019Y-167448632D01*
X53761972Y-167982161D01*
X54010982Y-168448024D01*
X54398225Y-168688170D01*
X56208395Y-166878000D01*
X54398225Y-165067830D01*
X54010982Y-165307976D01*
X53750359Y-165801877D01*
X53591099Y-166337133D01*
X53539322Y-166893174D01*
X47317976Y-166893174D01*
X45775804Y-165351003D01*
X45752001Y-165321999D01*
X45636276Y-165227026D01*
X45504247Y-165156454D01*
X45360986Y-165112997D01*
X45249333Y-165102000D01*
X45249322Y-165102000D01*
X45212000Y-165098324D01*
X45174678Y-165102000D01*
X40726043Y-165102000D01*
X40622637Y-164947241D01*
X40563621Y-164888225D01*
X54577830Y-164888225D01*
X56388000Y-166698395D01*
X58198170Y-164888225D01*
X57958024Y-164500982D01*
X57464123Y-164240359D01*
X56928867Y-164081099D01*
X56372826Y-164029322D01*
X55817368Y-164087019D01*
X55283839Y-164251972D01*
X54817976Y-164500982D01*
X54577830Y-164888225D01*
X40563621Y-164888225D01*
X40422759Y-164747363D01*
X40187727Y-164590320D01*
X39926574Y-164482147D01*
X39649335Y-164427000D01*
X39366665Y-164427000D01*
X39089426Y-164482147D01*
X38828273Y-164590320D01*
X38593241Y-164747363D01*
X38393363Y-164947241D01*
X38289957Y-165102000D01*
X37286043Y-165102000D01*
X37182637Y-164947241D01*
X36982759Y-164747363D01*
X36747727Y-164590320D01*
X36486574Y-164482147D01*
X36209335Y-164427000D01*
X35926665Y-164427000D01*
X35649426Y-164482147D01*
X35388273Y-164590320D01*
X35153241Y-164747363D01*
X34953363Y-164947241D01*
X34796320Y-165182273D01*
X34688147Y-165443426D01*
X34633000Y-165720665D01*
X34633000Y-166003335D01*
X34688147Y-166280574D01*
X34796320Y-166541727D01*
X34953363Y-166776759D01*
X35153241Y-166976637D01*
X35388273Y-167133680D01*
X35649426Y-167241853D01*
X35926665Y-167297000D01*
X36209335Y-167297000D01*
X36486574Y-167241853D01*
X36747727Y-167133680D01*
X36982759Y-166976637D01*
X37182637Y-166776759D01*
X37286043Y-166622000D01*
X38289957Y-166622000D01*
X38393363Y-166776759D01*
X38593241Y-166976637D01*
X38828273Y-167133680D01*
X39089426Y-167241853D01*
X39366665Y-167297000D01*
X39649335Y-167297000D01*
X39926574Y-167241853D01*
X40187727Y-167133680D01*
X40422759Y-166976637D01*
X40622637Y-166776759D01*
X40726043Y-166622000D01*
X44897199Y-166622000D01*
X46421928Y-168146730D01*
X46421928Y-170110000D01*
X46434188Y-170234482D01*
X46470498Y-170354180D01*
X46529463Y-170464494D01*
X46608815Y-170561185D01*
X46705506Y-170640537D01*
X46815820Y-170699502D01*
X46935518Y-170735812D01*
X47060000Y-170748072D01*
X49024204Y-170748072D01*
X49105724Y-170814974D01*
X49237753Y-170885546D01*
X49381014Y-170929003D01*
X49492667Y-170940000D01*
X49492676Y-170940000D01*
X49529999Y-170943676D01*
X49567322Y-170940000D01*
X58128678Y-170940000D01*
X58166000Y-170943676D01*
X58203322Y-170940000D01*
X58203333Y-170940000D01*
X58314986Y-170929003D01*
X58458247Y-170885546D01*
X58590276Y-170814974D01*
X58706001Y-170720001D01*
X58729804Y-170690997D01*
X62753157Y-166667645D01*
X62860514Y-166689000D01*
X63123486Y-166689000D01*
X63230844Y-166667645D01*
X64264001Y-167700803D01*
X64264000Y-174212610D01*
X64254974Y-174195723D01*
X64183799Y-174108997D01*
X64160001Y-174079999D01*
X64131003Y-174056201D01*
X63638072Y-173563270D01*
X63638072Y-172400000D01*
X63621008Y-172226746D01*
X63570472Y-172060150D01*
X63488405Y-171906614D01*
X63377962Y-171772038D01*
X63243386Y-171661595D01*
X63141663Y-171607223D01*
X63205134Y-171555134D01*
X63390706Y-171329014D01*
X63528599Y-171071034D01*
X63613513Y-170791111D01*
X63642185Y-170500000D01*
X63613513Y-170208889D01*
X63528599Y-169928966D01*
X63390706Y-169670986D01*
X63205134Y-169444866D01*
X62979014Y-169259294D01*
X62721034Y-169121401D01*
X62441111Y-169036487D01*
X62222950Y-169015000D01*
X61777050Y-169015000D01*
X61558889Y-169036487D01*
X61278966Y-169121401D01*
X61020986Y-169259294D01*
X60794866Y-169444866D01*
X60609294Y-169670986D01*
X60471401Y-169928966D01*
X60386487Y-170208889D01*
X60357815Y-170500000D01*
X60386487Y-170791111D01*
X60444115Y-170981083D01*
X55488998Y-175936201D01*
X55460000Y-175959999D01*
X55436202Y-175988997D01*
X55436201Y-175988998D01*
X55365026Y-176075724D01*
X55294454Y-176207754D01*
X55250998Y-176351015D01*
X55236324Y-176500000D01*
X55240001Y-176537332D01*
X55240001Y-176561928D01*
X55200000Y-176561928D01*
X55075518Y-176574188D01*
X54955820Y-176610498D01*
X54845506Y-176669463D01*
X54748815Y-176748815D01*
X54669463Y-176845506D01*
X54610498Y-176955820D01*
X54574188Y-177075518D01*
X54561928Y-177200000D01*
X54561928Y-178800000D01*
X54574188Y-178924482D01*
X54610498Y-179044180D01*
X54669463Y-179154494D01*
X54748815Y-179251185D01*
X54845506Y-179330537D01*
X54955820Y-179389502D01*
X55075518Y-179425812D01*
X55083961Y-179426643D01*
X54885363Y-179625241D01*
X54781957Y-179780000D01*
X48841804Y-179780000D01*
X44249784Y-175187980D01*
X47161626Y-175187980D01*
X47281514Y-175472836D01*
X47605210Y-175633699D01*
X47954069Y-175728322D01*
X48314684Y-175753067D01*
X48673198Y-175706985D01*
X49015833Y-175591846D01*
X49238486Y-175472836D01*
X49358374Y-175187980D01*
X48260000Y-174089605D01*
X47161626Y-175187980D01*
X44249784Y-175187980D01*
X43026488Y-173964684D01*
X46416933Y-173964684D01*
X46463015Y-174323198D01*
X46578154Y-174665833D01*
X46697164Y-174888486D01*
X46982020Y-175008374D01*
X48080395Y-173910000D01*
X48439605Y-173910000D01*
X49537980Y-175008374D01*
X49822836Y-174888486D01*
X49983699Y-174564790D01*
X50078322Y-174215931D01*
X50103067Y-173855316D01*
X50056985Y-173496802D01*
X49941846Y-173154167D01*
X49822836Y-172931514D01*
X49537980Y-172811626D01*
X48439605Y-173910000D01*
X48080395Y-173910000D01*
X46982020Y-172811626D01*
X46697164Y-172931514D01*
X46536301Y-173255210D01*
X46441678Y-173604069D01*
X46416933Y-173964684D01*
X43026488Y-173964684D01*
X41693824Y-172632020D01*
X47161626Y-172632020D01*
X48260000Y-173730395D01*
X49358374Y-172632020D01*
X49238486Y-172347164D01*
X48914790Y-172186301D01*
X48565931Y-172091678D01*
X48205316Y-172066933D01*
X47846802Y-172113015D01*
X47504167Y-172228154D01*
X47281514Y-172347164D01*
X47161626Y-172632020D01*
X41693824Y-172632020D01*
X40707805Y-171646002D01*
X40684002Y-171616998D01*
X40568277Y-171522025D01*
X40436248Y-171451453D01*
X40292987Y-171407996D01*
X40181334Y-171396999D01*
X40181323Y-171396999D01*
X40144001Y-171393323D01*
X40106679Y-171396999D01*
X33874323Y-171396999D01*
X33837000Y-171393323D01*
X33799677Y-171396999D01*
X33799668Y-171396999D01*
X33688015Y-171407996D01*
X33544754Y-171451453D01*
X33412725Y-171522025D01*
X33412723Y-171522026D01*
X33412724Y-171522026D01*
X33325997Y-171593200D01*
X33325993Y-171593204D01*
X33297000Y-171616998D01*
X33273206Y-171645991D01*
X32835886Y-172083312D01*
X32653335Y-172047000D01*
X32370665Y-172047000D01*
X32093426Y-172102147D01*
X31832273Y-172210320D01*
X31597241Y-172367363D01*
X31397363Y-172567241D01*
X31240320Y-172802273D01*
X31132147Y-173063426D01*
X31077000Y-173340665D01*
X31077000Y-173623335D01*
X31132147Y-173900574D01*
X31240320Y-174161727D01*
X31397363Y-174396759D01*
X31597241Y-174596637D01*
X31832273Y-174753680D01*
X32093426Y-174861853D01*
X32370665Y-174917000D01*
X32653335Y-174917000D01*
X32835886Y-174880688D01*
X34586930Y-176631732D01*
X34426254Y-176582992D01*
X34253000Y-176565928D01*
X32803000Y-176565928D01*
X32629746Y-176582992D01*
X32463150Y-176633528D01*
X32309614Y-176715595D01*
X32175038Y-176826038D01*
X32064595Y-176960614D01*
X31982528Y-177114150D01*
X31931992Y-177280746D01*
X31914928Y-177454000D01*
X31914928Y-178654000D01*
X31931992Y-178827254D01*
X31982528Y-178993850D01*
X32064595Y-179147386D01*
X32175038Y-179281962D01*
X32309614Y-179392405D01*
X32414961Y-179448714D01*
X32393571Y-179464951D01*
X32200504Y-179682807D01*
X32053648Y-179934142D01*
X31961524Y-180197110D01*
X32082845Y-180427000D01*
X33401000Y-180427000D01*
X33401000Y-180407000D01*
X33655000Y-180407000D01*
X33655000Y-180427000D01*
X34973155Y-180427000D01*
X35094476Y-180197110D01*
X35002352Y-179934142D01*
X34855496Y-179682807D01*
X34662429Y-179464951D01*
X34641039Y-179448714D01*
X34746386Y-179392405D01*
X34757490Y-179383292D01*
X35264206Y-179890009D01*
X35288000Y-179919002D01*
X35316993Y-179942796D01*
X35316997Y-179942800D01*
X35386695Y-179999999D01*
X35403725Y-180013975D01*
X35535754Y-180084547D01*
X35679015Y-180128004D01*
X35790668Y-180139001D01*
X35790677Y-180139001D01*
X35828000Y-180142677D01*
X35865323Y-180139001D01*
X40293677Y-180139001D01*
X40330999Y-180142677D01*
X40368321Y-180139001D01*
X40368332Y-180139001D01*
X40479985Y-180128004D01*
X40623246Y-180084547D01*
X40755275Y-180013975D01*
X40871000Y-179919002D01*
X40894802Y-179889999D01*
X41292730Y-179492072D01*
X42456000Y-179492072D01*
X42580482Y-179479812D01*
X42700180Y-179443502D01*
X42810494Y-179384537D01*
X42907185Y-179305185D01*
X42986537Y-179208494D01*
X43045502Y-179098180D01*
X43081812Y-178978482D01*
X43094072Y-178854000D01*
X43094072Y-177254000D01*
X43081812Y-177129518D01*
X43045502Y-177009820D01*
X42986537Y-176899506D01*
X42907185Y-176802815D01*
X42810494Y-176723463D01*
X42700180Y-176664498D01*
X42580482Y-176628188D01*
X42456000Y-176615928D01*
X41408100Y-176615928D01*
X39635002Y-174842831D01*
X39635002Y-174751916D01*
X39857039Y-174873904D01*
X39991087Y-174833246D01*
X40245420Y-174713037D01*
X40471414Y-174545519D01*
X40660385Y-174337131D01*
X40805070Y-174095881D01*
X40858599Y-173946399D01*
X47963202Y-181051002D01*
X47987001Y-181080001D01*
X48087291Y-181162307D01*
X47285750Y-181165000D01*
X47127000Y-181323750D01*
X47127000Y-182873000D01*
X48676250Y-182873000D01*
X48835000Y-182714250D01*
X48838072Y-181800000D01*
X48825812Y-181675518D01*
X48789502Y-181555820D01*
X48730537Y-181445506D01*
X48651185Y-181348815D01*
X48591704Y-181300000D01*
X54781957Y-181300000D01*
X54885363Y-181454759D01*
X55085241Y-181654637D01*
X55317759Y-181810000D01*
X55085241Y-181965363D01*
X54885363Y-182165241D01*
X54728320Y-182400273D01*
X54620147Y-182661426D01*
X54565000Y-182938665D01*
X54565000Y-183221335D01*
X54601312Y-183403886D01*
X54040198Y-183965001D01*
X48837282Y-183965001D01*
X48835000Y-183285750D01*
X48676250Y-183127000D01*
X47127000Y-183127000D01*
X47127000Y-183147000D01*
X46873000Y-183147000D01*
X46873000Y-183127000D01*
X45323750Y-183127000D01*
X45165000Y-183285750D01*
X45162718Y-183965001D01*
X40693320Y-183965001D01*
X40655997Y-183961325D01*
X40618674Y-183965001D01*
X40618664Y-183965001D01*
X40507011Y-183975998D01*
X40363750Y-184019455D01*
X40231720Y-184090027D01*
X40148080Y-184158669D01*
X40115996Y-184185000D01*
X40092198Y-184213998D01*
X36783997Y-187522200D01*
X36754999Y-187545998D01*
X36731201Y-187574996D01*
X36731200Y-187574997D01*
X36660025Y-187661723D01*
X36589453Y-187793753D01*
X36545997Y-187937014D01*
X36531323Y-188085999D01*
X36535000Y-188123331D01*
X36534999Y-189320678D01*
X36531323Y-189358001D01*
X36534999Y-189395323D01*
X36534999Y-189395333D01*
X36545996Y-189506986D01*
X36572848Y-189595506D01*
X36589453Y-189650247D01*
X36660025Y-189782277D01*
X36692399Y-189821724D01*
X36754998Y-189898002D01*
X36784002Y-189921805D01*
X38095198Y-191233002D01*
X38118997Y-191262001D01*
X38147995Y-191285799D01*
X38234721Y-191356974D01*
X38349453Y-191418300D01*
X38366751Y-191427546D01*
X38510012Y-191471003D01*
X38621665Y-191482000D01*
X38621675Y-191482000D01*
X38658998Y-191485676D01*
X38696321Y-191482000D01*
X39360569Y-191482000D01*
X40750496Y-192871928D01*
X39332000Y-192871928D01*
X39207518Y-192884188D01*
X39087820Y-192920498D01*
X38977506Y-192979463D01*
X38880815Y-193058815D01*
X38801463Y-193155506D01*
X38742498Y-193265820D01*
X38706188Y-193385518D01*
X38693928Y-193510000D01*
X38693928Y-193550000D01*
X36902803Y-193550000D01*
X32398688Y-189045886D01*
X32435000Y-188863335D01*
X32435000Y-188580665D01*
X32398688Y-188398114D01*
X34039003Y-186757799D01*
X34068001Y-186734001D01*
X34105487Y-186688324D01*
X34162974Y-186618277D01*
X34233546Y-186486247D01*
X34251878Y-186425812D01*
X34277003Y-186342986D01*
X34288000Y-186231333D01*
X34288000Y-186231323D01*
X34291676Y-186194000D01*
X34288000Y-186156677D01*
X34288000Y-184398409D01*
X34482014Y-184294706D01*
X34708134Y-184109134D01*
X34893706Y-183883014D01*
X35031599Y-183625034D01*
X35116513Y-183345111D01*
X35145185Y-183054000D01*
X35116513Y-182762889D01*
X35031599Y-182482966D01*
X34893706Y-182224986D01*
X34708134Y-181998866D01*
X34482014Y-181813294D01*
X34457143Y-181800000D01*
X45161928Y-181800000D01*
X45165000Y-182714250D01*
X45323750Y-182873000D01*
X46873000Y-182873000D01*
X46873000Y-181323750D01*
X46714250Y-181165000D01*
X45800000Y-181161928D01*
X45675518Y-181174188D01*
X45555820Y-181210498D01*
X45445506Y-181269463D01*
X45348815Y-181348815D01*
X45269463Y-181445506D01*
X45210498Y-181555820D01*
X45174188Y-181675518D01*
X45161928Y-181800000D01*
X34457143Y-181800000D01*
X34456278Y-181799538D01*
X34662429Y-181643049D01*
X34855496Y-181425193D01*
X35002352Y-181173858D01*
X35094476Y-180910890D01*
X34973155Y-180681000D01*
X33655000Y-180681000D01*
X33655000Y-180701000D01*
X33401000Y-180701000D01*
X33401000Y-180681000D01*
X32082845Y-180681000D01*
X31961524Y-180910890D01*
X32053648Y-181173858D01*
X32200504Y-181425193D01*
X32393571Y-181643049D01*
X32599722Y-181799538D01*
X32573986Y-181813294D01*
X32347866Y-181998866D01*
X32162294Y-182224986D01*
X32024401Y-182482966D01*
X31939487Y-182762889D01*
X31910815Y-183054000D01*
X31939487Y-183345111D01*
X32024401Y-183625034D01*
X32162294Y-183883014D01*
X32347866Y-184109134D01*
X32573986Y-184294706D01*
X32768000Y-184398409D01*
X32768001Y-185879197D01*
X31323886Y-187323312D01*
X31141335Y-187287000D01*
X30858665Y-187287000D01*
X30581426Y-187342147D01*
X30320273Y-187450320D01*
X30085241Y-187607363D01*
X29885363Y-187807241D01*
X29728320Y-188042273D01*
X29620147Y-188303426D01*
X29565000Y-188580665D01*
X28660000Y-188580665D01*
X28660000Y-166211040D01*
X31120091Y-166211040D01*
X31214930Y-166475881D01*
X31359615Y-166717131D01*
X31548586Y-166925519D01*
X31774580Y-167093037D01*
X32028913Y-167213246D01*
X32162961Y-167253904D01*
X32385000Y-167131915D01*
X32385000Y-165989000D01*
X32639000Y-165989000D01*
X32639000Y-167131915D01*
X32861039Y-167253904D01*
X32995087Y-167213246D01*
X33249420Y-167093037D01*
X33475414Y-166925519D01*
X33664385Y-166717131D01*
X33809070Y-166475881D01*
X33903909Y-166211040D01*
X33782624Y-165989000D01*
X32639000Y-165989000D01*
X32385000Y-165989000D01*
X31241376Y-165989000D01*
X31120091Y-166211040D01*
X28660000Y-166211040D01*
X28660000Y-165512960D01*
X31120091Y-165512960D01*
X31241376Y-165735000D01*
X32385000Y-165735000D01*
X32385000Y-164592085D01*
X32639000Y-164592085D01*
X32639000Y-165735000D01*
X33782624Y-165735000D01*
X33903909Y-165512960D01*
X33809070Y-165248119D01*
X33664385Y-165006869D01*
X33475414Y-164798481D01*
X33249420Y-164630963D01*
X32995087Y-164510754D01*
X32861039Y-164470096D01*
X32639000Y-164592085D01*
X32385000Y-164592085D01*
X32162961Y-164470096D01*
X32028913Y-164510754D01*
X31774580Y-164630963D01*
X31548586Y-164798481D01*
X31359615Y-165006869D01*
X31214930Y-165248119D01*
X31120091Y-165512960D01*
X28660000Y-165512960D01*
X28660000Y-163728000D01*
X96367472Y-163728000D01*
X96349241Y-186471702D01*
%TA.AperFunction,Conductor*%
D29*
G36*
X96349241Y-186471702D02*
G01*
X96250000Y-186461928D01*
X95585750Y-186465000D01*
X95427000Y-186623750D01*
X95427000Y-188123000D01*
X95447000Y-188123000D01*
X95447000Y-188377000D01*
X95427000Y-188377000D01*
X95427000Y-190723000D01*
X95447000Y-190723000D01*
X95447000Y-190977000D01*
X95427000Y-190977000D01*
X95427000Y-193023000D01*
X95447000Y-193023000D01*
X95447000Y-193277000D01*
X95427000Y-193277000D01*
X95427000Y-195623000D01*
X95447000Y-195623000D01*
X95447000Y-195877000D01*
X95427000Y-195877000D01*
X95427000Y-195897000D01*
X95173000Y-195897000D01*
X95173000Y-195877000D01*
X93873750Y-195877000D01*
X93715000Y-196035750D01*
X93711928Y-196900000D01*
X93724188Y-197024482D01*
X93760498Y-197144180D01*
X93819463Y-197254494D01*
X93889636Y-197340000D01*
X28660000Y-197340000D01*
X28660000Y-195989775D01*
X30189830Y-195989775D01*
X30429976Y-196377018D01*
X30923877Y-196637641D01*
X31459133Y-196796901D01*
X32015174Y-196848678D01*
X32570632Y-196790981D01*
X33104161Y-196626028D01*
X33570024Y-196377018D01*
X33810170Y-195989775D01*
X32000000Y-194179605D01*
X30189830Y-195989775D01*
X28660000Y-195989775D01*
X28660000Y-194015174D01*
X29151322Y-194015174D01*
X29209019Y-194570632D01*
X29373972Y-195104161D01*
X29622982Y-195570024D01*
X30010225Y-195810170D01*
X31820395Y-194000000D01*
X30010225Y-192189830D01*
X29622982Y-192429976D01*
X29362359Y-192923877D01*
X29203099Y-193459133D01*
X29151322Y-194015174D01*
X28660000Y-194015174D01*
X28660000Y-188580665D01*
X29565000Y-188580665D01*
X29565000Y-188863335D01*
X29620147Y-189140574D01*
X29728320Y-189401727D01*
X29885363Y-189636759D01*
X30085241Y-189836637D01*
X30320273Y-189993680D01*
X30581426Y-190101853D01*
X30858665Y-190157000D01*
X31141335Y-190157000D01*
X31323886Y-190120688D01*
X32392480Y-191189282D01*
X31984826Y-191151322D01*
X31429368Y-191209019D01*
X30895839Y-191373972D01*
X30429976Y-191622982D01*
X30189830Y-192010225D01*
X32000000Y-193820395D01*
X32014143Y-193806253D01*
X32193748Y-193985858D01*
X32179605Y-194000000D01*
X33989775Y-195810170D01*
X34377018Y-195570024D01*
X34637641Y-195076123D01*
X34796901Y-194540867D01*
X34848678Y-193984826D01*
X34809343Y-193606146D01*
X36024205Y-194821008D01*
X36047999Y-194850001D01*
X36076992Y-194873795D01*
X36076996Y-194873799D01*
X36136964Y-194923013D01*
X36163724Y-194944974D01*
X36295753Y-195015546D01*
X36439014Y-195059003D01*
X36550667Y-195070000D01*
X36550676Y-195070000D01*
X36587999Y-195073676D01*
X36625322Y-195070000D01*
X38693928Y-195070000D01*
X38693928Y-195110000D01*
X38706188Y-195234482D01*
X38742498Y-195354180D01*
X38801463Y-195464494D01*
X38880815Y-195561185D01*
X38977506Y-195640537D01*
X39087820Y-195699502D01*
X39207518Y-195735812D01*
X39332000Y-195748072D01*
X40932000Y-195748072D01*
X41056482Y-195735812D01*
X41176180Y-195699502D01*
X41286494Y-195640537D01*
X41383185Y-195561185D01*
X41396790Y-195544607D01*
X41452273Y-195581680D01*
X41713426Y-195689853D01*
X41990665Y-195745000D01*
X42273335Y-195745000D01*
X42550574Y-195689853D01*
X42811727Y-195581680D01*
X43046759Y-195424637D01*
X43122357Y-195349039D01*
X44988096Y-195349039D01*
X45028754Y-195483087D01*
X45148963Y-195737420D01*
X45316481Y-195963414D01*
X45524869Y-196152385D01*
X45766119Y-196297070D01*
X46030960Y-196391909D01*
X46253000Y-196270624D01*
X46253000Y-195127000D01*
X46507000Y-195127000D01*
X46507000Y-196270624D01*
X46729040Y-196391909D01*
X46993881Y-196297070D01*
X47235131Y-196152385D01*
X47443519Y-195963414D01*
X47611037Y-195737420D01*
X47731246Y-195483087D01*
X47771904Y-195349039D01*
X47649915Y-195127000D01*
X46507000Y-195127000D01*
X46253000Y-195127000D01*
X45110085Y-195127000D01*
X44988096Y-195349039D01*
X43122357Y-195349039D01*
X43246637Y-195224759D01*
X43403680Y-194989727D01*
X43511853Y-194728574D01*
X43567000Y-194451335D01*
X43567000Y-194434999D01*
X45067470Y-194434999D01*
X45028754Y-194516913D01*
X44988096Y-194650961D01*
X45110085Y-194873000D01*
X46253000Y-194873000D01*
X46253000Y-194853000D01*
X46507000Y-194853000D01*
X46507000Y-194873000D01*
X47649915Y-194873000D01*
X47771904Y-194650961D01*
X47731246Y-194516913D01*
X47692530Y-194434999D01*
X52360198Y-194434999D01*
X52601312Y-194676114D01*
X52565000Y-194858665D01*
X52565000Y-195141335D01*
X52620147Y-195418574D01*
X52728320Y-195679727D01*
X52885363Y-195914759D01*
X53085241Y-196114637D01*
X53320273Y-196271680D01*
X53581426Y-196379853D01*
X53858665Y-196435000D01*
X54141335Y-196435000D01*
X54418574Y-196379853D01*
X54679727Y-196271680D01*
X54914759Y-196114637D01*
X55114637Y-195914759D01*
X55271680Y-195679727D01*
X55325406Y-195550020D01*
X55358304Y-195715405D01*
X55458939Y-195958359D01*
X55605038Y-196177013D01*
X55790987Y-196362962D01*
X56009641Y-196509061D01*
X56252595Y-196609696D01*
X56510514Y-196661000D01*
X56773486Y-196661000D01*
X57031405Y-196609696D01*
X57274359Y-196509061D01*
X57493013Y-196362962D01*
X57678962Y-196177013D01*
X57739775Y-196086000D01*
X79065680Y-196086000D01*
X79103002Y-196089676D01*
X79140324Y-196086000D01*
X79140335Y-196086000D01*
X79251988Y-196075003D01*
X79395249Y-196031546D01*
X79527278Y-195960974D01*
X79643003Y-195866001D01*
X79666806Y-195836997D01*
X81796004Y-193707800D01*
X81825002Y-193684002D01*
X81919975Y-193568277D01*
X81990547Y-193436248D01*
X82034004Y-193292987D01*
X82045001Y-193181334D01*
X82048678Y-193144001D01*
X82045001Y-193106668D01*
X82045001Y-189126702D01*
X82498903Y-189126702D01*
X82570486Y-189370671D01*
X82825996Y-189491571D01*
X83100184Y-189560300D01*
X83382512Y-189574217D01*
X83662130Y-189532787D01*
X83928292Y-189437603D01*
X84053514Y-189370671D01*
X84125097Y-189126702D01*
X83312000Y-188313605D01*
X82498903Y-189126702D01*
X82045001Y-189126702D01*
X82045001Y-188818774D01*
X82075329Y-188875514D01*
X82319298Y-188947097D01*
X83132395Y-188134000D01*
X83491605Y-188134000D01*
X84304702Y-188947097D01*
X84548671Y-188875514D01*
X84669571Y-188620004D01*
X84738300Y-188345816D01*
X84752217Y-188063488D01*
X84710787Y-187783870D01*
X84615603Y-187517708D01*
X84548671Y-187392486D01*
X84304702Y-187320903D01*
X83491605Y-188134000D01*
X83132395Y-188134000D01*
X82319298Y-187320903D01*
X82075329Y-187392486D01*
X81954429Y-187647996D01*
X81885700Y-187922184D01*
X81871783Y-188204512D01*
X81878923Y-188252703D01*
X81825002Y-188187000D01*
X81796005Y-188163203D01*
X81366167Y-187733365D01*
X81395000Y-187588411D01*
X81395000Y-187315589D01*
X81360332Y-187141298D01*
X82498903Y-187141298D01*
X83312000Y-187954395D01*
X84125097Y-187141298D01*
X84053514Y-186897329D01*
X83798004Y-186776429D01*
X83523816Y-186707700D01*
X83241488Y-186693783D01*
X82961870Y-186735213D01*
X82695708Y-186830397D01*
X82570486Y-186897329D01*
X82498903Y-187141298D01*
X81360332Y-187141298D01*
X81341775Y-187048011D01*
X81237371Y-186795957D01*
X81085799Y-186569114D01*
X80892886Y-186376201D01*
X80666043Y-186224629D01*
X80413989Y-186120225D01*
X80146411Y-186067000D01*
X79873589Y-186067000D01*
X79606011Y-186120225D01*
X79353957Y-186224629D01*
X79127114Y-186376201D01*
X78934201Y-186569114D01*
X78782629Y-186795957D01*
X78678225Y-187048011D01*
X78625000Y-187315589D01*
X78625000Y-187588411D01*
X78678225Y-187855989D01*
X78782629Y-188108043D01*
X78934201Y-188334886D01*
X79127114Y-188527799D01*
X79353957Y-188679371D01*
X79462467Y-188724317D01*
X79413496Y-188742031D01*
X79181101Y-188882421D01*
X78980560Y-189065451D01*
X78819580Y-189284088D01*
X78704347Y-189529930D01*
X78667682Y-189650815D01*
X78790344Y-189865000D01*
X79883000Y-189865000D01*
X79883000Y-189845000D01*
X80137000Y-189845000D01*
X80137000Y-189865000D01*
X80157000Y-189865000D01*
X80157000Y-190119000D01*
X80137000Y-190119000D01*
X80137000Y-190139000D01*
X79883000Y-190139000D01*
X79883000Y-190119000D01*
X78790344Y-190119000D01*
X78747177Y-190194376D01*
X77012999Y-188460198D01*
X77012999Y-182713185D01*
X78667682Y-182713185D01*
X78704347Y-182834070D01*
X78819580Y-183079912D01*
X78980560Y-183298549D01*
X79181101Y-183481579D01*
X79413496Y-183621969D01*
X79668814Y-183714323D01*
X79883000Y-183592420D01*
X79883000Y-182499000D01*
X80137000Y-182499000D01*
X80137000Y-183592420D01*
X80351186Y-183714323D01*
X80606504Y-183621969D01*
X80838899Y-183481579D01*
X81039440Y-183298549D01*
X81200420Y-183079912D01*
X81315653Y-182834070D01*
X81352318Y-182713185D01*
X81229656Y-182499000D01*
X80137000Y-182499000D01*
X79883000Y-182499000D01*
X78790344Y-182499000D01*
X78667682Y-182713185D01*
X77012999Y-182713185D01*
X77012999Y-173663980D01*
X78657626Y-173663980D01*
X78777514Y-173948836D01*
X79101210Y-174109699D01*
X79450069Y-174204322D01*
X79810684Y-174229067D01*
X80169198Y-174182985D01*
X80511833Y-174067846D01*
X80734486Y-173948836D01*
X80854374Y-173663980D01*
X79756000Y-172565605D01*
X78657626Y-173663980D01*
X77012999Y-173663980D01*
X77012999Y-173572324D01*
X77016675Y-173534999D01*
X77012999Y-173497674D01*
X77012999Y-173497666D01*
X77002002Y-173386013D01*
X76958545Y-173242752D01*
X76887973Y-173110723D01*
X76793000Y-172994998D01*
X76764002Y-172971200D01*
X76233486Y-172440684D01*
X77912933Y-172440684D01*
X77959015Y-172799198D01*
X78074154Y-173141833D01*
X78193164Y-173364486D01*
X78478020Y-173484374D01*
X79576395Y-172386000D01*
X79935605Y-172386000D01*
X81033980Y-173484374D01*
X81318836Y-173364486D01*
X81479699Y-173040790D01*
X81574322Y-172691931D01*
X81599067Y-172331316D01*
X81552985Y-171972802D01*
X81437846Y-171630167D01*
X81318836Y-171407514D01*
X81033980Y-171287626D01*
X79935605Y-172386000D01*
X79576395Y-172386000D01*
X78478020Y-171287626D01*
X78193164Y-171407514D01*
X78032301Y-171731210D01*
X77937678Y-172080069D01*
X77912933Y-172440684D01*
X76233486Y-172440684D01*
X74900822Y-171108020D01*
X78657626Y-171108020D01*
X79756000Y-172206395D01*
X80854374Y-171108020D01*
X80734486Y-170823164D01*
X80410790Y-170662301D01*
X80061931Y-170567678D01*
X79701316Y-170542933D01*
X79342802Y-170589015D01*
X79000167Y-170704154D01*
X78777514Y-170823164D01*
X78657626Y-171108020D01*
X74900822Y-171108020D01*
X69978802Y-166186000D01*
X77917928Y-166186000D01*
X77917928Y-168586000D01*
X77930188Y-168710482D01*
X77966498Y-168830180D01*
X78025463Y-168940494D01*
X78104815Y-169037185D01*
X78201506Y-169116537D01*
X78311820Y-169175502D01*
X78431518Y-169211812D01*
X78556000Y-169224072D01*
X80956000Y-169224072D01*
X81080482Y-169211812D01*
X81200180Y-169175502D01*
X81310494Y-169116537D01*
X81407185Y-169037185D01*
X81486537Y-168940494D01*
X81545502Y-168830180D01*
X81581812Y-168710482D01*
X81594072Y-168586000D01*
X81594072Y-168146000D01*
X82235199Y-168146000D01*
X88585928Y-174496730D01*
X88585928Y-176460000D01*
X88598188Y-176584482D01*
X88634498Y-176704180D01*
X88645826Y-176725372D01*
X83635887Y-181735312D01*
X83453335Y-181699000D01*
X83170665Y-181699000D01*
X82988114Y-181735312D01*
X81398072Y-180145271D01*
X81398072Y-179082000D01*
X81385812Y-178957518D01*
X81349502Y-178837820D01*
X81290537Y-178727506D01*
X81211185Y-178630815D01*
X81114494Y-178551463D01*
X81004180Y-178492498D01*
X80884482Y-178456188D01*
X80760000Y-178443928D01*
X79260000Y-178443928D01*
X79135518Y-178456188D01*
X79015820Y-178492498D01*
X78905506Y-178551463D01*
X78808815Y-178630815D01*
X78729463Y-178727506D01*
X78670498Y-178837820D01*
X78634188Y-178957518D01*
X78621928Y-179082000D01*
X78621928Y-180582000D01*
X78634188Y-180706482D01*
X78670498Y-180826180D01*
X78729463Y-180936494D01*
X78808815Y-181033185D01*
X78905506Y-181112537D01*
X79015820Y-181171502D01*
X79135518Y-181207812D01*
X79252437Y-181219327D01*
X79181101Y-181262421D01*
X78980560Y-181445451D01*
X78819580Y-181664088D01*
X78704347Y-181909930D01*
X78667682Y-182030815D01*
X78790344Y-182245000D01*
X79883000Y-182245000D01*
X79883000Y-182225000D01*
X80137000Y-182225000D01*
X80137000Y-182245000D01*
X81229656Y-182245000D01*
X81272823Y-182169624D01*
X81913312Y-182810114D01*
X81877000Y-182992665D01*
X81877000Y-183275335D01*
X81932147Y-183552574D01*
X82040320Y-183813727D01*
X82197363Y-184048759D01*
X82397241Y-184248637D01*
X82632273Y-184405680D01*
X82893426Y-184513853D01*
X83170665Y-184569000D01*
X83453335Y-184569000D01*
X83635886Y-184532688D01*
X85748999Y-186645801D01*
X85749000Y-193659667D01*
X85745323Y-193696999D01*
X85749000Y-193734332D01*
X85759997Y-193845985D01*
X85773179Y-193889441D01*
X85803453Y-193989245D01*
X85874025Y-194121275D01*
X85921896Y-194179605D01*
X85968999Y-194237000D01*
X85997997Y-194260798D01*
X86395928Y-194658729D01*
X86395928Y-195922000D01*
X86408188Y-196046482D01*
X86444498Y-196166180D01*
X86503463Y-196276494D01*
X86582815Y-196373185D01*
X86679506Y-196452537D01*
X86789820Y-196511502D01*
X86909518Y-196547812D01*
X87034000Y-196560072D01*
X88734000Y-196560072D01*
X88858482Y-196547812D01*
X88978180Y-196511502D01*
X89088494Y-196452537D01*
X89185185Y-196373185D01*
X89264537Y-196276494D01*
X89323502Y-196166180D01*
X89359812Y-196046482D01*
X89372072Y-195922000D01*
X89372072Y-194658730D01*
X89970803Y-194060000D01*
X91450627Y-194060000D01*
X91505820Y-194089502D01*
X91625518Y-194125812D01*
X91750000Y-194138072D01*
X93150000Y-194138072D01*
X93274482Y-194125812D01*
X93394180Y-194089502D01*
X93504494Y-194030537D01*
X93601185Y-193951185D01*
X93680537Y-193854494D01*
X93713211Y-193793365D01*
X93711928Y-194050000D01*
X93724188Y-194174482D01*
X93760498Y-194294180D01*
X93776972Y-194325000D01*
X93760498Y-194355820D01*
X93724188Y-194475518D01*
X93711928Y-194600000D01*
X93715000Y-195464250D01*
X93873750Y-195623000D01*
X95173000Y-195623000D01*
X95173000Y-193277000D01*
X95153000Y-193277000D01*
X95153000Y-193023000D01*
X95173000Y-193023000D01*
X95173000Y-190977000D01*
X93873750Y-190977000D01*
X93780243Y-191070507D01*
X93775812Y-191025518D01*
X93775029Y-191022936D01*
X93785000Y-190931750D01*
X93717032Y-190863782D01*
X93680537Y-190795506D01*
X93601185Y-190698815D01*
X93513678Y-190627000D01*
X93626250Y-190627000D01*
X93714871Y-190538379D01*
X93715000Y-190564250D01*
X93873750Y-190723000D01*
X95173000Y-190723000D01*
X95173000Y-188377000D01*
X93873750Y-188377000D01*
X93715000Y-188535750D01*
X93711928Y-189400000D01*
X93724188Y-189524482D01*
X93760498Y-189644180D01*
X93776972Y-189675000D01*
X93760498Y-189705820D01*
X93724188Y-189825518D01*
X93711928Y-189950000D01*
X93713210Y-190206254D01*
X93674943Y-190137273D01*
X93594092Y-190041831D01*
X93496174Y-189963997D01*
X93384954Y-189906761D01*
X93264704Y-189872323D01*
X93140046Y-189862006D01*
X92735750Y-189865000D01*
X92577000Y-190023750D01*
X92577000Y-190511928D01*
X92323000Y-190511928D01*
X92323000Y-190023750D01*
X92164250Y-189865000D01*
X91759954Y-189862006D01*
X91635296Y-189872323D01*
X91515046Y-189906761D01*
X91403826Y-189963997D01*
X91305908Y-190041831D01*
X91225057Y-190137273D01*
X91164379Y-190246654D01*
X91126206Y-190365771D01*
X91115000Y-190468250D01*
X91273750Y-190627000D01*
X91386322Y-190627000D01*
X91298815Y-190698815D01*
X91219463Y-190795506D01*
X91182968Y-190863782D01*
X91115000Y-190931750D01*
X91124971Y-191022936D01*
X91124188Y-191025518D01*
X91111928Y-191150000D01*
X91111928Y-191240000D01*
X90206802Y-191240000D01*
X89325209Y-190358408D01*
X89369000Y-190138260D01*
X89369000Y-189845740D01*
X89311932Y-189558842D01*
X89199990Y-189288589D01*
X89037475Y-189045368D01*
X88830632Y-188838525D01*
X88648466Y-188716805D01*
X88765355Y-188647178D01*
X88981588Y-188452269D01*
X89155641Y-188218920D01*
X89280825Y-187956099D01*
X89325476Y-187808890D01*
X89204155Y-187579000D01*
X88011000Y-187579000D01*
X88011000Y-187599000D01*
X87757000Y-187599000D01*
X87757000Y-187579000D01*
X87737000Y-187579000D01*
X87737000Y-187325000D01*
X87757000Y-187325000D01*
X87757000Y-186131186D01*
X88011000Y-186131186D01*
X88011000Y-187325000D01*
X89204155Y-187325000D01*
X89322895Y-187100000D01*
X93711928Y-187100000D01*
X93715000Y-187964250D01*
X93873750Y-188123000D01*
X95173000Y-188123000D01*
X95173000Y-186623750D01*
X95014250Y-186465000D01*
X94350000Y-186461928D01*
X94225518Y-186474188D01*
X94105820Y-186510498D01*
X93995506Y-186569463D01*
X93898815Y-186648815D01*
X93819463Y-186745506D01*
X93760498Y-186855820D01*
X93724188Y-186975518D01*
X93711928Y-187100000D01*
X89322895Y-187100000D01*
X89325476Y-187095110D01*
X89280825Y-186947901D01*
X89155641Y-186685080D01*
X88981588Y-186451731D01*
X88765355Y-186256822D01*
X88515252Y-186107843D01*
X88240891Y-186010519D01*
X88011000Y-186131186D01*
X87757000Y-186131186D01*
X87527109Y-186010519D01*
X87252748Y-186107843D01*
X87238142Y-186116543D01*
X87214545Y-186038752D01*
X87143973Y-185906723D01*
X87049000Y-185790998D01*
X87020003Y-185767201D01*
X84710688Y-183457886D01*
X84747000Y-183275335D01*
X84747000Y-182992665D01*
X84710688Y-182810113D01*
X85982821Y-181537980D01*
X89325626Y-181537980D01*
X89445514Y-181822836D01*
X89769210Y-181983699D01*
X90118069Y-182078322D01*
X90478684Y-182103067D01*
X90837198Y-182056985D01*
X91179833Y-181941846D01*
X91402486Y-181822836D01*
X91522374Y-181537980D01*
X90424000Y-180439605D01*
X89325626Y-181537980D01*
X85982821Y-181537980D01*
X87206117Y-180314684D01*
X88580933Y-180314684D01*
X88627015Y-180673198D01*
X88742154Y-181015833D01*
X88861164Y-181238486D01*
X89146020Y-181358374D01*
X90244395Y-180260000D01*
X90603605Y-180260000D01*
X91701980Y-181358374D01*
X91986836Y-181238486D01*
X92147699Y-180914790D01*
X92242322Y-180565931D01*
X92267067Y-180205316D01*
X92220985Y-179846802D01*
X92105846Y-179504167D01*
X91986836Y-179281514D01*
X91701980Y-179161626D01*
X90603605Y-180260000D01*
X90244395Y-180260000D01*
X89146020Y-179161626D01*
X88861164Y-179281514D01*
X88700301Y-179605210D01*
X88605678Y-179954069D01*
X88580933Y-180314684D01*
X87206117Y-180314684D01*
X88538781Y-178982020D01*
X89325626Y-178982020D01*
X90424000Y-180080395D01*
X91522374Y-178982020D01*
X91402486Y-178697164D01*
X91078790Y-178536301D01*
X90729931Y-178441678D01*
X90369316Y-178416933D01*
X90010802Y-178463015D01*
X89668167Y-178578154D01*
X89445514Y-178697164D01*
X89325626Y-178982020D01*
X88538781Y-178982020D01*
X90422730Y-177098072D01*
X91624000Y-177098072D01*
X91748482Y-177085812D01*
X91868180Y-177049502D01*
X91978494Y-176990537D01*
X92075185Y-176911185D01*
X92154537Y-176814494D01*
X92213502Y-176704180D01*
X92249812Y-176584482D01*
X92262072Y-176460000D01*
X92262072Y-174060000D01*
X92249812Y-173935518D01*
X92213502Y-173815820D01*
X92154537Y-173705506D01*
X92075185Y-173608815D01*
X91978494Y-173529463D01*
X91868180Y-173470498D01*
X91748482Y-173434188D01*
X91624000Y-173421928D01*
X89660730Y-173421928D01*
X85228577Y-168989775D01*
X91189830Y-168989775D01*
X91429976Y-169377018D01*
X91923877Y-169637641D01*
X92459133Y-169796901D01*
X93015174Y-169848678D01*
X93570632Y-169790981D01*
X94104161Y-169626028D01*
X94570024Y-169377018D01*
X94810170Y-168989775D01*
X93000000Y-167179605D01*
X91189830Y-168989775D01*
X85228577Y-168989775D01*
X83253976Y-167015174D01*
X90151322Y-167015174D01*
X90209019Y-167570632D01*
X90373972Y-168104161D01*
X90622982Y-168570024D01*
X91010225Y-168810170D01*
X92820395Y-167000000D01*
X93179605Y-167000000D01*
X94989775Y-168810170D01*
X95377018Y-168570024D01*
X95637641Y-168076123D01*
X95796901Y-167540867D01*
X95848678Y-166984826D01*
X95790981Y-166429368D01*
X95626028Y-165895839D01*
X95377018Y-165429976D01*
X94989775Y-165189830D01*
X93179605Y-167000000D01*
X92820395Y-167000000D01*
X91010225Y-165189830D01*
X90622982Y-165429976D01*
X90362359Y-165923877D01*
X90203099Y-166459133D01*
X90151322Y-167015174D01*
X83253976Y-167015174D01*
X83113804Y-166875003D01*
X83090001Y-166845999D01*
X82974276Y-166751026D01*
X82842247Y-166680454D01*
X82698986Y-166636997D01*
X82587333Y-166626000D01*
X82587322Y-166626000D01*
X82550000Y-166622324D01*
X82512678Y-166626000D01*
X81594072Y-166626000D01*
X81594072Y-166186000D01*
X81581812Y-166061518D01*
X81545502Y-165941820D01*
X81486537Y-165831506D01*
X81407185Y-165734815D01*
X81310494Y-165655463D01*
X81200180Y-165596498D01*
X81080482Y-165560188D01*
X80956000Y-165547928D01*
X78556000Y-165547928D01*
X78431518Y-165560188D01*
X78311820Y-165596498D01*
X78201506Y-165655463D01*
X78104815Y-165734815D01*
X78025463Y-165831506D01*
X77966498Y-165941820D01*
X77930188Y-166061518D01*
X77917928Y-166186000D01*
X69978802Y-166186000D01*
X69385645Y-165592844D01*
X69407000Y-165485486D01*
X69407000Y-165222514D01*
X69364773Y-165010225D01*
X91189830Y-165010225D01*
X93000000Y-166820395D01*
X94810170Y-165010225D01*
X94570024Y-164622982D01*
X94076123Y-164362359D01*
X93540867Y-164203099D01*
X92984826Y-164151322D01*
X92429368Y-164209019D01*
X91895839Y-164373972D01*
X91429976Y-164622982D01*
X91189830Y-165010225D01*
X69364773Y-165010225D01*
X69355696Y-164964595D01*
X69255061Y-164721641D01*
X69108962Y-164502987D01*
X68923013Y-164317038D01*
X68704359Y-164170939D01*
X68461405Y-164070304D01*
X68203486Y-164019000D01*
X67940514Y-164019000D01*
X67682595Y-164070304D01*
X67439641Y-164170939D01*
X67220987Y-164317038D01*
X67035038Y-164502987D01*
X66888939Y-164721641D01*
X66788304Y-164964595D01*
X66737000Y-165222514D01*
X66737000Y-165485486D01*
X66788304Y-165743405D01*
X66888939Y-165986359D01*
X67035038Y-166205013D01*
X67220987Y-166390962D01*
X67439641Y-166537061D01*
X67682595Y-166637696D01*
X67940514Y-166689000D01*
X68203486Y-166689000D01*
X68310844Y-166667645D01*
X75493000Y-173849802D01*
X75492999Y-188737677D01*
X75489323Y-188774999D01*
X75492999Y-188812321D01*
X75492999Y-188812331D01*
X75503996Y-188923984D01*
X75540817Y-189045368D01*
X75547453Y-189067245D01*
X75618025Y-189199275D01*
X75653907Y-189242997D01*
X75712998Y-189315000D01*
X75742002Y-189338803D01*
X78653833Y-192250635D01*
X78625000Y-192395589D01*
X78625000Y-192668411D01*
X78678225Y-192935989D01*
X78782629Y-193188043D01*
X78934201Y-193414886D01*
X79127114Y-193607799D01*
X79353957Y-193759371D01*
X79524280Y-193829921D01*
X78788201Y-194566000D01*
X57739775Y-194566000D01*
X57678962Y-194474987D01*
X57493013Y-194289038D01*
X57274359Y-194142939D01*
X57031405Y-194042304D01*
X56773486Y-193991000D01*
X56510514Y-193991000D01*
X56252595Y-194042304D01*
X56009641Y-194142939D01*
X55790987Y-194289038D01*
X55605038Y-194474987D01*
X55458939Y-194693641D01*
X55420590Y-194786223D01*
X55379853Y-194581426D01*
X55271680Y-194320273D01*
X55114637Y-194085241D01*
X54914759Y-193885363D01*
X54679727Y-193728320D01*
X54418574Y-193620147D01*
X54141335Y-193565000D01*
X53858665Y-193565000D01*
X53676114Y-193601312D01*
X53238802Y-193164001D01*
X53215000Y-193134998D01*
X53099275Y-193040025D01*
X52967246Y-192969453D01*
X52823985Y-192925996D01*
X52712332Y-192914999D01*
X52712321Y-192914999D01*
X52674999Y-192911323D01*
X52637677Y-192914999D01*
X42846226Y-192914999D01*
X42837546Y-192886383D01*
X42766974Y-192754354D01*
X42728730Y-192707753D01*
X42695799Y-192667626D01*
X42695795Y-192667622D01*
X42672001Y-192638629D01*
X42643008Y-192614835D01*
X40239174Y-190211003D01*
X40215371Y-190181999D01*
X40099646Y-190087026D01*
X39967617Y-190016454D01*
X39824356Y-189972997D01*
X39712703Y-189962000D01*
X39712692Y-189962000D01*
X39675370Y-189958324D01*
X39638048Y-189962000D01*
X39347140Y-189962000D01*
X39534759Y-189836637D01*
X39734637Y-189636759D01*
X39838043Y-189482000D01*
X45915057Y-189482000D01*
X46130801Y-189626156D01*
X46464750Y-189764482D01*
X46819268Y-189835000D01*
X47180732Y-189835000D01*
X47535250Y-189764482D01*
X47869199Y-189626156D01*
X48169744Y-189425338D01*
X48425338Y-189169744D01*
X48626156Y-188869199D01*
X48671388Y-188760000D01*
X53582678Y-188760000D01*
X53620000Y-188763676D01*
X53657322Y-188760000D01*
X54081199Y-188760000D01*
X55328355Y-190007157D01*
X55307000Y-190114514D01*
X55307000Y-190377486D01*
X55358304Y-190635405D01*
X55458939Y-190878359D01*
X55605038Y-191097013D01*
X55790987Y-191282962D01*
X56009641Y-191429061D01*
X56252595Y-191529696D01*
X56510514Y-191581000D01*
X56773486Y-191581000D01*
X57031405Y-191529696D01*
X57274359Y-191429061D01*
X57493013Y-191282962D01*
X57678962Y-191097013D01*
X57739775Y-191006000D01*
X58674604Y-191006000D01*
X58775241Y-191106637D01*
X59010273Y-191263680D01*
X59271426Y-191371853D01*
X59548665Y-191427000D01*
X59831335Y-191427000D01*
X60013886Y-191390688D01*
X62134205Y-193511008D01*
X62157999Y-193540001D01*
X62186992Y-193563795D01*
X62186996Y-193563799D01*
X62236535Y-193604454D01*
X62273724Y-193634974D01*
X62405753Y-193705546D01*
X62549014Y-193749003D01*
X62660667Y-193760000D01*
X62660676Y-193760000D01*
X62697999Y-193763676D01*
X62735322Y-193760000D01*
X62781957Y-193760000D01*
X62885363Y-193914759D01*
X63085241Y-194114637D01*
X63320273Y-194271680D01*
X63581426Y-194379853D01*
X63858665Y-194435000D01*
X64141335Y-194435000D01*
X64418574Y-194379853D01*
X64679727Y-194271680D01*
X64914759Y-194114637D01*
X65114637Y-193914759D01*
X65271680Y-193679727D01*
X65379853Y-193418574D01*
X65393684Y-193349039D01*
X70228096Y-193349039D01*
X70268754Y-193483087D01*
X70388963Y-193737420D01*
X70556481Y-193963414D01*
X70764869Y-194152385D01*
X71006119Y-194297070D01*
X71270960Y-194391909D01*
X71493000Y-194270624D01*
X71493000Y-193127000D01*
X71747000Y-193127000D01*
X71747000Y-194270624D01*
X71969040Y-194391909D01*
X72233881Y-194297070D01*
X72475131Y-194152385D01*
X72683519Y-193963414D01*
X72851037Y-193737420D01*
X72971246Y-193483087D01*
X73011904Y-193349039D01*
X72889915Y-193127000D01*
X71747000Y-193127000D01*
X71493000Y-193127000D01*
X70350085Y-193127000D01*
X70228096Y-193349039D01*
X65393684Y-193349039D01*
X65435000Y-193141335D01*
X65435000Y-192858665D01*
X65393685Y-192650961D01*
X70228096Y-192650961D01*
X70350085Y-192873000D01*
X71493000Y-192873000D01*
X71493000Y-191729376D01*
X71747000Y-191729376D01*
X71747000Y-192873000D01*
X72889915Y-192873000D01*
X73011904Y-192650961D01*
X72971246Y-192516913D01*
X72851037Y-192262580D01*
X72683519Y-192036586D01*
X72475131Y-191847615D01*
X72233881Y-191702930D01*
X71969040Y-191608091D01*
X71747000Y-191729376D01*
X71493000Y-191729376D01*
X71270960Y-191608091D01*
X71006119Y-191702930D01*
X70764869Y-191847615D01*
X70556481Y-192036586D01*
X70388963Y-192262580D01*
X70268754Y-192516913D01*
X70228096Y-192650961D01*
X65393685Y-192650961D01*
X65379853Y-192581426D01*
X65271680Y-192320273D01*
X65114637Y-192085241D01*
X64914759Y-191885363D01*
X64679727Y-191728320D01*
X64418574Y-191620147D01*
X64141335Y-191565000D01*
X63858665Y-191565000D01*
X63581426Y-191620147D01*
X63320273Y-191728320D01*
X63085241Y-191885363D01*
X62885363Y-192085241D01*
X62874420Y-192101618D01*
X61757504Y-190984702D01*
X63876903Y-190984702D01*
X63948486Y-191228671D01*
X64203996Y-191349571D01*
X64478184Y-191418300D01*
X64760512Y-191432217D01*
X65040130Y-191390787D01*
X65306292Y-191295603D01*
X65431514Y-191228671D01*
X65503097Y-190984702D01*
X64690000Y-190171605D01*
X63876903Y-190984702D01*
X61757504Y-190984702D01*
X61088688Y-190315886D01*
X61125000Y-190133335D01*
X61125000Y-190062512D01*
X63249783Y-190062512D01*
X63291213Y-190342130D01*
X63386397Y-190608292D01*
X63453329Y-190733514D01*
X63697298Y-190805097D01*
X64510395Y-189992000D01*
X64869605Y-189992000D01*
X65682702Y-190805097D01*
X65926671Y-190733514D01*
X66047571Y-190478004D01*
X66116300Y-190203816D01*
X66130217Y-189921488D01*
X66088787Y-189641870D01*
X65993603Y-189375708D01*
X65926671Y-189250486D01*
X65682702Y-189178903D01*
X64869605Y-189992000D01*
X64510395Y-189992000D01*
X63697298Y-189178903D01*
X63453329Y-189250486D01*
X63332429Y-189505996D01*
X63263700Y-189780184D01*
X63249783Y-190062512D01*
X61125000Y-190062512D01*
X61125000Y-189850665D01*
X61069853Y-189573426D01*
X60961680Y-189312273D01*
X60804637Y-189077241D01*
X60726694Y-188999298D01*
X63876903Y-188999298D01*
X64690000Y-189812395D01*
X65503097Y-188999298D01*
X65431514Y-188755329D01*
X65176004Y-188634429D01*
X64901816Y-188565700D01*
X64619488Y-188551783D01*
X64339870Y-188593213D01*
X64073708Y-188688397D01*
X63948486Y-188755329D01*
X63876903Y-188999298D01*
X60726694Y-188999298D01*
X60604759Y-188877363D01*
X60369727Y-188720320D01*
X60108574Y-188612147D01*
X59831335Y-188557000D01*
X59548665Y-188557000D01*
X59271426Y-188612147D01*
X59010273Y-188720320D01*
X58775241Y-188877363D01*
X58575363Y-189077241D01*
X58418320Y-189312273D01*
X58346360Y-189486000D01*
X57739775Y-189486000D01*
X57678962Y-189394987D01*
X57493013Y-189209038D01*
X57274359Y-189062939D01*
X57031405Y-188962304D01*
X56773486Y-188911000D01*
X56510514Y-188911000D01*
X56403157Y-188932355D01*
X55327504Y-187856702D01*
X66496903Y-187856702D01*
X66568486Y-188100671D01*
X66823996Y-188221571D01*
X67098184Y-188290300D01*
X67380512Y-188304217D01*
X67660130Y-188262787D01*
X67926292Y-188167603D01*
X68051514Y-188100671D01*
X68123097Y-187856702D01*
X67310000Y-187043605D01*
X66496903Y-187856702D01*
X55327504Y-187856702D01*
X55082801Y-187612000D01*
X55676114Y-187018688D01*
X55858665Y-187055000D01*
X56141335Y-187055000D01*
X56418574Y-186999853D01*
X56679727Y-186891680D01*
X56914759Y-186734637D01*
X57114637Y-186534759D01*
X57271680Y-186299727D01*
X57379853Y-186038574D01*
X57393684Y-185969039D01*
X62228096Y-185969039D01*
X62268754Y-186103087D01*
X62388963Y-186357420D01*
X62556481Y-186583414D01*
X62764869Y-186772385D01*
X63006119Y-186917070D01*
X63270960Y-187011909D01*
X63493000Y-186890624D01*
X63493000Y-185747000D01*
X63747000Y-185747000D01*
X63747000Y-186890624D01*
X63969040Y-187011909D01*
X64185173Y-186934512D01*
X65869783Y-186934512D01*
X65911213Y-187214130D01*
X66006397Y-187480292D01*
X66073329Y-187605514D01*
X66317298Y-187677097D01*
X67130395Y-186864000D01*
X67489605Y-186864000D01*
X68302702Y-187677097D01*
X68546671Y-187605514D01*
X68667571Y-187350004D01*
X68736300Y-187075816D01*
X68750217Y-186793488D01*
X68708787Y-186513870D01*
X68613603Y-186247708D01*
X68546671Y-186122486D01*
X68302702Y-186050903D01*
X67489605Y-186864000D01*
X67130395Y-186864000D01*
X66317298Y-186050903D01*
X66073329Y-186122486D01*
X65952429Y-186377996D01*
X65883700Y-186652184D01*
X65869783Y-186934512D01*
X64185173Y-186934512D01*
X64233881Y-186917070D01*
X64475131Y-186772385D01*
X64683519Y-186583414D01*
X64851037Y-186357420D01*
X64971246Y-186103087D01*
X65011904Y-185969039D01*
X64889915Y-185747000D01*
X63747000Y-185747000D01*
X63493000Y-185747000D01*
X62350085Y-185747000D01*
X62228096Y-185969039D01*
X57393684Y-185969039D01*
X57435000Y-185761335D01*
X57435000Y-185478665D01*
X57379853Y-185201426D01*
X57271680Y-184940273D01*
X57114637Y-184705241D01*
X56914759Y-184505363D01*
X56682241Y-184350000D01*
X56914759Y-184194637D01*
X57114637Y-183994759D01*
X57271680Y-183759727D01*
X57379853Y-183498574D01*
X57435000Y-183221335D01*
X57435000Y-182938665D01*
X57379853Y-182661426D01*
X57271680Y-182400273D01*
X57114637Y-182165241D01*
X56914759Y-181965363D01*
X56682241Y-181810000D01*
X56914759Y-181654637D01*
X57114637Y-181454759D01*
X57271680Y-181219727D01*
X57379853Y-180958574D01*
X57435000Y-180681335D01*
X57435000Y-180398665D01*
X57379853Y-180121426D01*
X57271680Y-179860273D01*
X57114637Y-179625241D01*
X56916039Y-179426643D01*
X56924482Y-179425812D01*
X57044180Y-179389502D01*
X57154494Y-179330537D01*
X57251185Y-179251185D01*
X57330537Y-179154494D01*
X57389502Y-179044180D01*
X57425812Y-178924482D01*
X57438072Y-178800000D01*
X57438072Y-177200000D01*
X57425812Y-177075518D01*
X57389502Y-176955820D01*
X57330537Y-176845506D01*
X57251185Y-176748815D01*
X57154494Y-176669463D01*
X57044180Y-176610498D01*
X56982894Y-176591907D01*
X60361928Y-173212874D01*
X60361928Y-173600000D01*
X60378992Y-173773254D01*
X60429528Y-173939850D01*
X60511595Y-174093386D01*
X60622038Y-174227962D01*
X60756614Y-174338405D01*
X60910150Y-174420472D01*
X61076746Y-174471008D01*
X61250000Y-174488072D01*
X62413270Y-174488072D01*
X62860001Y-174934803D01*
X62860000Y-176781956D01*
X62705241Y-176885363D01*
X62505363Y-177085241D01*
X62348320Y-177320273D01*
X62240147Y-177581426D01*
X62185000Y-177858665D01*
X62185000Y-178141335D01*
X62240147Y-178418574D01*
X62348320Y-178679727D01*
X62505363Y-178914759D01*
X62705241Y-179114637D01*
X62937759Y-179270000D01*
X62705241Y-179425363D01*
X62505363Y-179625241D01*
X62348320Y-179860273D01*
X62240147Y-180121426D01*
X62185000Y-180398665D01*
X62185000Y-180681335D01*
X62240147Y-180958574D01*
X62348320Y-181219727D01*
X62505363Y-181454759D01*
X62705241Y-181654637D01*
X62937759Y-181810000D01*
X62705241Y-181965363D01*
X62505363Y-182165241D01*
X62348320Y-182400273D01*
X62240147Y-182661426D01*
X62185000Y-182938665D01*
X62185000Y-183221335D01*
X62240147Y-183498574D01*
X62348320Y-183759727D01*
X62505363Y-183994759D01*
X62705241Y-184194637D01*
X62940273Y-184351680D01*
X62950865Y-184356067D01*
X62764869Y-184467615D01*
X62556481Y-184656586D01*
X62388963Y-184882580D01*
X62268754Y-185136913D01*
X62228096Y-185270961D01*
X62350085Y-185493000D01*
X63493000Y-185493000D01*
X63493000Y-185473000D01*
X63747000Y-185473000D01*
X63747000Y-185493000D01*
X64889915Y-185493000D01*
X65011904Y-185270961D01*
X64971246Y-185136913D01*
X64851037Y-184882580D01*
X64683519Y-184656586D01*
X64475131Y-184467615D01*
X64289135Y-184356067D01*
X64299727Y-184351680D01*
X64534759Y-184194637D01*
X64734637Y-183994759D01*
X64764806Y-183949607D01*
X66326201Y-185511003D01*
X66349999Y-185540001D01*
X66378997Y-185563799D01*
X66465723Y-185634974D01*
X66552615Y-185681419D01*
X66496903Y-185871298D01*
X67310000Y-186684395D01*
X68123097Y-185871298D01*
X68090441Y-185760000D01*
X70561928Y-185760000D01*
X70561928Y-185800000D01*
X70574188Y-185924482D01*
X70610498Y-186044180D01*
X70669463Y-186154494D01*
X70748815Y-186251185D01*
X70845506Y-186330537D01*
X70955820Y-186389502D01*
X71075518Y-186425812D01*
X71200000Y-186438072D01*
X72800000Y-186438072D01*
X72924482Y-186425812D01*
X73044180Y-186389502D01*
X73154494Y-186330537D01*
X73251185Y-186251185D01*
X73330537Y-186154494D01*
X73389502Y-186044180D01*
X73425812Y-185924482D01*
X73438072Y-185800000D01*
X73438072Y-184200000D01*
X73425812Y-184075518D01*
X73389502Y-183955820D01*
X73330537Y-183845506D01*
X73251185Y-183748815D01*
X73234607Y-183735210D01*
X73271680Y-183679727D01*
X73379853Y-183418574D01*
X73435000Y-183141335D01*
X73435000Y-182858665D01*
X73379853Y-182581426D01*
X73271680Y-182320273D01*
X73114637Y-182085241D01*
X72914759Y-181885363D01*
X72679727Y-181728320D01*
X72418574Y-181620147D01*
X72141335Y-181565000D01*
X71858665Y-181565000D01*
X71676114Y-181601312D01*
X69594000Y-179519199D01*
X69594000Y-178525087D01*
X69757254Y-178509008D01*
X69923850Y-178458472D01*
X70077386Y-178376405D01*
X70211962Y-178265962D01*
X70322405Y-178131386D01*
X70404472Y-177977850D01*
X70455008Y-177811254D01*
X70472072Y-177638000D01*
X70472072Y-176438000D01*
X70455008Y-176264746D01*
X70404472Y-176098150D01*
X70322405Y-175944614D01*
X70211962Y-175810038D01*
X70077386Y-175699595D01*
X69975407Y-175645086D01*
X69975795Y-175644802D01*
X70172664Y-175430046D01*
X70323854Y-175181009D01*
X70423554Y-174907261D01*
X70425476Y-174894890D01*
X70304155Y-174665000D01*
X68961000Y-174665000D01*
X68961000Y-174685000D01*
X68707000Y-174685000D01*
X68707000Y-174665000D01*
X67363845Y-174665000D01*
X67242524Y-174894890D01*
X67244446Y-174907261D01*
X67344146Y-175181009D01*
X67495336Y-175430046D01*
X67692205Y-175644802D01*
X67692593Y-175645086D01*
X67590614Y-175699595D01*
X67456038Y-175810038D01*
X67345595Y-175944614D01*
X67263528Y-176098150D01*
X67212992Y-176264746D01*
X67195928Y-176438000D01*
X67195928Y-177638000D01*
X67212992Y-177811254D01*
X67263528Y-177977850D01*
X67345595Y-178131386D01*
X67456038Y-178265962D01*
X67590614Y-178376405D01*
X67744150Y-178458472D01*
X67910746Y-178509008D01*
X68074001Y-178525087D01*
X68074001Y-179796668D01*
X68070324Y-179834000D01*
X68084998Y-179982985D01*
X68128454Y-180126246D01*
X68199026Y-180258276D01*
X68268560Y-180343002D01*
X68294000Y-180374001D01*
X68322998Y-180397799D01*
X70601312Y-182676114D01*
X70565000Y-182858665D01*
X70565000Y-183141335D01*
X70620147Y-183418574D01*
X70728320Y-183679727D01*
X70765393Y-183735210D01*
X70748815Y-183748815D01*
X70669463Y-183845506D01*
X70610498Y-183955820D01*
X70574188Y-184075518D01*
X70561928Y-184200000D01*
X70561928Y-184240000D01*
X67204802Y-184240000D01*
X65533804Y-182569003D01*
X65510001Y-182539999D01*
X65394276Y-182445026D01*
X65262247Y-182374454D01*
X65118986Y-182330997D01*
X65007333Y-182320000D01*
X65007322Y-182320000D01*
X64970000Y-182316324D01*
X64932678Y-182320000D01*
X64838043Y-182320000D01*
X64734637Y-182165241D01*
X64534759Y-181965363D01*
X64302241Y-181810000D01*
X64534759Y-181654637D01*
X64734637Y-181454759D01*
X64838043Y-181300000D01*
X65671199Y-181300000D01*
X65911312Y-181540114D01*
X65875000Y-181722665D01*
X65875000Y-182005335D01*
X65930147Y-182282574D01*
X66038320Y-182543727D01*
X66195363Y-182778759D01*
X66395241Y-182978637D01*
X66630273Y-183135680D01*
X66891426Y-183243853D01*
X67168665Y-183299000D01*
X67451335Y-183299000D01*
X67728574Y-183243853D01*
X67989727Y-183135680D01*
X68224759Y-182978637D01*
X68424637Y-182778759D01*
X68581680Y-182543727D01*
X68689853Y-182282574D01*
X68745000Y-182005335D01*
X68745000Y-181722665D01*
X68689853Y-181445426D01*
X68581680Y-181184273D01*
X68424637Y-180949241D01*
X68224759Y-180749363D01*
X67989727Y-180592320D01*
X67728574Y-180484147D01*
X67451335Y-180429000D01*
X67168665Y-180429000D01*
X66986114Y-180465312D01*
X66549804Y-180029003D01*
X66526001Y-179999999D01*
X66410276Y-179905026D01*
X66278247Y-179834454D01*
X66134986Y-179790997D01*
X66023333Y-179780000D01*
X66023322Y-179780000D01*
X65986000Y-179776324D01*
X65948678Y-179780000D01*
X65454803Y-179780000D01*
X65508800Y-179726003D01*
X65508805Y-179725997D01*
X65535004Y-179699798D01*
X65564001Y-179676001D01*
X65658974Y-179560276D01*
X65729546Y-179428247D01*
X65773003Y-179284986D01*
X65784000Y-179173333D01*
X65784000Y-179173323D01*
X65787676Y-179136000D01*
X65784000Y-179098677D01*
X65784000Y-174181110D01*
X67242524Y-174181110D01*
X67363845Y-174411000D01*
X68707000Y-174411000D01*
X68707000Y-173210768D01*
X68961000Y-173210768D01*
X68961000Y-174411000D01*
X70304155Y-174411000D01*
X70425476Y-174181110D01*
X70423554Y-174168739D01*
X70323854Y-173894991D01*
X70172664Y-173645954D01*
X69975795Y-173431198D01*
X69740812Y-173258975D01*
X69476745Y-173135904D01*
X69193742Y-173066715D01*
X68961000Y-173210768D01*
X68707000Y-173210768D01*
X68474258Y-173066715D01*
X68191255Y-173135904D01*
X67927188Y-173258975D01*
X67692205Y-173431198D01*
X67495336Y-173645954D01*
X67344146Y-173894991D01*
X67244446Y-174168739D01*
X67242524Y-174181110D01*
X65784000Y-174181110D01*
X65784000Y-167423323D01*
X65787676Y-167386000D01*
X65784000Y-167348677D01*
X65784000Y-167348667D01*
X65773003Y-167237014D01*
X65729546Y-167093753D01*
X65687544Y-167015174D01*
X65658974Y-166961723D01*
X65587799Y-166874997D01*
X65564001Y-166845999D01*
X65535003Y-166822201D01*
X64305645Y-165592844D01*
X64327000Y-165485486D01*
X64327000Y-165222514D01*
X64275696Y-164964595D01*
X64175061Y-164721641D01*
X64028962Y-164502987D01*
X63843013Y-164317038D01*
X63624359Y-164170939D01*
X63381405Y-164070304D01*
X63123486Y-164019000D01*
X62860514Y-164019000D01*
X62602595Y-164070304D01*
X62359641Y-164170939D01*
X62140987Y-164317038D01*
X61955038Y-164502987D01*
X61808939Y-164721641D01*
X61708304Y-164964595D01*
X61657000Y-165222514D01*
X61657000Y-165485486D01*
X61678355Y-165592843D01*
X58480403Y-168790795D01*
X58377777Y-168688169D01*
X58765018Y-168448024D01*
X59025641Y-167954123D01*
X59184901Y-167418867D01*
X59236678Y-166862826D01*
X59178981Y-166307368D01*
X59014028Y-165773839D01*
X58765018Y-165307976D01*
X58377775Y-165067830D01*
X56567605Y-166878000D01*
X56581748Y-166892143D01*
X56402143Y-167071748D01*
X56388000Y-167057605D01*
X54577830Y-168867775D01*
X54817976Y-169255018D01*
X55130630Y-169420000D01*
X50098072Y-169420000D01*
X50098072Y-167710000D01*
X50085812Y-167585518D01*
X50049502Y-167465820D01*
X49990537Y-167355506D01*
X49911185Y-167258815D01*
X49814494Y-167179463D01*
X49704180Y-167120498D01*
X49584482Y-167084188D01*
X49460000Y-167071928D01*
X47496730Y-167071928D01*
X47317976Y-166893174D01*
X53539322Y-166893174D01*
X53597019Y-167448632D01*
X53761972Y-167982161D01*
X54010982Y-168448024D01*
X54398225Y-168688170D01*
X56208395Y-166878000D01*
X54398225Y-165067830D01*
X54010982Y-165307976D01*
X53750359Y-165801877D01*
X53591099Y-166337133D01*
X53539322Y-166893174D01*
X47317976Y-166893174D01*
X45775804Y-165351003D01*
X45752001Y-165321999D01*
X45636276Y-165227026D01*
X45504247Y-165156454D01*
X45360986Y-165112997D01*
X45249333Y-165102000D01*
X45249322Y-165102000D01*
X45212000Y-165098324D01*
X45174678Y-165102000D01*
X40726043Y-165102000D01*
X40622637Y-164947241D01*
X40563621Y-164888225D01*
X54577830Y-164888225D01*
X56388000Y-166698395D01*
X58198170Y-164888225D01*
X57958024Y-164500982D01*
X57464123Y-164240359D01*
X56928867Y-164081099D01*
X56372826Y-164029322D01*
X55817368Y-164087019D01*
X55283839Y-164251972D01*
X54817976Y-164500982D01*
X54577830Y-164888225D01*
X40563621Y-164888225D01*
X40422759Y-164747363D01*
X40187727Y-164590320D01*
X39926574Y-164482147D01*
X39649335Y-164427000D01*
X39366665Y-164427000D01*
X39089426Y-164482147D01*
X38828273Y-164590320D01*
X38593241Y-164747363D01*
X38393363Y-164947241D01*
X38289957Y-165102000D01*
X37286043Y-165102000D01*
X37182637Y-164947241D01*
X36982759Y-164747363D01*
X36747727Y-164590320D01*
X36486574Y-164482147D01*
X36209335Y-164427000D01*
X35926665Y-164427000D01*
X35649426Y-164482147D01*
X35388273Y-164590320D01*
X35153241Y-164747363D01*
X34953363Y-164947241D01*
X34796320Y-165182273D01*
X34688147Y-165443426D01*
X34633000Y-165720665D01*
X34633000Y-166003335D01*
X34688147Y-166280574D01*
X34796320Y-166541727D01*
X34953363Y-166776759D01*
X35153241Y-166976637D01*
X35388273Y-167133680D01*
X35649426Y-167241853D01*
X35926665Y-167297000D01*
X36209335Y-167297000D01*
X36486574Y-167241853D01*
X36747727Y-167133680D01*
X36982759Y-166976637D01*
X37182637Y-166776759D01*
X37286043Y-166622000D01*
X38289957Y-166622000D01*
X38393363Y-166776759D01*
X38593241Y-166976637D01*
X38828273Y-167133680D01*
X39089426Y-167241853D01*
X39366665Y-167297000D01*
X39649335Y-167297000D01*
X39926574Y-167241853D01*
X40187727Y-167133680D01*
X40422759Y-166976637D01*
X40622637Y-166776759D01*
X40726043Y-166622000D01*
X44897199Y-166622000D01*
X46421928Y-168146730D01*
X46421928Y-170110000D01*
X46434188Y-170234482D01*
X46470498Y-170354180D01*
X46529463Y-170464494D01*
X46608815Y-170561185D01*
X46705506Y-170640537D01*
X46815820Y-170699502D01*
X46935518Y-170735812D01*
X47060000Y-170748072D01*
X49024204Y-170748072D01*
X49105724Y-170814974D01*
X49237753Y-170885546D01*
X49381014Y-170929003D01*
X49492667Y-170940000D01*
X49492676Y-170940000D01*
X49529999Y-170943676D01*
X49567322Y-170940000D01*
X58128678Y-170940000D01*
X58166000Y-170943676D01*
X58203322Y-170940000D01*
X58203333Y-170940000D01*
X58314986Y-170929003D01*
X58458247Y-170885546D01*
X58590276Y-170814974D01*
X58706001Y-170720001D01*
X58729804Y-170690997D01*
X62753157Y-166667645D01*
X62860514Y-166689000D01*
X63123486Y-166689000D01*
X63230844Y-166667645D01*
X64264001Y-167700803D01*
X64264000Y-174212610D01*
X64254974Y-174195723D01*
X64183799Y-174108997D01*
X64160001Y-174079999D01*
X64131003Y-174056201D01*
X63638072Y-173563270D01*
X63638072Y-172400000D01*
X63621008Y-172226746D01*
X63570472Y-172060150D01*
X63488405Y-171906614D01*
X63377962Y-171772038D01*
X63243386Y-171661595D01*
X63141663Y-171607223D01*
X63205134Y-171555134D01*
X63390706Y-171329014D01*
X63528599Y-171071034D01*
X63613513Y-170791111D01*
X63642185Y-170500000D01*
X63613513Y-170208889D01*
X63528599Y-169928966D01*
X63390706Y-169670986D01*
X63205134Y-169444866D01*
X62979014Y-169259294D01*
X62721034Y-169121401D01*
X62441111Y-169036487D01*
X62222950Y-169015000D01*
X61777050Y-169015000D01*
X61558889Y-169036487D01*
X61278966Y-169121401D01*
X61020986Y-169259294D01*
X60794866Y-169444866D01*
X60609294Y-169670986D01*
X60471401Y-169928966D01*
X60386487Y-170208889D01*
X60357815Y-170500000D01*
X60386487Y-170791111D01*
X60444115Y-170981083D01*
X55488998Y-175936201D01*
X55460000Y-175959999D01*
X55436202Y-175988997D01*
X55436201Y-175988998D01*
X55365026Y-176075724D01*
X55294454Y-176207754D01*
X55250998Y-176351015D01*
X55236324Y-176500000D01*
X55240001Y-176537332D01*
X55240001Y-176561928D01*
X55200000Y-176561928D01*
X55075518Y-176574188D01*
X54955820Y-176610498D01*
X54845506Y-176669463D01*
X54748815Y-176748815D01*
X54669463Y-176845506D01*
X54610498Y-176955820D01*
X54574188Y-177075518D01*
X54561928Y-177200000D01*
X54561928Y-178800000D01*
X54574188Y-178924482D01*
X54610498Y-179044180D01*
X54669463Y-179154494D01*
X54748815Y-179251185D01*
X54845506Y-179330537D01*
X54955820Y-179389502D01*
X55075518Y-179425812D01*
X55083961Y-179426643D01*
X54885363Y-179625241D01*
X54781957Y-179780000D01*
X48841804Y-179780000D01*
X44249784Y-175187980D01*
X47161626Y-175187980D01*
X47281514Y-175472836D01*
X47605210Y-175633699D01*
X47954069Y-175728322D01*
X48314684Y-175753067D01*
X48673198Y-175706985D01*
X49015833Y-175591846D01*
X49238486Y-175472836D01*
X49358374Y-175187980D01*
X48260000Y-174089605D01*
X47161626Y-175187980D01*
X44249784Y-175187980D01*
X43026488Y-173964684D01*
X46416933Y-173964684D01*
X46463015Y-174323198D01*
X46578154Y-174665833D01*
X46697164Y-174888486D01*
X46982020Y-175008374D01*
X48080395Y-173910000D01*
X48439605Y-173910000D01*
X49537980Y-175008374D01*
X49822836Y-174888486D01*
X49983699Y-174564790D01*
X50078322Y-174215931D01*
X50103067Y-173855316D01*
X50056985Y-173496802D01*
X49941846Y-173154167D01*
X49822836Y-172931514D01*
X49537980Y-172811626D01*
X48439605Y-173910000D01*
X48080395Y-173910000D01*
X46982020Y-172811626D01*
X46697164Y-172931514D01*
X46536301Y-173255210D01*
X46441678Y-173604069D01*
X46416933Y-173964684D01*
X43026488Y-173964684D01*
X41693824Y-172632020D01*
X47161626Y-172632020D01*
X48260000Y-173730395D01*
X49358374Y-172632020D01*
X49238486Y-172347164D01*
X48914790Y-172186301D01*
X48565931Y-172091678D01*
X48205316Y-172066933D01*
X47846802Y-172113015D01*
X47504167Y-172228154D01*
X47281514Y-172347164D01*
X47161626Y-172632020D01*
X41693824Y-172632020D01*
X40707805Y-171646002D01*
X40684002Y-171616998D01*
X40568277Y-171522025D01*
X40436248Y-171451453D01*
X40292987Y-171407996D01*
X40181334Y-171396999D01*
X40181323Y-171396999D01*
X40144001Y-171393323D01*
X40106679Y-171396999D01*
X33874323Y-171396999D01*
X33837000Y-171393323D01*
X33799677Y-171396999D01*
X33799668Y-171396999D01*
X33688015Y-171407996D01*
X33544754Y-171451453D01*
X33412725Y-171522025D01*
X33412723Y-171522026D01*
X33412724Y-171522026D01*
X33325997Y-171593200D01*
X33325993Y-171593204D01*
X33297000Y-171616998D01*
X33273206Y-171645991D01*
X32835886Y-172083312D01*
X32653335Y-172047000D01*
X32370665Y-172047000D01*
X32093426Y-172102147D01*
X31832273Y-172210320D01*
X31597241Y-172367363D01*
X31397363Y-172567241D01*
X31240320Y-172802273D01*
X31132147Y-173063426D01*
X31077000Y-173340665D01*
X31077000Y-173623335D01*
X31132147Y-173900574D01*
X31240320Y-174161727D01*
X31397363Y-174396759D01*
X31597241Y-174596637D01*
X31832273Y-174753680D01*
X32093426Y-174861853D01*
X32370665Y-174917000D01*
X32653335Y-174917000D01*
X32835886Y-174880688D01*
X34586930Y-176631732D01*
X34426254Y-176582992D01*
X34253000Y-176565928D01*
X32803000Y-176565928D01*
X32629746Y-176582992D01*
X32463150Y-176633528D01*
X32309614Y-176715595D01*
X32175038Y-176826038D01*
X32064595Y-176960614D01*
X31982528Y-177114150D01*
X31931992Y-177280746D01*
X31914928Y-177454000D01*
X31914928Y-178654000D01*
X31931992Y-178827254D01*
X31982528Y-178993850D01*
X32064595Y-179147386D01*
X32175038Y-179281962D01*
X32309614Y-179392405D01*
X32414961Y-179448714D01*
X32393571Y-179464951D01*
X32200504Y-179682807D01*
X32053648Y-179934142D01*
X31961524Y-180197110D01*
X32082845Y-180427000D01*
X33401000Y-180427000D01*
X33401000Y-180407000D01*
X33655000Y-180407000D01*
X33655000Y-180427000D01*
X34973155Y-180427000D01*
X35094476Y-180197110D01*
X35002352Y-179934142D01*
X34855496Y-179682807D01*
X34662429Y-179464951D01*
X34641039Y-179448714D01*
X34746386Y-179392405D01*
X34757490Y-179383292D01*
X35264206Y-179890009D01*
X35288000Y-179919002D01*
X35316993Y-179942796D01*
X35316997Y-179942800D01*
X35386695Y-179999999D01*
X35403725Y-180013975D01*
X35535754Y-180084547D01*
X35679015Y-180128004D01*
X35790668Y-180139001D01*
X35790677Y-180139001D01*
X35828000Y-180142677D01*
X35865323Y-180139001D01*
X40293677Y-180139001D01*
X40330999Y-180142677D01*
X40368321Y-180139001D01*
X40368332Y-180139001D01*
X40479985Y-180128004D01*
X40623246Y-180084547D01*
X40755275Y-180013975D01*
X40871000Y-179919002D01*
X40894802Y-179889999D01*
X41292730Y-179492072D01*
X42456000Y-179492072D01*
X42580482Y-179479812D01*
X42700180Y-179443502D01*
X42810494Y-179384537D01*
X42907185Y-179305185D01*
X42986537Y-179208494D01*
X43045502Y-179098180D01*
X43081812Y-178978482D01*
X43094072Y-178854000D01*
X43094072Y-177254000D01*
X43081812Y-177129518D01*
X43045502Y-177009820D01*
X42986537Y-176899506D01*
X42907185Y-176802815D01*
X42810494Y-176723463D01*
X42700180Y-176664498D01*
X42580482Y-176628188D01*
X42456000Y-176615928D01*
X41408100Y-176615928D01*
X39635002Y-174842831D01*
X39635002Y-174751916D01*
X39857039Y-174873904D01*
X39991087Y-174833246D01*
X40245420Y-174713037D01*
X40471414Y-174545519D01*
X40660385Y-174337131D01*
X40805070Y-174095881D01*
X40858599Y-173946399D01*
X47963202Y-181051002D01*
X47987001Y-181080001D01*
X48087291Y-181162307D01*
X47285750Y-181165000D01*
X47127000Y-181323750D01*
X47127000Y-182873000D01*
X48676250Y-182873000D01*
X48835000Y-182714250D01*
X48838072Y-181800000D01*
X48825812Y-181675518D01*
X48789502Y-181555820D01*
X48730537Y-181445506D01*
X48651185Y-181348815D01*
X48591704Y-181300000D01*
X54781957Y-181300000D01*
X54885363Y-181454759D01*
X55085241Y-181654637D01*
X55317759Y-181810000D01*
X55085241Y-181965363D01*
X54885363Y-182165241D01*
X54728320Y-182400273D01*
X54620147Y-182661426D01*
X54565000Y-182938665D01*
X54565000Y-183221335D01*
X54601312Y-183403886D01*
X54040198Y-183965001D01*
X48837282Y-183965001D01*
X48835000Y-183285750D01*
X48676250Y-183127000D01*
X47127000Y-183127000D01*
X47127000Y-183147000D01*
X46873000Y-183147000D01*
X46873000Y-183127000D01*
X45323750Y-183127000D01*
X45165000Y-183285750D01*
X45162718Y-183965001D01*
X40693320Y-183965001D01*
X40655997Y-183961325D01*
X40618674Y-183965001D01*
X40618664Y-183965001D01*
X40507011Y-183975998D01*
X40363750Y-184019455D01*
X40231720Y-184090027D01*
X40148080Y-184158669D01*
X40115996Y-184185000D01*
X40092198Y-184213998D01*
X36783997Y-187522200D01*
X36754999Y-187545998D01*
X36731201Y-187574996D01*
X36731200Y-187574997D01*
X36660025Y-187661723D01*
X36589453Y-187793753D01*
X36545997Y-187937014D01*
X36531323Y-188085999D01*
X36535000Y-188123331D01*
X36534999Y-189320678D01*
X36531323Y-189358001D01*
X36534999Y-189395323D01*
X36534999Y-189395333D01*
X36545996Y-189506986D01*
X36572848Y-189595506D01*
X36589453Y-189650247D01*
X36660025Y-189782277D01*
X36692399Y-189821724D01*
X36754998Y-189898002D01*
X36784002Y-189921805D01*
X38095198Y-191233002D01*
X38118997Y-191262001D01*
X38147995Y-191285799D01*
X38234721Y-191356974D01*
X38349453Y-191418300D01*
X38366751Y-191427546D01*
X38510012Y-191471003D01*
X38621665Y-191482000D01*
X38621675Y-191482000D01*
X38658998Y-191485676D01*
X38696321Y-191482000D01*
X39360569Y-191482000D01*
X40750496Y-192871928D01*
X39332000Y-192871928D01*
X39207518Y-192884188D01*
X39087820Y-192920498D01*
X38977506Y-192979463D01*
X38880815Y-193058815D01*
X38801463Y-193155506D01*
X38742498Y-193265820D01*
X38706188Y-193385518D01*
X38693928Y-193510000D01*
X38693928Y-193550000D01*
X36902803Y-193550000D01*
X32398688Y-189045886D01*
X32435000Y-188863335D01*
X32435000Y-188580665D01*
X32398688Y-188398114D01*
X34039003Y-186757799D01*
X34068001Y-186734001D01*
X34105487Y-186688324D01*
X34162974Y-186618277D01*
X34233546Y-186486247D01*
X34251878Y-186425812D01*
X34277003Y-186342986D01*
X34288000Y-186231333D01*
X34288000Y-186231323D01*
X34291676Y-186194000D01*
X34288000Y-186156677D01*
X34288000Y-184398409D01*
X34482014Y-184294706D01*
X34708134Y-184109134D01*
X34893706Y-183883014D01*
X35031599Y-183625034D01*
X35116513Y-183345111D01*
X35145185Y-183054000D01*
X35116513Y-182762889D01*
X35031599Y-182482966D01*
X34893706Y-182224986D01*
X34708134Y-181998866D01*
X34482014Y-181813294D01*
X34457143Y-181800000D01*
X45161928Y-181800000D01*
X45165000Y-182714250D01*
X45323750Y-182873000D01*
X46873000Y-182873000D01*
X46873000Y-181323750D01*
X46714250Y-181165000D01*
X45800000Y-181161928D01*
X45675518Y-181174188D01*
X45555820Y-181210498D01*
X45445506Y-181269463D01*
X45348815Y-181348815D01*
X45269463Y-181445506D01*
X45210498Y-181555820D01*
X45174188Y-181675518D01*
X45161928Y-181800000D01*
X34457143Y-181800000D01*
X34456278Y-181799538D01*
X34662429Y-181643049D01*
X34855496Y-181425193D01*
X35002352Y-181173858D01*
X35094476Y-180910890D01*
X34973155Y-180681000D01*
X33655000Y-180681000D01*
X33655000Y-180701000D01*
X33401000Y-180701000D01*
X33401000Y-180681000D01*
X32082845Y-180681000D01*
X31961524Y-180910890D01*
X32053648Y-181173858D01*
X32200504Y-181425193D01*
X32393571Y-181643049D01*
X32599722Y-181799538D01*
X32573986Y-181813294D01*
X32347866Y-181998866D01*
X32162294Y-182224986D01*
X32024401Y-182482966D01*
X31939487Y-182762889D01*
X31910815Y-183054000D01*
X31939487Y-183345111D01*
X32024401Y-183625034D01*
X32162294Y-183883014D01*
X32347866Y-184109134D01*
X32573986Y-184294706D01*
X32768000Y-184398409D01*
X32768001Y-185879197D01*
X31323886Y-187323312D01*
X31141335Y-187287000D01*
X30858665Y-187287000D01*
X30581426Y-187342147D01*
X30320273Y-187450320D01*
X30085241Y-187607363D01*
X29885363Y-187807241D01*
X29728320Y-188042273D01*
X29620147Y-188303426D01*
X29565000Y-188580665D01*
X28660000Y-188580665D01*
X28660000Y-166211040D01*
X31120091Y-166211040D01*
X31214930Y-166475881D01*
X31359615Y-166717131D01*
X31548586Y-166925519D01*
X31774580Y-167093037D01*
X32028913Y-167213246D01*
X32162961Y-167253904D01*
X32385000Y-167131915D01*
X32385000Y-165989000D01*
X32639000Y-165989000D01*
X32639000Y-167131915D01*
X32861039Y-167253904D01*
X32995087Y-167213246D01*
X33249420Y-167093037D01*
X33475414Y-166925519D01*
X33664385Y-166717131D01*
X33809070Y-166475881D01*
X33903909Y-166211040D01*
X33782624Y-165989000D01*
X32639000Y-165989000D01*
X32385000Y-165989000D01*
X31241376Y-165989000D01*
X31120091Y-166211040D01*
X28660000Y-166211040D01*
X28660000Y-165512960D01*
X31120091Y-165512960D01*
X31241376Y-165735000D01*
X32385000Y-165735000D01*
X32385000Y-164592085D01*
X32639000Y-164592085D01*
X32639000Y-165735000D01*
X33782624Y-165735000D01*
X33903909Y-165512960D01*
X33809070Y-165248119D01*
X33664385Y-165006869D01*
X33475414Y-164798481D01*
X33249420Y-164630963D01*
X32995087Y-164510754D01*
X32861039Y-164470096D01*
X32639000Y-164592085D01*
X32385000Y-164592085D01*
X32162961Y-164470096D01*
X32028913Y-164510754D01*
X31774580Y-164630963D01*
X31548586Y-164798481D01*
X31359615Y-165006869D01*
X31214930Y-165248119D01*
X31120091Y-165512960D01*
X28660000Y-165512960D01*
X28660000Y-163728000D01*
X96367472Y-163728000D01*
X96349241Y-186471702D01*
G37*
%TD.AperFunction*%
D28*
X39635000Y-173355000D02*
X39655000Y-173355000D01*
X39655000Y-173609000D01*
X39635000Y-173609000D01*
X39635000Y-173629000D01*
X39381000Y-173629000D01*
X39381000Y-173609000D01*
X39361000Y-173609000D01*
X39361000Y-173355000D01*
X39381000Y-173355000D01*
X39381000Y-173335000D01*
X39635000Y-173335000D01*
X39635000Y-173355000D01*
%TA.AperFunction,Conductor*%
D29*
G36*
X39635000Y-173355000D02*
G01*
X39655000Y-173355000D01*
X39655000Y-173609000D01*
X39635000Y-173609000D01*
X39635000Y-173629000D01*
X39381000Y-173629000D01*
X39381000Y-173609000D01*
X39361000Y-173609000D01*
X39361000Y-173355000D01*
X39381000Y-173355000D01*
X39381000Y-173335000D01*
X39635000Y-173335000D01*
X39635000Y-173355000D01*
G37*
%TD.AperFunction*%
%TD*%
M02*
