%TF.GenerationSoftware,KiCad,Pcbnew,6.0.0*%
%TF.CreationDate,2022-02-05T14:24:53+01:00*%
%TF.ProjectId,diy-schematics,6469792d-7363-4686-956d-61746963732e,rev?*%
%TF.SameCoordinates,Original*%
%TF.FileFunction,Copper,L2,Bot*%
%TF.FilePolarity,Positive*%
%FSLAX46Y46*%
G04 Gerber Fmt 4.6, Leading zero omitted, Abs format (unit mm)*
G04 Created by KiCad (PCBNEW 6.0.0) date 2022-02-05 14:24:53*
%MOMM*%
%LPD*%
G01*
G04 APERTURE LIST*
G04 Aperture macros list*
%AMRoundRect*
0 Rectangle with rounded corners*
0 $1 Rounding radius*
0 $2 $3 $4 $5 $6 $7 $8 $9 X,Y pos of 4 corners*
0 Add a 4 corners polygon primitive as box body*
4,1,4,$2,$3,$4,$5,$6,$7,$8,$9,$2,$3,0*
0 Add four circle primitives for the rounded corners*
1,1,$1+$1,$2,$3*
1,1,$1+$1,$4,$5*
1,1,$1+$1,$6,$7*
1,1,$1+$1,$8,$9*
0 Add four rect primitives between the rounded corners*
20,1,$1+$1,$2,$3,$4,$5,0*
20,1,$1+$1,$4,$5,$6,$7,0*
20,1,$1+$1,$6,$7,$8,$9,0*
20,1,$1+$1,$8,$9,$2,$3,0*%
G04 Aperture macros list end*
%TA.AperFunction,ComponentPad*%
%ADD10R,1.600000X1.600000*%
%TD*%
%TA.AperFunction,ComponentPad*%
%ADD11C,1.600000*%
%TD*%
%TA.AperFunction,ComponentPad*%
%ADD12O,1.600000X1.600000*%
%TD*%
%TA.AperFunction,ComponentPad*%
%ADD13R,2.400000X2.400000*%
%TD*%
%TA.AperFunction,ComponentPad*%
%ADD14C,2.400000*%
%TD*%
%TA.AperFunction,ComponentPad*%
%ADD15RoundRect,0.250000X0.750000X-0.600000X0.750000X0.600000X-0.750000X0.600000X-0.750000X-0.600000X0*%
%TD*%
%TA.AperFunction,ComponentPad*%
%ADD16O,2.000000X1.700000*%
%TD*%
%TA.AperFunction,ComponentPad*%
%ADD17R,1.700000X1.700000*%
%TD*%
%TA.AperFunction,ComponentPad*%
%ADD18O,1.700000X1.700000*%
%TD*%
%TA.AperFunction,ComponentPad*%
%ADD19RoundRect,0.250000X-0.725000X0.600000X-0.725000X-0.600000X0.725000X-0.600000X0.725000X0.600000X0*%
%TD*%
%TA.AperFunction,ComponentPad*%
%ADD20O,1.950000X1.700000*%
%TD*%
%TA.AperFunction,ComponentPad*%
%ADD21O,1.400000X1.400000*%
%TD*%
%TA.AperFunction,ComponentPad*%
%ADD22C,1.400000*%
%TD*%
%TA.AperFunction,ComponentPad*%
%ADD23R,1.500000X1.500000*%
%TD*%
%TA.AperFunction,ComponentPad*%
%ADD24O,1.500000X1.500000*%
%TD*%
%TA.AperFunction,ComponentPad*%
%ADD25C,4.400000*%
%TD*%
G04 APERTURE END LIST*
D10*
%TO.P,C1,1*%
%TO.N,Net-(C1-Pad1)*%
X41656000Y-178054000D03*
D11*
%TO.P,C1,2*%
%TO.N,Net-(C1-Pad2)*%
X39656000Y-178054000D03*
%TD*%
D12*
%TO.P,R5,2*%
%TO.N,Earth*%
X39508000Y-173482000D03*
D11*
%TO.P,R5,1*%
%TO.N,Net-(C3-Pad1)*%
X39508000Y-165862000D03*
%TD*%
D13*
%TO.P,C5,1*%
%TO.N,VBUS*%
X79756000Y-167386000D03*
D14*
%TO.P,C5,2*%
%TO.N,Earth*%
X79756000Y-172386000D03*
%TD*%
D11*
%TO.P,C10,1*%
%TO.N,VBUS*%
X83312000Y-183134000D03*
%TO.P,C10,2*%
%TO.N,Earth*%
X83312000Y-188134000D03*
%TD*%
%TO.P,C3,2*%
%TO.N,Earth*%
X67310000Y-186864000D03*
%TO.P,C3,1*%
%TO.N,Net-(C3-Pad1)*%
X67310000Y-181864000D03*
%TD*%
D14*
%TO.P,C4,2*%
%TO.N,Earth*%
X90424000Y-180260000D03*
D13*
%TO.P,C4,1*%
%TO.N,VBUS*%
X90424000Y-175260000D03*
%TD*%
%TO.P,C6,1*%
%TO.N,Net-(C3-Pad1)*%
X48260000Y-168910000D03*
D14*
%TO.P,C6,2*%
%TO.N,Earth*%
X48260000Y-173910000D03*
%TD*%
%TO.P,C7,2*%
%TO.N,Net-(C7-Pad2)*%
X47000000Y-188000000D03*
D13*
%TO.P,C7,1*%
%TO.N,Earth*%
X47000000Y-183000000D03*
%TD*%
D11*
%TO.P,C9,1*%
%TO.N,Net-(C7-Pad2)*%
X59690000Y-189992000D03*
%TO.P,C9,2*%
%TO.N,Earth*%
X64690000Y-189992000D03*
%TD*%
D15*
%TO.P,J2,1,Pin_1*%
%TO.N,Net-(J2-Pad1)*%
X62000000Y-173000000D03*
D16*
%TO.P,J2,2,Pin_2*%
%TO.N,Net-(J2-Pad2)*%
X62000000Y-170500000D03*
%TD*%
D17*
%TO.P,J5,1,Pin_1*%
%TO.N,VBUS*%
X87884000Y-195072000D03*
D18*
%TO.P,J5,2,Pin_2*%
%TO.N,Net-(J4-Pad2)*%
X87884000Y-192532000D03*
%TO.P,J5,3,Pin_3*%
%TO.N,Net-(J4-Pad3)*%
X87884000Y-189992000D03*
%TO.P,J5,4,Pin_4*%
%TO.N,Earth*%
X87884000Y-187452000D03*
%TD*%
D19*
%TO.P,J6,1,Pin_1*%
%TO.N,Net-(C1-Pad1)*%
X33528000Y-178054000D03*
D20*
%TO.P,J6,2,Pin_2*%
%TO.N,Earth*%
X33528000Y-180554000D03*
%TO.P,J6,3,Pin_3*%
%TO.N,Net-(C2-Pad1)*%
X33528000Y-183054000D03*
%TD*%
D12*
%TO.P,R1,2*%
%TO.N,Net-(C3-Pad1)*%
X36068000Y-165862000D03*
D11*
%TO.P,R1,1*%
%TO.N,Net-(C1-Pad1)*%
X36068000Y-173482000D03*
%TD*%
%TO.P,R2,1*%
%TO.N,Net-(C2-Pad1)*%
X31000000Y-188722000D03*
D12*
%TO.P,R2,2*%
%TO.N,Net-(C7-Pad2)*%
X38620000Y-188722000D03*
%TD*%
D11*
%TO.P,R3,1*%
%TO.N,Net-(C1-Pad2)*%
X32512000Y-173482000D03*
D12*
%TO.P,R3,2*%
%TO.N,Earth*%
X32512000Y-165862000D03*
%TD*%
%TO.P,R4,2*%
%TO.N,Earth*%
X46380000Y-195000000D03*
D11*
%TO.P,R4,1*%
%TO.N,Net-(C2-Pad2)*%
X54000000Y-195000000D03*
%TD*%
%TO.P,R6,1*%
%TO.N,Net-(C7-Pad2)*%
X64000000Y-193000000D03*
D12*
%TO.P,R6,2*%
%TO.N,Earth*%
X71620000Y-193000000D03*
%TD*%
D21*
%TO.P,R7,2*%
%TO.N,+15V*%
X68072000Y-165354000D03*
D22*
%TO.P,R7,1*%
%TO.N,Net-(C3-Pad1)*%
X62992000Y-165354000D03*
%TD*%
%TO.P,R8,1*%
%TO.N,Net-(C7-Pad2)*%
X56642000Y-190246000D03*
D21*
%TO.P,R8,2*%
%TO.N,-15V*%
X56642000Y-195326000D03*
%TD*%
D10*
%TO.P,U1,1,RG1*%
%TO.N,Net-(J2-Pad2)*%
X56000000Y-178000000D03*
D12*
%TO.P,U1,5,REF*%
%TO.N,Earth*%
X63620000Y-185620000D03*
%TO.P,U1,2,IN-*%
%TO.N,Net-(C1-Pad2)*%
X56000000Y-180540000D03*
%TO.P,U1,6,OUT*%
%TO.N,Net-(C8-Pad1)*%
X63620000Y-183080000D03*
%TO.P,U1,3,IN+*%
%TO.N,Net-(C2-Pad2)*%
X56000000Y-183080000D03*
%TO.P,U1,7,V+*%
%TO.N,Net-(C3-Pad1)*%
X63620000Y-180540000D03*
%TO.P,U1,4,V-*%
%TO.N,Net-(C7-Pad2)*%
X56000000Y-185620000D03*
%TO.P,U1,8,RG2*%
%TO.N,Net-(J2-Pad1)*%
X63620000Y-178000000D03*
%TD*%
D23*
%TO.P,U2,1,VIN+*%
%TO.N,VBUS*%
X80010000Y-179832000D03*
D24*
%TO.P,U2,2,VIN-*%
%TO.N,Earth*%
X80010000Y-182372000D03*
%TO.P,U2,4,VOUT-*%
%TO.N,-15V*%
X80010000Y-187452000D03*
%TO.P,U2,5,0V*%
%TO.N,Earth*%
X80010000Y-189992000D03*
%TO.P,U2,6,VOUT+*%
%TO.N,+15V*%
X80010000Y-192532000D03*
%TD*%
D11*
%TO.P,C2,2*%
%TO.N,Net-(C2-Pad2)*%
X42132000Y-194310000D03*
D10*
%TO.P,C2,1*%
%TO.N,Net-(C2-Pad1)*%
X40132000Y-194310000D03*
%TD*%
%TO.P,C8,1*%
%TO.N,Net-(C8-Pad1)*%
X72000000Y-185000000D03*
D11*
%TO.P,C8,2*%
%TO.N,Net-(C8-Pad2)*%
X72000000Y-183000000D03*
%TD*%
D15*
%TO.P,J3,1,Pin_1*%
%TO.N,Earth*%
X68834000Y-177272000D03*
D16*
%TO.P,J3,2,Pin_2*%
%TO.N,Net-(C8-Pad2)*%
X68834000Y-174772000D03*
%TD*%
D25*
%TO.P,H1,1,1*%
%TO.N,Earth*%
X56388000Y-166878000D03*
%TD*%
%TO.P,H2,1,1*%
%TO.N,Earth*%
X93000000Y-167000000D03*
%TD*%
%TO.P,H3,1,1*%
%TO.N,Earth*%
X32000000Y-194000000D03*
%TD*%
M02*
